<svg width="228" height="281" viewBox="0 0 228 281" fill="none" xmlns="http://www.w3.org/2000/svg">
<g clip-path="url(#clip0_271_3264)">
<path fill-rule="evenodd" clip-rule="evenodd" d="M128 94V87H137V94H128Z" fill="#C41D19"/>
<path fill-rule="evenodd" clip-rule="evenodd" d="M105.231 5.85417V0H134.462V5.85417H116.923H105.231Z" fill="black"/>
<path fill-rule="evenodd" clip-rule="evenodd" d="M93.5386 11.7084V5.85419H99.3847H105.231V11.7084H99.3847H93.5386Z" fill="black"/>
<path fill-rule="evenodd" clip-rule="evenodd" d="M105.231 5.85419H116.923H134.462V11.7084V17.5625V23.4167H128.615H122.769H116.923V29.2709H111.077H105.231H99.3847H93.5386V11.7084H99.3847H105.231V5.85419Z" fill="#FFD776"/>
<path fill-rule="evenodd" clip-rule="evenodd" d="M134.461 11.7084V5.85419H140.308V11.7084H134.461Z" fill="black"/>
<path fill-rule="evenodd" clip-rule="evenodd" d="M93.5384 11.7083V29.2708H81.8461H70.1538V23.4166H76H81.8461H87.6923V17.5625V11.7083H93.5384Z" fill="black"/>
<path fill-rule="evenodd" clip-rule="evenodd" d="M134.462 11.7083H140.308V17.5625V23.4166H146.154V35.125H122.769H105.231H99.3848V29.2708H105.231H111.077H116.923V23.4166H122.769H128.616H134.462V17.5625V11.7083Z" fill="#DFB54D"/>
<path fill-rule="evenodd" clip-rule="evenodd" d="M140.308 11.7083H146.154V17.5625V23.4166H140.308V17.5625V11.7083Z" fill="black"/>
<path fill-rule="evenodd" clip-rule="evenodd" d="M146.154 23.4167H152V29.2709V35.125V40.9792V46.8334V52.6875V58.5417V64.3959H146.154V46.8334V40.9792H140.308H134.461H128.615H122.769V46.8334H116.923V40.9792H111.077H105.231H99.3845H93.5384V46.8334V64.3959V70.25H87.6922V64.3959V58.5417V52.6875V46.8334V40.9792H81.8461H75.9999H70.1538H64.3076V35.125V29.2709H70.1538V35.125H75.9999H81.8461H87.6922H93.5384V29.2709H99.3845V35.125H105.231H122.769H146.154V23.4167Z" fill="black"/>
<path fill-rule="evenodd" clip-rule="evenodd" d="M70.1538 29.2708H81.8461V35.125H76H70.1538V29.2708Z" fill="#E7D6D3"/>
<path fill-rule="evenodd" clip-rule="evenodd" d="M81.8462 35.125V29.2708H93.5385V35.125H87.6923H81.8462Z" fill="#C2B4B1"/>
<path fill-rule="evenodd" clip-rule="evenodd" d="M93.5386 46.8334V40.9792H99.3847H105.231H111.077H116.923V46.8334H122.769V52.6875V58.5417H128.615V76.1042H122.769V81.9584H116.923V76.1042H111.077H105.231V70.25H111.077V64.3959H116.923V58.5417V52.6875H111.077V46.8334H105.231H99.3847H93.5386Z" fill="#C2915F"/>
<path fill-rule="evenodd" clip-rule="evenodd" d="M122.769 46.8334V40.9792H128.615H134.461H140.308H146.154V46.8334V64.3959H140.308V58.5417V52.6875H134.461V46.8334H128.615H122.769Z" fill="#6F2F17"/>
<path fill-rule="evenodd" clip-rule="evenodd" d="M93.5386 46.8333H99.3847V52.6875H105.231V46.8333H111.077V52.6875H116.923V58.5416V64.3958H111.077V70.25H105.231V64.3958H99.3847H93.5386V46.8333Z" fill="#FFD5AB"/>
<path fill-rule="evenodd" clip-rule="evenodd" d="M99.3848 46.8333H105.231V52.6875H99.3848V46.8333Z" fill="black"/>
<path fill-rule="evenodd" clip-rule="evenodd" d="M122.769 46.8333H128.615V58.5416H122.769V52.6875V46.8333Z" fill="black"/>
<path fill-rule="evenodd" clip-rule="evenodd" d="M128.615 46.8333H134.461V52.6875H140.308V58.5416V64.3958H134.461V58.5416H128.615V46.8333Z" fill="#994E32"/>
<path fill-rule="evenodd" clip-rule="evenodd" d="M128.615 58.5416H134.461V64.3958V76.1041H128.615V58.5416Z" fill="black"/>
<path fill-rule="evenodd" clip-rule="evenodd" d="M93.5386 70.25V64.3959H99.3847H105.231V70.25V76.1042H99.3847V70.25H93.5386Z" fill="#FFD5AB"/>
<path fill-rule="evenodd" clip-rule="evenodd" d="M134.461 64.3959H140.308V76.1042H134.461V64.3959Z" fill="#6F2F17"/>
<path fill-rule="evenodd" clip-rule="evenodd" d="M140.308 64.3959H146.154V70.25V76.1042H140.308V64.3959Z" fill="black"/>
<path fill-rule="evenodd" clip-rule="evenodd" d="M93.5386 70.25H99.3847V76.1042H93.5386V70.25Z" fill="black"/>
<path fill-rule="evenodd" clip-rule="evenodd" d="M99.3848 76.1041H105.231H111.077H116.923V81.9583H111.077H105.231H99.3848V76.1041Z" fill="black"/>
<path fill-rule="evenodd" clip-rule="evenodd" d="M128.615 76.1041V81.9583H134.461V76.1041H140.307V81.9583H146.154V87.8125H140.307H134.461H128.615H122.769H116.923V81.9583H122.769V76.1041H128.615Z" fill="black"/>
<path fill-rule="evenodd" clip-rule="evenodd" d="M128.615 76.1041H134.461V81.9583H128.615V76.1041Z" fill="#6F2F17"/>
<path fill-rule="evenodd" clip-rule="evenodd" d="M0 87.8125H5.84615H17.5385H40.9231H58.4615H76H81.8462V93.6667V99.5208V105.375V111.229V117.083V122.938H87.6923V128.792H70.1538V122.938H76V117.083V111.229V105.375V99.5208V93.6667H70.1538H64.3077H46.7692H35.0769H11.6923H5.84615V146.354V152.208H23.3846H40.9231H64.3077H70.1538H76V146.354V140.5H93.5385V146.354H87.6923H81.8462V152.208V158.062H76H58.4615H40.9231H17.5385H5.84615H0V140.5V128.792V105.375V87.8125Z" fill="black"/>
<path fill-rule="evenodd" clip-rule="evenodd" d="M111.077 93.6667V87.8125H116.923V93.6667H111.077Z" fill="black"/>
<path fill-rule="evenodd" clip-rule="evenodd" d="M116.923 93.6667V87.8125H122.769H128.615V93.6667H134.461V99.5208H128.615H122.769V93.6667H116.923Z" fill="#C41D19"/>
<path fill-rule="evenodd" clip-rule="evenodd" d="M134.461 93.6667V87.8125H140.308H146.154V93.6667H152V99.5208H157.846V105.375H163.692V117.083H157.846V111.229H152V105.375H146.154V99.5208H140.308V93.6667H134.461Z" fill="#C41D19"/>
<path fill-rule="evenodd" clip-rule="evenodd" d="M146.154 87.8125H152V93.6667H146.154V87.8125Z" fill="black"/>
<path fill-rule="evenodd" clip-rule="evenodd" d="M64.3077 93.6666V117.083H58.4616V111.229H52.6154V105.375H46.7693H40.9231V111.229V117.083H35.077H29.2308H23.3847V122.937V128.792V134.646H29.2308V140.5V146.354H23.3847H17.5385H5.84619V93.6666H11.6923H35.077H46.7693H64.3077Z" fill="#FFD776"/>
<path fill-rule="evenodd" clip-rule="evenodd" d="M64.3076 93.6666H70.1538H75.9999V99.5208V105.375V111.229V117.083V122.937H70.1538V117.083H64.3076V93.6666Z" fill="#DFB54D"/>
<path fill-rule="evenodd" clip-rule="evenodd" d="M111.077 93.6666V99.5208V105.375H105.231V99.5208V93.6666H111.077Z" fill="black"/>
<path fill-rule="evenodd" clip-rule="evenodd" d="M111.077 99.5208V93.6666H116.923V99.5208H111.077Z" fill="#C41D19"/>
<path fill-rule="evenodd" clip-rule="evenodd" d="M116.923 99.5208V93.6666H122.769V99.5208H116.923Z" fill="#C41D19"/>
<path fill-rule="evenodd" clip-rule="evenodd" d="M134.461 99.5208V93.6666H140.308V99.5208H134.461Z" fill="#C41D19"/>
<path fill-rule="evenodd" clip-rule="evenodd" d="M152 93.6666H157.846V99.5208H152V93.6666Z" fill="black"/>
<path fill-rule="evenodd" clip-rule="evenodd" d="M111.077 99.5209H116.923V105.375H122.769V111.229V117.083H116.923V122.938H111.077V128.792H105.231H99.3847V122.938H93.5386V117.083H99.3847V111.229H105.231V105.375H111.077V99.5209Z" fill="#FF2722"/>
<path fill-rule="evenodd" clip-rule="evenodd" d="M116.923 99.5209H122.769V105.375H116.923V99.5209Z" fill="#C41D19"/>
<path fill-rule="evenodd" clip-rule="evenodd" d="M122.769 105.375V99.5209H128.615V105.375H122.769Z" fill="#C41D19"/>
<path fill-rule="evenodd" clip-rule="evenodd" d="M128.615 105.375V99.5209H134.461V105.375H128.615Z" fill="#C41D19"/>
<path fill-rule="evenodd" clip-rule="evenodd" d="M134.461 105.375V99.5209H140.308V105.375H134.461Z" fill="#C41D19"/>
<path fill-rule="evenodd" clip-rule="evenodd" d="M140.308 105.375V99.5209H146.154V105.375H140.308Z" fill="#C41D19"/>
<path fill-rule="evenodd" clip-rule="evenodd" d="M157.846 99.5209H163.692V105.375H157.846V99.5209Z" fill="black"/>
<path fill-rule="evenodd" clip-rule="evenodd" d="M52.6155 111.229H46.7694V117.083V122.938H40.9232H35.0771H29.2309V128.792V134.646H23.3848V128.792V122.938V117.083H29.2309H35.0771H40.9232V111.229V105.375H46.7694H52.6155V111.229Z" fill="black"/>
<path fill-rule="evenodd" clip-rule="evenodd" d="M99.3848 111.229V105.375H105.231V111.229H99.3848Z" fill="black"/>
<path fill-rule="evenodd" clip-rule="evenodd" d="M122.769 105.375H128.616V111.229H134.462V117.083H140.308V122.938H146.154V128.792H152V134.646H157.846V140.5H163.692V146.354H169.539V158.062V163.917H163.692H157.846H152V158.062V152.208H146.154V146.354V140.5H140.308V134.646H134.462H128.616H122.769V128.792H128.616V122.938H122.769V128.792H116.923V134.646H105.231V128.792H111.077V122.938H116.923V117.083H122.769V111.229V105.375Z" fill="#C41D19"/>
<path fill-rule="evenodd" clip-rule="evenodd" d="M128.615 105.375H134.461V111.229H128.615V105.375Z" fill="#C41D19"/>
<path fill-rule="evenodd" clip-rule="evenodd" d="M134.461 111.229V105.375H140.308V111.229H134.461Z" fill="#C41D19"/>
<path fill-rule="evenodd" clip-rule="evenodd" d="M140.308 111.229V105.375H146.154V111.229H140.308Z" fill="#C41D19"/>
<path fill-rule="evenodd" clip-rule="evenodd" d="M146.154 111.229V105.375H152V111.229H146.154Z" fill="#C41D19"/>
<path fill-rule="evenodd" clip-rule="evenodd" d="M163.692 105.375H169.539V111.229V117.083H163.692V105.375Z" fill="black"/>
<path fill-rule="evenodd" clip-rule="evenodd" d="M52.6152 111.229V122.937H46.769V117.083V111.229H52.6152Z" fill="#FFD5AB"/>
<path fill-rule="evenodd" clip-rule="evenodd" d="M52.6152 111.229H58.4614V117.083H64.3075H70.1537V122.937H52.6152V111.229Z" fill="black"/>
<path fill-rule="evenodd" clip-rule="evenodd" d="M93.5386 117.083V111.229H99.3847V117.083H93.5386Z" fill="black"/>
<path fill-rule="evenodd" clip-rule="evenodd" d="M134.461 111.229H140.308V117.083H134.461V111.229Z" fill="#C41D19"/>
<path fill-rule="evenodd" clip-rule="evenodd" d="M140.308 117.083V111.229H146.154V117.083H140.308Z" fill="#C41D19"/>
<path fill-rule="evenodd" clip-rule="evenodd" d="M146.154 117.083V111.229H152V117.083H146.154Z" fill="#C41D19"/>
<path fill-rule="evenodd" clip-rule="evenodd" d="M152 117.083V111.229H157.846V117.083H152Z" fill="#C41D19"/>
<path fill-rule="evenodd" clip-rule="evenodd" d="M87.6924 122.938V117.083H93.5385V122.938H87.6924Z" fill="black"/>
<path fill-rule="evenodd" clip-rule="evenodd" d="M140.308 117.083H146.154V122.938H140.308V117.083Z" fill="#C41D19"/>
<path fill-rule="evenodd" clip-rule="evenodd" d="M146.154 122.938V117.083H152H157.846V122.938H163.692V128.792H169.538V134.646H175.385V140.5V152.208V146.354H169.538V140.5H163.692V134.646H157.846V128.792H152V122.938H146.154Z" fill="#C41D19"/>
<path fill-rule="evenodd" clip-rule="evenodd" d="M157.846 117.083H163.692V122.938H157.846V117.083Z" fill="#C41D19"/>
<path fill-rule="evenodd" clip-rule="evenodd" d="M163.692 123.214V117.083H169.539V123.214H163.692Z" fill="#C41D19"/>
<path fill-rule="evenodd" clip-rule="evenodd" d="M163.692 128.854V123H169.539V128.854H163.692Z" fill="#C41D19"/>
<path fill-rule="evenodd" clip-rule="evenodd" d="M169.538 117.083H175.384V122.938V128.792V147H169.538V128.792L169.538 122.938L169.538 117.083Z" fill="black"/>
<path fill-rule="evenodd" clip-rule="evenodd" d="M29.231 128.792V122.938H35.0771H40.9233H46.7694V128.792H35.0771H29.231Z" fill="#FFD5AB"/>
<path fill-rule="evenodd" clip-rule="evenodd" d="M46.769 128.792V122.938H52.6152V128.792H46.769Z" fill="#C2915F"/>
<path fill-rule="evenodd" clip-rule="evenodd" d="M52.6152 128.792V122.938H70.1537V128.792H64.3075H52.6152Z" fill="#FFD5AB"/>
<path fill-rule="evenodd" clip-rule="evenodd" d="M87.6923 128.792V122.938H93.5385V128.792H99.3846V134.646H93.5385V140.5H76V134.646H81.8462H87.6923V128.792Z" fill="#C2915F"/>
<path fill-rule="evenodd" clip-rule="evenodd" d="M93.5386 122.938H99.3847V128.792H93.5386V122.938Z" fill="black"/>
<path fill-rule="evenodd" clip-rule="evenodd" d="M122.769 128.792V122.938H128.615V128.792H122.769Z" fill="black"/>
<path fill-rule="evenodd" clip-rule="evenodd" d="M146.154 122.938H152V128.792H146.154V122.938Z" fill="#C41D19"/>
<path fill-rule="evenodd" clip-rule="evenodd" d="M29.231 134.646V128.792H35.0771H46.7694V134.646H35.0771H29.231Z" fill="#C2915F"/>
<path fill-rule="evenodd" clip-rule="evenodd" d="M46.769 134.646V128.792H52.6152H64.3075V134.646H46.769Z" fill="black"/>
<path fill-rule="evenodd" clip-rule="evenodd" d="M64.3076 134.646V128.792H70.1538V134.646H64.3076Z" fill="#C2915F"/>
<path fill-rule="evenodd" clip-rule="evenodd" d="M70.1538 134.646V128.792H87.6923V134.646H81.8461H76H70.1538Z" fill="#FFD5AB"/>
<path fill-rule="evenodd" clip-rule="evenodd" d="M99.3848 134.646V128.792H105.231V134.646H99.3848Z" fill="black"/>
<path fill-rule="evenodd" clip-rule="evenodd" d="M116.923 134.646V128.792H122.769V134.646H116.923Z" fill="black"/>
<path fill-rule="evenodd" clip-rule="evenodd" d="M152 128.792H157.846V134.646H152V128.792Z" fill="#C41D19"/>
<path fill-rule="evenodd" clip-rule="evenodd" d="M29.231 140.5V134.646H35.0771H46.7694V140.5H35.0771H29.231Z" fill="black"/>
<path fill-rule="evenodd" clip-rule="evenodd" d="M46.7693 140.5V134.646H64.3077V140.5H70.1539H76V146.354V152.208H70.1539H64.3077H40.9231H23.3847H5.84619V146.354H17.5385H23.3847H29.2308V140.5H35.077H46.7693V146.354H52.6154H58.4616V140.5H52.6154H46.7693Z" fill="#DFB54D"/>
<path fill-rule="evenodd" clip-rule="evenodd" d="M64.3076 134.646H70.1538H75.9999V140.5H70.1538H64.3076V134.646Z" fill="black"/>
<path fill-rule="evenodd" clip-rule="evenodd" d="M93.5386 140.5V134.646H99.3847V140.5H93.5386Z" fill="black"/>
<path fill-rule="evenodd" clip-rule="evenodd" d="M105.231 134.646H116.923V140.5V158.063V163.917H122.769H128.616H152H157.846H163.692H169.539V158.063V146.354H175.385V152.208V158.063V163.917V169.771V187.333H169.539V175.625V169.771H163.692H157.846H152H146.154H140.308H134.462H128.616H122.769H116.923V175.625H111.077V158.063V152.208V146.354V140.5H105.231V134.646Z" fill="black"/>
<path fill-rule="evenodd" clip-rule="evenodd" d="M116.923 140.5V134.646H122.769V140.5H116.923Z" fill="#C41D19"/>
<path fill-rule="evenodd" clip-rule="evenodd" d="M122.769 134.646H128.615H134.461H140.307V140.5H146.154V146.354V152.208H152V158.063V163.917H128.615H122.769H116.923V158.063V140.5H122.769V134.646Z" fill="#FF2722"/>
<path fill-rule="evenodd" clip-rule="evenodd" d="M157.846 134.646H163.692V140.5H157.846V134.646Z" fill="#C41D19"/>
<path fill-rule="evenodd" clip-rule="evenodd" d="M46.769 140.5H52.6152H58.4614V146.354H52.6152H46.769V140.5Z" fill="#FFD776"/>
<path fill-rule="evenodd" clip-rule="evenodd" d="M163.692 140.5H169.539V146.354H163.692V140.5Z" fill="#C41D19"/>
<path fill-rule="evenodd" clip-rule="evenodd" d="M116.923 175.625V169.771H122.769H128.616H134.462H140.308H146.154H152H157.846H163.692H169.539V175.625V187.333H163.692V193.188H157.846V199.042H152V204.896H146.154V210.75V216.604H140.308V222.458V228.313H146.154V234.167V240.021V245.875H152V257.583H140.308H134.462H128.616V251.729V245.875V240.021V234.167H122.769V216.604H128.616V210.75V204.896H134.462V199.042H140.308H146.154V193.188H152V187.333H157.846V181.479H152V187.333H146.154V193.188H140.308H134.462V199.042H128.616V204.896H122.769V210.75V216.604H116.923V222.458V228.313V234.167H122.769V251.729V257.583H116.923H105.231H99.3848V251.729H111.077H116.923V245.875H111.077V240.021V234.167H105.231V228.313V222.458V216.604V210.75H111.077V204.896H116.923V199.042H122.769V193.188H128.616V187.333H134.462V181.479V175.625H116.923Z" fill="#284354"/>
<path fill-rule="evenodd" clip-rule="evenodd" d="M111.077 175.625V181.479V187.333H105.231V181.479V175.625H111.077Z" fill="black"/>
<path fill-rule="evenodd" clip-rule="evenodd" d="M111.077 181.479V175.625H116.923V181.479H111.077Z" fill="#284354"/>
<path fill-rule="evenodd" clip-rule="evenodd" d="M116.923 175.625H134.462V181.479V187.333H128.615V193.187H122.769V199.042H116.923V204.896H111.077V210.75H105.231V216.604V222.458V228.312V234.167H111.077V240.021V245.875H116.923V251.729H111.077H99.3847V245.875H93.5385V240.021V234.167V228.312H87.6924V204.896H93.5385V199.042H99.3847V193.187H105.231V187.333H111.077V181.479H116.923V175.625Z" fill="#476679"/>
<path fill-rule="evenodd" clip-rule="evenodd" d="M152 187.333V181.479H157.846V187.333H152Z" fill="black"/>
<path fill-rule="evenodd" clip-rule="evenodd" d="M99.3848 193.188V187.333H105.231V193.188H99.3848Z" fill="black"/>
<path fill-rule="evenodd" clip-rule="evenodd" d="M146.154 193.188V187.333H152V193.188H146.154Z" fill="black"/>
<path fill-rule="evenodd" clip-rule="evenodd" d="M163.692 193.188V187.333H169.539V193.188H163.692Z" fill="black"/>
<path fill-rule="evenodd" clip-rule="evenodd" d="M93.5386 199.042V193.188H99.3847V199.042H93.5386Z" fill="black"/>
<path fill-rule="evenodd" clip-rule="evenodd" d="M134.461 199.042V193.188H140.308H146.154V199.042H140.308H134.461Z" fill="black"/>
<path fill-rule="evenodd" clip-rule="evenodd" d="M157.846 199.042V193.188H163.692V199.042H157.846Z" fill="black"/>
<path fill-rule="evenodd" clip-rule="evenodd" d="M87.6924 204.896V199.042H93.5385V204.896H87.6924Z" fill="black"/>
<path fill-rule="evenodd" clip-rule="evenodd" d="M128.615 204.896V199.042H134.461V204.896H128.615Z" fill="black"/>
<path fill-rule="evenodd" clip-rule="evenodd" d="M152 204.896V199.042H157.846V204.896H152Z" fill="black"/>
<path fill-rule="evenodd" clip-rule="evenodd" d="M87.6923 204.896V228.313H81.8462V222.458V216.604V210.75V204.896H87.6923Z" fill="black"/>
<path fill-rule="evenodd" clip-rule="evenodd" d="M128.615 204.896V210.75V216.604H122.769V210.75V204.896H128.615Z" fill="black"/>
<path fill-rule="evenodd" clip-rule="evenodd" d="M122.769 216.604V234.167H116.923V228.312V222.458V216.604H122.769Z" fill="black"/>
<path fill-rule="evenodd" clip-rule="evenodd" d="M146.154 216.604V228.312H140.308V222.458V216.604H146.154Z" fill="black"/>
<path fill-rule="evenodd" clip-rule="evenodd" d="M87.6924 228.312H93.5385V234.167V240.021V245.875H87.6924V240.021V234.167V228.312Z" fill="black"/>
<path fill-rule="evenodd" clip-rule="evenodd" d="M146.154 228.312H152V234.167V240.021V245.875H146.154V240.021V234.167V228.312Z" fill="black"/>
<path fill-rule="evenodd" clip-rule="evenodd" d="M122.769 234.167H128.615V257.583H152V245.875H157.846V281H76V269.292H81.8462V275.146H128.615V263.437H93.5385V245.875H99.3846V257.583H122.769V234.167ZM134.462 275.146H152V263.437H134.462V275.146Z" fill="black"/>
<path fill-rule="evenodd" clip-rule="evenodd" d="M81.8462 269.292V263.438H87.6923H93.5385V269.292H87.6923H81.8462Z" fill="black"/>
<path fill-rule="evenodd" clip-rule="evenodd" d="M93.5385 263.438H111.077V269.292H105.231H99.3847V275.146H93.5385H87.6923H81.8462V269.292H87.6923H93.5385V263.438Z" fill="#D1B266"/>
<path fill-rule="evenodd" clip-rule="evenodd" d="M111.077 263.438H116.923H122.769H128.616V269.292V275.146H122.769H99.3848V269.292H105.231H111.077V263.438Z" fill="#AE9149"/>
<path fill-rule="evenodd" clip-rule="evenodd" d="M134.461 269.292V263.438H140.308H146.154H152V269.292V275.146H146.154H140.308H134.461V269.292Z" fill="#AE9149"/>
</g>
<defs>
<clipPath id="clip0_271_3264">
<rect width="228" height="281" fill="white"/>
</clipPath>
</defs>
</svg>
