<svg width="51" height="43" viewBox="0 0 51 43" fill="none" xmlns="http://www.w3.org/2000/svg">
<path d="M11.767 23.4568V27.3654H15.6893V31.2741H19.6116V35.1827H31.3786V31.2741H35.3009V27.3654H39.2232V23.4568H43.1455V7.81727H39.2232V3.90863H31.3786V7.81727H27.4563V11.7259H23.5339V7.81727H19.6116V3.90863H7.84468V7.81727H3.92236V23.4568H11.767ZM7.84468 11.7308H11.767V7.8222H15.6893V11.7308H11.767V15.6395H7.84468V11.7308Z" fill="#FF2722"/>
<path d="M11.767 11.726H7.84473V15.6346H11.767V11.726Z" fill="white"/>
<path d="M15.6894 7.81726H11.7671V11.7259H15.6894V7.81726Z" fill="white"/>
<path d="M39.228 31.274H35.3057V35.1827H39.228V31.274Z" fill="black"/>
<path d="M43.1503 27.3654H39.228V31.2741H43.1503V27.3654Z" fill="black"/>
<path d="M51 7.81726H47.0776V23.4568H51V7.81726Z" fill="black"/>
<path d="M35.3056 35.1827H31.3833V39.0914H35.3056V35.1827Z" fill="black"/>
<path d="M31.3836 39.0914H19.6167V43H31.3836V39.0914Z" fill="black"/>
<path d="M15.6894 31.274H11.7671V35.1827H15.6894V31.274Z" fill="black"/>
<path d="M19.6167 35.1827H15.6943V39.0914H19.6167V35.1827Z" fill="black"/>
<path d="M11.767 27.3654H7.84473V31.2741H11.767V27.3654Z" fill="black"/>
<path d="M31.3833 3.90863H27.4609V7.81727H31.3833V3.90863Z" fill="black"/>
<path d="M43.1552 3.90864V0H31.3833V3.90864H39.2279H43.1552Z" fill="black"/>
<path d="M47.0776 23.4568H43.1553V27.3654H47.0776V23.4568Z" fill="black"/>
<path d="M47.0776 3.90863H43.1553V7.81727H47.0776V3.90863Z" fill="black"/>
<path d="M7.84468 23.4568H3.92236V27.3654H7.84468V23.4568Z" fill="black"/>
<path d="M7.84468 3.90863H3.92236V7.81727H7.84468V3.90863Z" fill="black"/>
<path d="M27.4614 7.81726H23.5391V11.7259H27.4614V7.81726Z" fill="black"/>
<path d="M23.539 3.90863H19.6167V7.81727H23.539V3.90863Z" fill="black"/>
<path d="M19.6117 0H7.84473V3.90864H19.6117V0Z" fill="black"/>
<path d="M3.92232 7.81726H0V23.4568H3.92232V7.81726Z" fill="black"/>
<path d="M15.6894 27.3654H11.7671V31.2741H15.6894V27.3654Z" fill="#952B29"/>
<path d="M39.228 27.3654H35.3057V31.2741H39.228V27.3654Z" fill="#952B29"/>
<path d="M11.767 23.4568H7.84473V27.3654H11.767V23.4568Z" fill="#952B29"/>
<path d="M43.1503 3.90863H39.228V7.81727H43.1503V3.90863Z" fill="#952B29"/>
<path d="M35.3056 31.274H31.3833V35.1827H35.3056V31.274Z" fill="#952B29"/>
<path d="M43.1503 23.4568H39.228V27.3654H43.1503V23.4568Z" fill="#952B29"/>
<path d="M31.3836 35.1827H19.6167V39.0914H31.3836V35.1827Z" fill="#952B29"/>
<path d="M47.0776 7.81726H43.1553V23.4568H47.0776V7.81726Z" fill="#952B29"/>
<path d="M19.6167 31.274H15.6943V35.1827H19.6167V31.274Z" fill="#952B29"/>
</svg>
