<svg width="51" height="43" viewBox="0 0 51 43" fill="none" xmlns="http://www.w3.org/2000/svg">
<path d="M15.6894 7.81726H11.7671V11.7259H15.6894V7.81726Z" fill="white"/>
<path d="M11.767 11.726H7.84473V15.6346H11.767V11.726Z" fill="white"/>
<path d="M43.1552 3.90864V0H31.3833V3.90864H39.2329H43.1552Z" fill="black"/>
<path d="M23.539 3.90863H19.6167V7.81727H23.539V3.90863Z" fill="black"/>
<path d="M31.3833 3.90863H27.4609V7.81727H31.3833V3.90863Z" fill="black"/>
<path d="M27.4614 7.81726H23.5391V11.7259H27.4614V7.81726Z" fill="black"/>
<path d="M7.84468 3.90863H3.92236V7.81727H7.84468V3.90863Z" fill="black"/>
<path d="M19.6166 35.1827H15.6943V39.0914H19.6166V35.1827Z" fill="black"/>
<path d="M11.767 27.3654H7.84473V31.2741H11.767V27.3654Z" fill="black"/>
<path d="M7.84468 23.4568H3.92236V27.3654H7.84468V23.4568Z" fill="black"/>
<path d="M31.3837 39.0914H19.6167V43H31.3837V39.0914Z" fill="black"/>
<path d="M15.6894 31.274H11.7671V35.1827H15.6894V31.274Z" fill="black"/>
<path d="M19.6117 0H7.84473V3.90864H19.6117V0Z" fill="black"/>
<path d="M3.92232 7.81726H0V23.4568H3.92232V7.81726Z" fill="black"/>
<path d="M39.228 31.274H35.3057V35.1827H39.228V31.274Z" fill="black"/>
<path d="M43.1552 27.3654H39.2329V31.2741H43.1552V27.3654Z" fill="black"/>
<path d="M47.0776 3.90863H43.1553V7.81727H47.0776V3.90863Z" fill="black"/>
<path d="M47.0776 23.4568H43.1553V27.3654H47.0776V23.4568Z" fill="black"/>
<path d="M50.9999 7.81726H47.0776V23.4568H50.9999V7.81726Z" fill="black"/>
<path d="M35.3056 35.1827H31.3833V39.0914H35.3056V35.1827Z" fill="black"/>
<path opacity="0.21" d="M43.1552 3.90863H39.2329V7.81727H43.1552V3.90863Z" fill="white"/>
<path opacity="0.21" d="M11.767 23.4568H7.84473V27.3654H11.767V23.4568Z" fill="white"/>
<path opacity="0.21" d="M31.3837 35.1827H19.6167V39.0914H31.3837V35.1827Z" fill="white"/>
<path opacity="0.21" d="M35.3056 31.274H31.3833V35.1827H35.3056V31.274Z" fill="white"/>
<path opacity="0.21" d="M39.228 27.3654H35.3057V31.2741H39.228V27.3654Z" fill="white"/>
<path opacity="0.21" d="M47.0776 7.81726H43.1553V23.4568H47.0776V7.81726Z" fill="white"/>
<path opacity="0.21" d="M19.6166 31.274H15.6943V35.1827H19.6166V31.274Z" fill="white"/>
<path opacity="0.21" d="M43.1552 23.4568H39.2329V27.3654H43.1552V23.4568Z" fill="white"/>
<path opacity="0.21" d="M15.6894 27.3654H11.7671V31.2741H15.6894V27.3654Z" fill="white"/>
</svg>
