<svg width="122" height="77" viewBox="0 0 122 77" fill="none" xmlns="http://www.w3.org/2000/svg">
<path d="M121.38 49.4658H115.875V54.9184H121.38V49.4658Z" fill="#121E6B"/>
<path d="M121.38 44.0137H115.875V49.4662H121.38V44.0137Z" fill="#17278C"/>
<path d="M121.38 38.5605H115.875V44.0131H121.38V38.5605Z" fill="#17278C"/>
<path d="M121.38 33.1084H115.875V38.5609H121.38V33.1084Z" fill="#2640E6"/>
<path d="M121.38 27.6558H115.875V33.1083H121.38V27.6558Z" fill="#334FFF"/>
<path d="M121.38 22.2031H115.875V27.6557H121.38V22.2031Z" fill="#334FFF"/>
<path d="M110.394 16.7569L110.387 22.2095L115.892 22.2162L115.899 16.7637L110.394 16.7569Z" fill="#2843F0"/>
<path d="M115.874 54.9185H110.369V60.371H115.874V54.9185Z" fill="#121E6B"/>
<path d="M115.874 49.4658H110.369V54.9184H115.874V49.4658Z" fill="#17278C"/>
<path d="M115.874 44.0137H110.369V49.4662H115.874V44.0137Z" fill="#17278C"/>
<path d="M115.874 38.5605H110.369V44.0131H115.874V38.5605Z" fill="#2843F0"/>
<path d="M115.874 33.1084H110.369V38.5609H115.874V33.1084Z" fill="#2640E6"/>
<path d="M115.874 27.6558H110.369V33.1083H115.874V27.6558Z" fill="#334FFF"/>
<path d="M115.874 22.2031H110.369V27.6557H115.874V22.2031Z" fill="#334FFF"/>
<path d="M110.369 60.3711H104.863V65.8236H110.369V60.3711Z" fill="#121E6B"/>
<path d="M110.369 54.9185H104.863V60.371H110.369V54.9185Z" fill="#17278C"/>
<path d="M110.369 49.4658H104.863V54.9184H110.369V49.4658Z" fill="#17278C"/>
<path d="M110.369 44.0137H104.863V49.4662H110.369V44.0137Z" fill="#2843F0"/>
<path d="M110.369 38.5605H104.863V44.0131H110.369V38.5605Z" fill="#2843F0"/>
<path d="M110.369 33.1084H104.863V38.5609H110.369V33.1084Z" fill="#2640E6"/>
<path d="M110.369 27.6558H104.863V33.1083H110.369V27.6558Z" fill="#334FFF"/>
<path d="M110.369 22.2031H104.863V27.6557H110.369V22.2031Z" fill="#334FFF"/>
<path d="M110.369 16.7505H104.863V22.203H110.369V16.7505Z" fill="#2843F0"/>
<path d="M110.369 11.2983H104.863V16.7509H110.369V11.2983Z" fill="#2843F0"/>
<path d="M104.866 65.8237H99.3601V71.2764H104.866V65.8237Z" fill="#121E6B"/>
<path d="M104.866 60.3711H99.3601V65.8236H104.866V60.3711Z" fill="#121E6B"/>
<path d="M104.866 54.9185H99.3601V60.371H104.866V54.9185Z" fill="#17278C"/>
<path d="M104.866 49.4658H99.3601V54.9184H104.866V49.4658Z" fill="#2843F0"/>
<path d="M104.866 44.0137H99.3601V49.4662H104.866V44.0137Z" fill="#2843F0"/>
<path d="M104.866 38.5605H99.3601V44.0131H104.866V38.5605Z" fill="#2843F0"/>
<path d="M104.866 33.1084H99.3601V38.5609H104.866V33.1084Z" fill="#2640E6"/>
<path d="M104.866 27.6558H99.3601V33.1083H104.866V27.6558Z" fill="#334FFF"/>
<path d="M104.866 22.2031H99.3601V27.6557H104.866V22.2031Z" fill="#334FFF"/>
<path d="M104.866 16.7505H99.3601V22.203H104.866V16.7505Z" fill="#2843F0"/>
<path d="M104.866 11.2983H99.3601V16.7509H104.866V11.2983Z" fill="#2843F0"/>
<path d="M104.866 5.84521L99.3601 5.84521V11.2978H104.866V5.84521Z" fill="#2843F0"/>
<path d="M99.3597 71.2764H93.8542V76.7289H99.3597V71.2764Z" fill="#121E6B"/>
<path d="M99.3597 65.8237H93.8542V71.2764H99.3597V65.8237Z" fill="#17278C"/>
<path d="M99.3597 60.3711H93.8542V65.8236H99.3597V60.3711Z" fill="#1A2B9C"/>
<path d="M99.3597 54.9185H93.8542V60.371H99.3597V54.9185Z" fill="#2640E6"/>
<path d="M99.3597 49.4658H93.8542V54.9184H99.3597V49.4658Z" fill="#2843F0"/>
<path d="M99.3597 44.0137H93.8542V49.4662H99.3597V44.0137Z" fill="#2843F0"/>
<path d="M99.3597 38.5605H93.8542V44.0131H99.3597V38.5605Z" fill="#2843F0"/>
<path d="M99.3597 33.1084H93.8542V38.5609H99.3597V33.1084Z" fill="#2640E6"/>
<path d="M99.3597 27.6558H93.8542V33.1083H99.3597V27.6558Z" fill="#334FFF"/>
<path d="M99.3597 22.2031H93.8542V27.6557H99.3597V22.2031Z" fill="#334FFF"/>
<path d="M99.3597 16.7505H93.8542V22.203H99.3597V16.7505Z" fill="#2843F0"/>
<path d="M99.3597 11.2983H93.8542V16.7509H99.3597V11.2983Z" fill="#2843F0"/>
<path d="M99.3597 5.84521L93.8542 5.84521V11.2978H99.3597V5.84521Z" fill="#2843F0"/>
<path d="M99.3597 0.393066L93.8542 0.393066V5.84562L99.3597 5.84562V0.393066Z" fill="#556BFF"/>
<path d="M93.8541 71.2764H88.3486V76.7289H93.8541V71.2764Z" fill="#121E6B"/>
<path d="M93.8541 65.8237H88.3486V71.2764H93.8541V65.8237Z" fill="#121E6B"/>
<path d="M93.8541 60.3711H88.3486V65.8236H93.8541V60.3711Z" fill="#17278C"/>
<path d="M93.8541 54.9185H88.3486V60.371H93.8541V54.9185Z" fill="#334FFF"/>
<path d="M93.8541 49.4658H88.3486V54.9184H93.8541V49.4658Z" fill="#2843F0"/>
<path d="M93.8541 44.0137H88.3486V49.4662H93.8541V44.0137Z" fill="#2843F0"/>
<path d="M93.8541 38.5605H88.3486V44.0131H93.8541V38.5605Z" fill="#2843F0"/>
<path d="M93.8541 33.1084H88.3486V38.5609H93.8541V33.1084Z" fill="#2640E6"/>
<path d="M93.8541 27.6558H88.3486V33.1083H93.8541V27.6558Z" fill="#334FFF"/>
<path d="M93.8541 22.2031H88.3486V27.6557H93.8541V22.2031Z" fill="#334FFF"/>
<path d="M93.8541 16.7505H88.3486V22.203H93.8541V16.7505Z" fill="#2843F0"/>
<path d="M93.8541 11.2983H88.3486V16.7509H93.8541V11.2983Z" fill="#2843F0"/>
<path d="M93.8541 5.84521L88.3486 5.84521V11.2978H93.8541V5.84521Z" fill="#2843F0"/>
<path d="M93.8541 0.393066L88.3486 0.393066V5.84562L93.8541 5.84562V0.393066Z" fill="#556BFF"/>
<path d="M88.3485 71.2764H82.843V76.7289H88.3485V71.2764Z" fill="#121E6B"/>
<path d="M88.3485 65.8237H82.843V71.2764H88.3485V65.8237Z" fill="#17278C"/>
<path d="M88.3485 60.3711H82.843V65.8236H88.3485V60.3711Z" fill="#1A2B9C"/>
<path d="M88.3485 54.9185H82.843V60.371H88.3485V54.9185Z" fill="#2640E6"/>
<path d="M88.3485 49.4658H82.843V54.9184H88.3485V49.4658Z" fill="#2843F0"/>
<path d="M88.3485 44.0137H82.843V49.4662H88.3485V44.0137Z" fill="#2843F0"/>
<path d="M88.3485 38.5605H82.843V44.0131H88.3485V38.5605Z" fill="#2843F0"/>
<path d="M88.3485 33.1084H82.843V38.5609H88.3485V33.1084Z" fill="#2640E6"/>
<path d="M88.3485 27.6558H82.843V33.1083H88.3485V27.6558Z" fill="#334FFF"/>
<path d="M88.3485 22.2031H82.843V27.6557H88.3485V22.2031Z" fill="#334FFF"/>
<path d="M88.3485 16.7505H82.843V22.203H88.3485V16.7505Z" fill="#2843F0"/>
<path d="M88.3485 11.2983H82.843V16.7509H88.3485V11.2983Z" fill="#2843F0"/>
<path d="M88.3485 5.84521L82.843 5.84521V11.2978H88.3485V5.84521Z" fill="#2843F0"/>
<path d="M88.3485 0.393066L82.843 0.393066V5.84562L88.3485 5.84562V0.393066Z" fill="#556BFF"/>
<path d="M82.8426 71.2764H77.3372V76.7289H82.8426V71.2764Z" fill="#121E6B"/>
<path d="M82.8426 65.8237H77.3372V71.2764H82.8426V65.8237Z" fill="#121E6B"/>
<path d="M82.8426 60.3711H77.3372V65.8236H82.8426V60.3711Z" fill="#17278C"/>
<path d="M82.8426 54.9185H77.3372V60.371H82.8426V54.9185Z" fill="#334FFF"/>
<path d="M82.8426 49.4658H77.3372V54.9184H82.8426V49.4658Z" fill="#2843F0"/>
<path d="M82.8426 44.0137H77.3372V49.4662H82.8426V44.0137Z" fill="#2843F0"/>
<path d="M82.8426 38.5605H77.3372V44.0131H82.8426V38.5605Z" fill="#2843F0"/>
<path d="M82.8426 33.1084H77.3372V38.5609H82.8426V33.1084Z" fill="#2640E6"/>
<path d="M82.8426 27.6558H77.3372V33.1083H82.8426V27.6558Z" fill="#334FFF"/>
<path d="M82.8426 22.2031H77.3372V27.6557H82.8426V22.2031Z" fill="#334FFF"/>
<path d="M82.8426 16.7505H77.3372V22.203H82.8426V16.7505Z" fill="#2843F0"/>
<path d="M82.8426 11.2983H77.3372V16.7509H82.8426V11.2983Z" fill="#2843F0"/>
<path d="M82.8426 5.84521L77.3372 5.84521V11.2978H82.8426V5.84521Z" fill="#2843F0"/>
<path d="M82.8426 0.393066L77.3372 0.393066V5.84562L82.8426 5.84562V0.393066Z" fill="#556BFF"/>
<path d="M77.337 71.2764H71.8315V76.7289H77.337V71.2764Z" fill="#121E6B"/>
<path d="M77.337 65.8237H71.8315V71.2764H77.337V65.8237Z" fill="#17278C"/>
<path d="M77.337 60.3711H71.8315V65.8236H77.337V60.3711Z" fill="#1A2B9C"/>
<path d="M77.337 54.9185H71.8315V60.371H77.337V54.9185Z" fill="#334FFF"/>
<path d="M77.337 49.4658H71.8315V54.9184H77.337V49.4658Z" fill="#2843F0"/>
<path d="M77.337 44.0137H71.8315V49.4662H77.337V44.0137Z" fill="#2843F0"/>
<path d="M77.337 38.5605H71.8315V44.0131H77.337V38.5605Z" fill="#2843F0"/>
<path d="M77.337 33.1084H71.8315V38.5609H77.337V33.1084Z" fill="#2640E6"/>
<path d="M77.337 27.6558H71.8315V33.1083H77.337V27.6558Z" fill="#334FFF"/>
<path d="M77.337 22.2031H71.8315V27.6557H77.337V22.2031Z" fill="#334FFF"/>
<path d="M77.337 16.7505H71.8315V22.203H77.337V16.7505Z" fill="#2843F0"/>
<path d="M77.337 11.2983H71.8315V16.7509H77.337V11.2983Z" fill="#2843F0"/>
<path d="M77.337 5.84521L71.8315 5.84521V11.2978H77.337V5.84521Z" fill="#2843F0"/>
<path d="M77.337 0.393066L71.8315 0.393066V5.84562L77.337 5.84562V0.393066Z" fill="#556BFF"/>
<path d="M71.8314 71.2764H66.3259V76.7289H71.8314V71.2764Z" fill="#121E6B"/>
<path d="M71.8314 65.8237H66.3259V71.2764H71.8314V65.8237Z" fill="#121E6B"/>
<path d="M71.8314 60.3711H66.3259V65.8236H71.8314V60.3711Z" fill="#17278C"/>
<path d="M71.8314 54.9185H66.3259V60.371H71.8314V54.9185Z" fill="#2640E6"/>
<path d="M71.8314 49.4658H66.3259V54.9184H71.8314V49.4658Z" fill="#2843F0"/>
<path d="M71.8314 44.0137H66.3259V49.4662H71.8314V44.0137Z" fill="#2843F0"/>
<path d="M71.8314 38.5605H66.3259V44.0131H71.8314V38.5605Z" fill="#2843F0"/>
<path d="M71.8314 33.1084H66.3259V38.5609H71.8314V33.1084Z" fill="#1D2FAB"/>
<path d="M71.8314 27.6558H66.3259V33.1083H71.8314V27.6558Z" fill="#CDDEFF"/>
<path d="M71.8314 22.2031H66.3259V27.6557H71.8314V22.2031Z" fill="#334FFF"/>
<path d="M71.8314 16.7505H66.3259V22.203H71.8314V16.7505Z" fill="#2843F0"/>
<path d="M71.8314 11.2983H66.3259V16.7509H71.8314V11.2983Z" fill="#2843F0"/>
<path d="M71.8314 5.84521L66.3259 5.84521V11.2978H71.8314V5.84521Z" fill="#2843F0"/>
<path d="M71.8314 0.393066L66.3259 0.393066V5.84562L71.8314 5.84562V0.393066Z" fill="#556BFF"/>
<path d="M66.3256 71.2764H60.8201V76.7289H66.3256V71.2764Z" fill="#121E6B"/>
<path d="M66.3256 65.8237H60.8201V71.2764H66.3256V65.8237Z" fill="#17278C"/>
<path d="M66.3256 60.3711H60.8201V65.8236H66.3256V60.3711Z" fill="#1A2B9C"/>
<path d="M66.3256 54.9185H60.8201V60.371H66.3256V54.9185Z" fill="#334FFF"/>
<path d="M66.3256 49.4658H60.8201V54.9184H66.3256V49.4658Z" fill="#2843F0"/>
<path d="M66.3256 44.0137H60.8201V49.4662H66.3256V44.0137Z" fill="#2843F0"/>
<path d="M66.3256 38.5605H60.8201V44.0131H66.3256V38.5605Z" fill="#2239CC"/>
<path d="M66.3256 33.1084H60.8201V38.5609H66.3256V33.1084Z" fill="#CDDEFF"/>
<path d="M66.3256 27.6558H60.8201V33.1083H66.3256V27.6558Z" fill="#CDDEFF"/>
<path d="M66.3256 22.2031H60.8201V27.6557H66.3256V22.2031Z" fill="white"/>
<path d="M66.3256 16.7505H60.8201V22.203H66.3256V16.7505Z" fill="#2843F0"/>
<path d="M66.3514 11.2983H60.8459V16.7509H66.3514V11.2983Z" fill="#2843F0"/>
<path d="M66.3514 5.84521L60.8459 5.84521V11.2978H66.3514V5.84521Z" fill="#2843F0"/>
<path d="M66.3514 0.393066L60.8459 0.393066V5.84562L66.3514 5.84562V0.393066Z" fill="#556BFF"/>
<path d="M60.8458 11.2983H55.3403V16.7509H60.8458V11.2983Z" fill="#2843F0"/>
<path d="M60.8458 5.84521L55.3403 5.84521V11.2978H60.8458V5.84521Z" fill="#2843F0"/>
<path d="M60.8458 0.393066L55.3403 0.393066V5.84562L60.8458 5.84562V0.393066Z" fill="#556BFF"/>
<path d="M55.3236 16.7569L55.3169 22.2095L60.8224 22.2162L60.8291 16.7636L55.3236 16.7569Z" fill="white"/>
<path d="M60.8199 71.2764H55.3145V76.7289H60.8199V71.2764Z" fill="#121E6B"/>
<path d="M60.8199 65.8237H55.3145V71.2764H60.8199V65.8237Z" fill="#121E6B"/>
<path d="M60.8199 60.3711H55.3145V65.8236H60.8199V60.3711Z" fill="#17278C"/>
<path d="M60.8199 54.9185H55.3145V60.371H60.8199V54.9185Z" fill="#334FFF"/>
<path d="M60.8199 49.4658H55.3145V54.9184H60.8199V49.4658Z" fill="#2843F0"/>
<path d="M60.8199 44.0137H55.3145V49.4662H60.8199V44.0137Z" fill="#2239CC"/>
<path d="M60.8199 38.5605H55.3145V44.0131H60.8199V38.5605Z" fill="#CDDEFF"/>
<path d="M60.8199 33.1084H55.3145V38.5609H60.8199V33.1084Z" fill="#CDDEFF"/>
<path d="M60.8199 27.6558H55.3145V33.1083H60.8199V27.6558Z" fill="#CDDEFF"/>
<path d="M60.8199 22.2031H55.3145V27.6557H60.8199V22.2031Z" fill="white"/>
<path d="M55.3142 11.2983H49.8087V16.7509H55.3142V11.2983Z" fill="#CDDEFF"/>
<path d="M55.3142 5.84521L49.8087 5.84521V11.2978H55.3142V5.84521Z" fill="#2843F0"/>
<path d="M55.3142 0.393066L49.8087 0.393066V5.84562L55.3142 5.84562V0.393066Z" fill="#556BFF"/>
<path d="M55.3142 16.7505H49.8087V22.203H55.3142V16.7505Z" fill="white"/>
<path d="M55.3142 71.2764H49.8087V76.7289H55.3142V71.2764Z" fill="#121E6B"/>
<path d="M55.3142 65.8237H49.8087V71.2764H55.3142V65.8237Z" fill="#17278C"/>
<path d="M55.3142 60.3711H49.8087V65.8236H55.3142V60.3711Z" fill="#1A2B9C"/>
<path d="M55.3142 54.9185H49.8087V60.371H55.3142V54.9185Z" fill="#334FFF"/>
<path d="M55.3142 49.4658H49.8087V54.9184H55.3142V49.4658Z" fill="#1D2FAB"/>
<path d="M55.3142 44.0137H49.8087V49.4662H55.3142V44.0137Z" fill="#CDDEFF"/>
<path d="M55.3142 38.5605H49.8087V44.0131H55.3142V38.5605Z" fill="#CDDEFF"/>
<path d="M55.3142 33.1084H49.8087V38.5609H55.3142V33.1084Z" fill="#CDDEFF"/>
<path d="M55.3142 27.6558H49.8087V33.1083H55.3142V27.6558Z" fill="#CDDEFF"/>
<path d="M55.3142 22.2031H49.8087V27.6557H55.3142V22.2031Z" fill="white"/>
<path d="M49.8085 71.2764H44.303V76.7289H49.8085V71.2764Z" fill="#121E6B"/>
<path d="M49.8085 65.8237H44.303V71.2764H49.8085V65.8237Z" fill="#121E6B"/>
<path d="M49.8085 60.3711H44.303V65.8236H49.8085V60.3711Z" fill="#17278C"/>
<path d="M49.8085 54.9185H44.303V60.371H49.8085V54.9185Z" fill="#2640E6"/>
<path d="M49.8085 49.4658H44.303V54.9184H49.8085V49.4658Z" fill="#2843F0"/>
<path d="M49.8085 44.0137H44.303V49.4662H49.8085V44.0137Z" fill="#2843F0"/>
<path d="M49.8085 38.5605H44.303V44.0131H49.8085V38.5605Z" fill="#2843F0"/>
<path d="M49.8085 33.1084H44.303V38.5609H49.8085V33.1084Z" fill="#2640E6"/>
<path d="M49.8085 27.6558H44.303V33.1083H49.8085V27.6558Z" fill="#334FFF"/>
<path d="M49.8085 22.2031H44.303V27.6557H49.8085V22.2031Z" fill="#334FFF"/>
<path d="M49.8085 16.7505H44.303V22.203H49.8085V16.7505Z" fill="#2843F0"/>
<path d="M49.8085 11.2983H44.303V16.7509H49.8085V11.2983Z" fill="#2843F0"/>
<path d="M49.8085 5.84521L44.303 5.84521V11.2978H49.8085V5.84521Z" fill="#2843F0"/>
<path d="M49.8085 0.393066L44.303 0.393066V5.84562L49.8085 5.84562V0.393066Z" fill="#556BFF"/>
<path d="M44.3029 71.2764H38.7974V76.7289H44.3029V71.2764Z" fill="#121E6B"/>
<path d="M44.3029 65.8237H38.7974V71.2764H44.3029V65.8237Z" fill="#17278C"/>
<path d="M44.3029 60.3711H38.7974V65.8236H44.3029V60.3711Z" fill="#1A2B9C"/>
<path d="M44.3029 54.9185H38.7974V60.371H44.3029V54.9185Z" fill="#334FFF"/>
<path d="M44.3029 49.4658H38.7974V54.9184H44.3029V49.4658Z" fill="#2843F0"/>
<path d="M44.3029 44.0137H38.7974V49.4662H44.3029V44.0137Z" fill="#2843F0"/>
<path d="M44.3029 38.5605H38.7974V44.0131H44.3029V38.5605Z" fill="#2843F0"/>
<path d="M44.3029 33.1084H38.7974V38.5609H44.3029V33.1084Z" fill="#2640E6"/>
<path d="M44.3029 27.6558H38.7974V33.1083H44.3029V27.6558Z" fill="#334FFF"/>
<path d="M44.3029 22.2031H38.7974V27.6557H44.3029V22.2031Z" fill="#334FFF"/>
<path d="M44.3029 16.7505H38.7974V22.203H44.3029V16.7505Z" fill="#2843F0"/>
<path d="M44.3029 11.2983H38.7974V16.7509H44.3029V11.2983Z" fill="#2843F0"/>
<path d="M44.3029 5.84521L38.7974 5.84521V11.2978H44.3029V5.84521Z" fill="#2843F0"/>
<path d="M44.3029 0.393066L38.7974 0.393066V5.84562L44.3029 5.84562V0.393066Z" fill="#556BFF"/>
<path d="M38.7997 71.2764H33.2942V76.7289H38.7997V71.2764Z" fill="#121E6B"/>
<path d="M38.7997 65.8237H33.2942V71.2764H38.7997V65.8237Z" fill="#121E6B"/>
<path d="M38.7997 60.3711H33.2942V65.8236H38.7997V60.3711Z" fill="#17278C"/>
<path d="M38.7997 54.9185H33.2942V60.371H38.7997V54.9185Z" fill="#334FFF"/>
<path d="M38.7997 49.4658H33.2942V54.9184H38.7997V49.4658Z" fill="#2843F0"/>
<path d="M38.7997 44.0137H33.2942V49.4662H38.7997V44.0137Z" fill="#2843F0"/>
<path d="M38.7997 38.5605H33.2942V44.0131H38.7997V38.5605Z" fill="#2843F0"/>
<path d="M38.7997 33.1084H33.2942V38.5609H38.7997V33.1084Z" fill="#2640E6"/>
<path d="M38.7997 27.6558H33.2942V33.1083H38.7997V27.6558Z" fill="#334FFF"/>
<path d="M38.7997 22.2031H33.2942V27.6557H38.7997V22.2031Z" fill="#334FFF"/>
<path d="M38.7997 16.7505H33.2942V22.203H38.7997V16.7505Z" fill="#2843F0"/>
<path d="M38.7997 11.2983H33.2942V16.7509H38.7997V11.2983Z" fill="#2843F0"/>
<path d="M38.7997 5.84521L33.2942 5.84521V11.2978H38.7997V5.84521Z" fill="#2843F0"/>
<path d="M38.7997 0.393066L33.2942 0.393066V5.84562L38.7997 5.84562V0.393066Z" fill="#556BFF"/>
<path d="M33.294 71.2764H27.7885V76.7289H33.294V71.2764Z" fill="#121E6B"/>
<path d="M33.294 65.8237H27.7885V71.2764H33.294V65.8237Z" fill="#17278C"/>
<path d="M33.294 60.3711H27.7885V65.8236H33.294V60.3711Z" fill="#1A2B9C"/>
<path d="M33.294 54.9185H27.7885V60.371H33.294V54.9185Z" fill="#2843F0"/>
<path d="M33.294 49.4658H27.7885V54.9184H33.294V49.4658Z" fill="#2843F0"/>
<path d="M33.294 44.0137H27.7885V49.4662H33.294V44.0137Z" fill="#2843F0"/>
<path d="M33.294 38.5605H27.7885V44.0131H33.294V38.5605Z" fill="#2843F0"/>
<path d="M33.294 33.1084H27.7885V38.5609H33.294V33.1084Z" fill="#2640E6"/>
<path d="M33.294 27.6558H27.7885V33.1083H33.294V27.6558Z" fill="#334FFF"/>
<path d="M33.294 22.2031H27.7885V27.6557H33.294V22.2031Z" fill="#334FFF"/>
<path d="M33.294 16.7505H27.7885V22.203H33.294V16.7505Z" fill="#2843F0"/>
<path d="M33.294 11.2983H27.7885V16.7509H33.294V11.2983Z" fill="#2843F0"/>
<path d="M33.294 5.84521L27.7885 5.84521V11.2978H33.294V5.84521Z" fill="#2843F0"/>
<path d="M33.294 0.393066L27.7885 0.393066V5.84562L33.294 5.84562V0.393066Z" fill="#556BFF"/>
<path d="M27.7883 71.2764H22.2828V76.7289H27.7883V71.2764Z" fill="#121E6B"/>
<path d="M27.7883 65.8237H22.2828V71.2764H27.7883V65.8237Z" fill="#121E6B"/>
<path d="M27.7883 60.3711H22.2828V65.8236H27.7883V60.3711Z" fill="#17278C"/>
<path d="M27.7883 54.9185H22.2828V60.371H27.7883V54.9185Z" fill="#2640E6"/>
<path d="M27.7883 49.4658H22.2828V54.9184H27.7883V49.4658Z" fill="#2843F0"/>
<path d="M27.7883 44.0137H22.2828V49.4662H27.7883V44.0137Z" fill="#2843F0"/>
<path d="M27.7883 38.5605H22.2828V44.0131H27.7883V38.5605Z" fill="#2843F0"/>
<path d="M27.7883 33.1084H22.2828V38.5609H27.7883V33.1084Z" fill="#2640E6"/>
<path d="M27.7883 27.6558H22.2828V33.1083H27.7883V27.6558Z" fill="#334FFF"/>
<path d="M27.7883 22.2031H22.2828V27.6557H27.7883V22.2031Z" fill="#334FFF"/>
<path d="M27.7883 16.7505H22.2828V22.203H27.7883V16.7505Z" fill="#2843F0"/>
<path d="M27.7883 11.2983H22.2828V16.7509H27.7883V11.2983Z" fill="#2843F0"/>
<path d="M27.7883 5.84521L22.2828 5.84521V11.2978H27.7883V5.84521Z" fill="#2843F0"/>
<path d="M27.7883 0.393066L22.2828 0.393066V5.84562L27.7883 5.84562V0.393066Z" fill="#556BFF"/>
<path d="M22.3085 65.8237H16.803V71.2764H22.3085V65.8237Z" fill="#121E6B"/>
<path d="M22.3085 60.3711H16.803V65.8236H22.3085V60.3711Z" fill="#1A2B9C"/>
<path d="M22.3085 54.9185H16.803V60.371H22.3085V54.9185Z" fill="#17278C"/>
<path d="M22.3085 49.4658H16.803V54.9184H22.3085V49.4658Z" fill="#2843F0"/>
<path d="M22.3085 44.0137H16.803V49.4662H22.3085V44.0137Z" fill="#2843F0"/>
<path d="M22.3085 38.5605H16.803V44.0131H22.3085V38.5605Z" fill="#2843F0"/>
<path d="M22.3085 33.1084H16.803V38.5609H22.3085V33.1084Z" fill="#2640E6"/>
<path d="M22.3085 27.6558H16.803V33.1083H22.3085V27.6558Z" fill="#334FFF"/>
<path d="M22.3085 22.2031H16.803V27.6557H22.3085V22.2031Z" fill="#334FFF"/>
<path d="M22.3085 16.7505H16.803V22.203H22.3085V16.7505Z" fill="#2843F0"/>
<path d="M22.3085 11.2983H16.803V16.7509H22.3085V11.2983Z" fill="#2843F0"/>
<path d="M22.3085 5.84521L16.803 5.84521V11.2978H22.3085V5.84521Z" fill="#556BFF"/>
<path d="M16.8027 60.3711H11.2972V65.8236H16.8027V60.3711Z" fill="#121E6B"/>
<path d="M16.8027 54.9185H11.2972V60.371H16.8027V54.9185Z" fill="#17278C"/>
<path d="M16.8027 49.4658H11.2972V54.9184H16.8027V49.4658Z" fill="#17278C"/>
<path d="M16.8027 44.0137H11.2972V49.4662H16.8027V44.0137Z" fill="#2843F0"/>
<path d="M16.8027 38.5605H11.2972V44.0131H16.8027V38.5605Z" fill="#2843F0"/>
<path d="M16.8027 33.1084H11.2972V38.5609H16.8027V33.1084Z" fill="#2640E6"/>
<path d="M16.8027 27.6558H11.2972V33.1083H16.8027V27.6558Z" fill="#334FFF"/>
<path d="M16.8027 22.2031H11.2972V27.6557H16.8027V22.2031Z" fill="#334FFF"/>
<path d="M16.8027 16.7505H11.2972V22.203H16.8027V16.7505Z" fill="#2843F0"/>
<path d="M16.8027 11.2983H11.2972V16.7509H16.8027V11.2983Z" fill="#556BFF"/>
<path d="M11.2712 54.9185H5.76575L5.76575 60.371H11.2712V54.9185Z" fill="#121E6B"/>
<path d="M11.2712 49.4658H5.76575L5.76575 54.9184H11.2712V49.4658Z" fill="#17278C"/>
<path d="M11.2712 44.0137H5.76575L5.76575 49.4662H11.2712V44.0137Z" fill="#17278C"/>
<path d="M11.2712 38.5605H5.76575L5.76575 44.0131H11.2712V38.5605Z" fill="#2843F0"/>
<path d="M11.2712 33.1084H5.76575L5.76575 38.5609H11.2712V33.1084Z" fill="#2640E6"/>
<path d="M11.2712 27.6558H5.76575L5.76575 33.1083H11.2712V27.6558Z" fill="#334FFF"/>
<path d="M11.2712 22.2031H5.76575L5.76575 27.6557H11.2712V22.2031Z" fill="#334FFF"/>
<path d="M11.2712 16.7505H5.76575L5.76575 22.203H11.2712V16.7505Z" fill="#556BFF"/>
<path d="M5.7655 49.4663H0.26001L0.26001 54.9189H5.7655L5.7655 49.4663Z" fill="#121E6B"/>
<path d="M5.7655 44.0137H0.26001L0.26001 49.4662H5.7655L5.7655 44.0137Z" fill="#17278C"/>
<path d="M5.7655 38.5605H0.26001L0.26001 44.0131H5.7655L5.7655 38.5605Z" fill="#17278C"/>
<path d="M5.7655 33.1084H0.26001L0.26001 38.5609H5.7655L5.7655 33.1084Z" fill="#2640E6"/>
<path d="M5.7655 27.6558H0.26001L0.26001 33.1083H5.7655L5.7655 27.6558Z" fill="#334FFF"/>
<path d="M5.7655 22.2031H0.26001L0.26001 27.6557H5.7655L5.7655 22.2031Z" fill="#556BFF"/>
</svg>
