<svg width="228" height="281" viewBox="0 0 228 281" fill="none" xmlns="http://www.w3.org/2000/svg">
<g clip-path="url(#clip0_271_3263)">
<path fill-rule="evenodd" clip-rule="evenodd" d="M100 94V87H91V94H100Z" fill="#C41D19"/>
<path fill-rule="evenodd" clip-rule="evenodd" d="M122.769 5.85417V0H93.5383V5.85417H111.077H122.769Z" fill="black"/>
<path fill-rule="evenodd" clip-rule="evenodd" d="M134.461 11.7084V5.85419H128.615H122.769V11.7084H128.615H134.461Z" fill="black"/>
<path fill-rule="evenodd" clip-rule="evenodd" d="M122.769 5.85419H111.077H93.5383V11.7084V17.5625V23.4167H99.3845H105.231H111.077V29.2709H116.923H122.769H128.615H134.461V11.7084H128.615H122.769V5.85419Z" fill="#FFD776"/>
<path fill-rule="evenodd" clip-rule="evenodd" d="M93.5386 11.7084V5.85419H87.6924V11.7084H93.5386Z" fill="black"/>
<path fill-rule="evenodd" clip-rule="evenodd" d="M134.462 11.7083V29.2708H146.154H157.846V23.4166H152H146.154H140.308V17.5625V11.7083H134.462Z" fill="black"/>
<path fill-rule="evenodd" clip-rule="evenodd" d="M93.5383 11.7083H87.6922V17.5625V23.4166H81.846V35.125H105.231H122.769H128.615V29.2708H122.769H116.923H111.077V23.4166H105.231H99.3845H93.5383V17.5625V11.7083Z" fill="#DFB54D"/>
<path fill-rule="evenodd" clip-rule="evenodd" d="M87.6924 11.7083H81.8462V17.5625V23.4166H87.6924V17.5625V11.7083Z" fill="black"/>
<path fill-rule="evenodd" clip-rule="evenodd" d="M81.8462 23.4167H76.0001V29.2709V35.125V40.9792V46.8334V52.6875V58.5417V64.3959H81.8462V46.8334V40.9792H87.6924H93.5385H99.3847H105.231V46.8334H111.077V40.9792H116.923H122.769H128.615H134.462V46.8334V64.3959V70.25H140.308V64.3959V58.5417V52.6875V46.8334V40.9792H146.154H152H157.846H163.692V35.125V29.2709H157.846V35.125H152H146.154H140.308H134.462V29.2709H128.615V35.125H122.769H105.231H81.8462V23.4167Z" fill="black"/>
<path fill-rule="evenodd" clip-rule="evenodd" d="M157.846 29.2708H146.154V35.125H152H157.846V29.2708Z" fill="#E7D6D3"/>
<path fill-rule="evenodd" clip-rule="evenodd" d="M146.154 35.125V29.2708H134.462V35.125H140.308H146.154Z" fill="#C2B4B1"/>
<path fill-rule="evenodd" clip-rule="evenodd" d="M134.461 46.8334V40.9792H128.615H122.769H116.923H111.077V46.8334H105.231V52.6875V58.5417H99.3845V76.1042H105.231V81.9584H111.077V76.1042H116.923H122.769V70.25H116.923V64.3959H111.077V58.5417V52.6875H116.923V46.8334H122.769H128.615H134.461Z" fill="#C2915F"/>
<path fill-rule="evenodd" clip-rule="evenodd" d="M105.231 46.8334V40.9792H99.3848H93.5386H87.6925H81.8463V46.8334V64.3959H87.6925V58.5417V52.6875H93.5386V46.8334H99.3848H105.231Z" fill="#6F2F17"/>
<path fill-rule="evenodd" clip-rule="evenodd" d="M134.461 46.8333H128.615V52.6875H122.769V46.8333H116.923V52.6875H111.077V58.5416V64.3958H116.923V70.25H122.769V64.3958H128.615H134.461V46.8333Z" fill="#FFD5AB"/>
<path fill-rule="evenodd" clip-rule="evenodd" d="M128.615 46.8333H122.769V52.6875H128.615V46.8333Z" fill="black"/>
<path fill-rule="evenodd" clip-rule="evenodd" d="M105.231 46.8333H99.3848V58.5416H105.231V52.6875V46.8333Z" fill="black"/>
<path fill-rule="evenodd" clip-rule="evenodd" d="M99.3848 46.8333H93.5386V52.6875H87.6925V58.5416V64.3958H93.5386V58.5416H99.3848V46.8333Z" fill="#994E32"/>
<path fill-rule="evenodd" clip-rule="evenodd" d="M99.3848 58.5416H93.5386V64.3958V76.1041H99.3848V58.5416Z" fill="black"/>
<path fill-rule="evenodd" clip-rule="evenodd" d="M134.461 70.25V64.3959H128.615H122.769V70.25V76.1042H128.615V70.25H134.461Z" fill="#FFD5AB"/>
<path fill-rule="evenodd" clip-rule="evenodd" d="M93.5386 64.3959H87.6924V76.1042H93.5386V64.3959Z" fill="#6F2F17"/>
<path fill-rule="evenodd" clip-rule="evenodd" d="M87.6924 64.3959H81.8462V70.25V76.1042H87.6924V64.3959Z" fill="black"/>
<path fill-rule="evenodd" clip-rule="evenodd" d="M134.461 70.25H128.615V76.1042H134.461V70.25Z" fill="black"/>
<path fill-rule="evenodd" clip-rule="evenodd" d="M128.615 76.1041H122.769H116.923H111.077V81.9583H116.923H122.769H128.615V76.1041Z" fill="black"/>
<path fill-rule="evenodd" clip-rule="evenodd" d="M99.3848 76.1041V81.9583H93.5387V76.1041H87.6925V81.9583H81.8464V87.8125H87.6925H93.5387H99.3848H105.231H111.077V81.9583H105.231V76.1041H99.3848Z" fill="black"/>
<path fill-rule="evenodd" clip-rule="evenodd" d="M99.3848 76.1041H93.5386V81.9583H99.3848V76.1041Z" fill="#6F2F17"/>
<path fill-rule="evenodd" clip-rule="evenodd" d="M228 87.8125H222.154H210.462H187.077H169.538H152H146.154V93.6667V99.5208V105.375V111.229V117.083V122.938H140.308V128.792H157.846V122.938H152V117.083V111.229V105.375V99.5208V93.6667H157.846H163.692H181.231H192.923H216.308H222.154V146.354V152.208H204.615H187.077H163.692H157.846H152V146.354V140.5H134.462V146.354H140.308H146.154V152.208V158.062H152H169.538H187.077H210.462H222.154H228V140.5V128.792V105.375V87.8125Z" fill="black"/>
<path fill-rule="evenodd" clip-rule="evenodd" d="M116.923 93.6667V87.8125H111.077V93.6667H116.923Z" fill="black"/>
<path fill-rule="evenodd" clip-rule="evenodd" d="M111.077 93.6667V87.8125H105.231H99.3848V93.6667H93.5387V99.5208H99.3848H105.231V93.6667H111.077Z" fill="#C41D19"/>
<path fill-rule="evenodd" clip-rule="evenodd" d="M93.5386 93.6667V87.8125H87.6924H81.8463V93.6667H76.0001V99.5208H70.154V105.375H64.3078V117.083H70.154V111.229H76.0001V105.375H81.8463V99.5208H87.6924V93.6667H93.5386Z" fill="#C41D19"/>
<path fill-rule="evenodd" clip-rule="evenodd" d="M81.8462 87.8125H76V93.6667H81.8462V87.8125Z" fill="black"/>
<path fill-rule="evenodd" clip-rule="evenodd" d="M163.692 93.6666V117.083H169.538V111.229H175.385V105.375H181.231H187.077V111.229V117.083H192.923H198.769H204.615V122.937V128.792V134.646H198.769V140.5V146.354H204.615H210.462H222.154V93.6666H216.308H192.923H181.231H163.692Z" fill="#FFD776"/>
<path fill-rule="evenodd" clip-rule="evenodd" d="M163.692 93.6666H157.846H152V99.5208V105.375V111.229V117.083V122.937H157.846V117.083H163.692V93.6666Z" fill="#DFB54D"/>
<path fill-rule="evenodd" clip-rule="evenodd" d="M116.923 93.6666V99.5208V105.375H122.769V99.5208V93.6666H116.923Z" fill="black"/>
<path fill-rule="evenodd" clip-rule="evenodd" d="M116.923 99.5208V93.6666H111.077V99.5208H116.923Z" fill="#C41D19"/>
<path fill-rule="evenodd" clip-rule="evenodd" d="M111.077 99.5208V93.6666H105.231V99.5208H111.077Z" fill="#C41D19"/>
<path fill-rule="evenodd" clip-rule="evenodd" d="M93.5386 99.5208V93.6666H87.6924V99.5208H93.5386Z" fill="#C41D19"/>
<path fill-rule="evenodd" clip-rule="evenodd" d="M76 93.6666H70.1538V99.5208H76V93.6666Z" fill="black"/>
<path fill-rule="evenodd" clip-rule="evenodd" d="M116.923 99.5209H111.077V105.375H105.231V111.229V117.083H111.077V122.938H116.923V128.792H122.769H128.615V122.938H134.461V117.083H128.615V111.229H122.769V105.375H116.923V99.5209Z" fill="#FF2722"/>
<path fill-rule="evenodd" clip-rule="evenodd" d="M111.077 99.5209H105.231V105.375H111.077V99.5209Z" fill="#C41D19"/>
<path fill-rule="evenodd" clip-rule="evenodd" d="M105.231 105.375V99.5209H99.3848V105.375H105.231Z" fill="#C41D19"/>
<path fill-rule="evenodd" clip-rule="evenodd" d="M99.3848 105.375V99.5209H93.5386V105.375H99.3848Z" fill="#C41D19"/>
<path fill-rule="evenodd" clip-rule="evenodd" d="M93.5386 105.375V99.5209H87.6924V105.375H93.5386Z" fill="#C41D19"/>
<path fill-rule="evenodd" clip-rule="evenodd" d="M87.6924 105.375V99.5209H81.8462V105.375H87.6924Z" fill="#C41D19"/>
<path fill-rule="evenodd" clip-rule="evenodd" d="M70.1538 99.5209H64.3077V105.375H70.1538V99.5209Z" fill="black"/>
<path fill-rule="evenodd" clip-rule="evenodd" d="M175.384 111.229H181.231V117.083V122.938H187.077H192.923H198.769V128.792V134.646H204.615V128.792V122.938V117.083H198.769H192.923H187.077V111.229V105.375H181.231H175.384V111.229Z" fill="black"/>
<path fill-rule="evenodd" clip-rule="evenodd" d="M128.615 111.229V105.375H122.769V111.229H128.615Z" fill="black"/>
<path fill-rule="evenodd" clip-rule="evenodd" d="M105.231 105.375H99.3844V111.229H93.5383V117.083H87.6921V122.938H81.846V128.792H75.9998V134.646H70.1537V140.5H64.3075V146.354H58.4613V158.062V163.917H64.3075H70.1537H75.9998V158.062V152.208H81.846V146.354V140.5H87.6921V134.646H93.5383H99.3844H105.231V128.792H99.3844V122.938H105.231V128.792H111.077V134.646H122.769V128.792H116.923V122.938H111.077V117.083H105.231V111.229V105.375Z" fill="#C41D19"/>
<path fill-rule="evenodd" clip-rule="evenodd" d="M99.3848 105.375H93.5386V111.229H99.3848V105.375Z" fill="#C41D19"/>
<path fill-rule="evenodd" clip-rule="evenodd" d="M93.5386 111.229V105.375H87.6924V111.229H93.5386Z" fill="#C41D19"/>
<path fill-rule="evenodd" clip-rule="evenodd" d="M87.6924 111.229V105.375H81.8462V111.229H87.6924Z" fill="#C41D19"/>
<path fill-rule="evenodd" clip-rule="evenodd" d="M81.8462 111.229V105.375H76V111.229H81.8462Z" fill="#C41D19"/>
<path fill-rule="evenodd" clip-rule="evenodd" d="M64.3076 105.375H58.4615V111.229V117.083H64.3076V105.375Z" fill="black"/>
<path fill-rule="evenodd" clip-rule="evenodd" d="M175.385 111.229V122.937H181.231V117.083V111.229H175.385Z" fill="#FFD5AB"/>
<path fill-rule="evenodd" clip-rule="evenodd" d="M175.385 111.229H169.539V117.083H163.692H157.846V122.937H175.385V111.229Z" fill="black"/>
<path fill-rule="evenodd" clip-rule="evenodd" d="M134.461 117.083V111.229H128.615V117.083H134.461Z" fill="black"/>
<path fill-rule="evenodd" clip-rule="evenodd" d="M93.5386 111.229H87.6924V117.083H93.5386V111.229Z" fill="#C41D19"/>
<path fill-rule="evenodd" clip-rule="evenodd" d="M87.6924 117.083V111.229H81.8462V117.083H87.6924Z" fill="#C41D19"/>
<path fill-rule="evenodd" clip-rule="evenodd" d="M81.8462 117.083V111.229H76V117.083H81.8462Z" fill="#C41D19"/>
<path fill-rule="evenodd" clip-rule="evenodd" d="M76 117.083V111.229H70.1538V117.083H76Z" fill="#C41D19"/>
<path fill-rule="evenodd" clip-rule="evenodd" d="M140.308 122.938V117.083H134.461V122.938H140.308Z" fill="black"/>
<path fill-rule="evenodd" clip-rule="evenodd" d="M87.6924 117.083H81.8462V122.938H87.6924V117.083Z" fill="#C41D19"/>
<path fill-rule="evenodd" clip-rule="evenodd" d="M81.8462 122.938V117.083H76H70.1539V122.938H64.3077V128.792H58.4616V134.646H52.6154V140.5V152.208V146.354H58.4616V140.5H64.3077V134.646H70.1539V128.792H76V122.938H81.8462Z" fill="#C41D19"/>
<path fill-rule="evenodd" clip-rule="evenodd" d="M70.1538 117.083H64.3077V122.938H70.1538V117.083Z" fill="#C41D19"/>
<path fill-rule="evenodd" clip-rule="evenodd" d="M64.3076 123.214V117.083H58.4615V123.214H64.3076Z" fill="#C41D19"/>
<path fill-rule="evenodd" clip-rule="evenodd" d="M64.3076 128.854V123H58.4615V128.854H64.3076Z" fill="#C41D19"/>
<path fill-rule="evenodd" clip-rule="evenodd" d="M58.4619 117.083H52.6157V122.938V128.792V147H58.4619V128.792L58.4619 122.938L58.4619 117.083Z" fill="black"/>
<path fill-rule="evenodd" clip-rule="evenodd" d="M198.769 128.792V122.938H192.923H187.077H181.231V128.792H192.923H198.769Z" fill="#FFD5AB"/>
<path fill-rule="evenodd" clip-rule="evenodd" d="M181.231 128.792V122.938H175.385V128.792H181.231Z" fill="#C2915F"/>
<path fill-rule="evenodd" clip-rule="evenodd" d="M175.385 128.792V122.938H157.846V128.792H163.692H175.385Z" fill="#FFD5AB"/>
<path fill-rule="evenodd" clip-rule="evenodd" d="M140.308 128.792V122.938H134.462V128.792H128.615V134.646H134.462V140.5H152V134.646H146.154H140.308V128.792Z" fill="#C2915F"/>
<path fill-rule="evenodd" clip-rule="evenodd" d="M134.461 122.938H128.615V128.792H134.461V122.938Z" fill="black"/>
<path fill-rule="evenodd" clip-rule="evenodd" d="M105.231 128.792V122.938H99.3848V128.792H105.231Z" fill="black"/>
<path fill-rule="evenodd" clip-rule="evenodd" d="M81.8462 122.938H76V128.792H81.8462V122.938Z" fill="#C41D19"/>
<path fill-rule="evenodd" clip-rule="evenodd" d="M198.769 134.646V128.792H192.923H181.231V134.646H192.923H198.769Z" fill="#C2915F"/>
<path fill-rule="evenodd" clip-rule="evenodd" d="M181.231 134.646V128.792H175.385H163.692V134.646H181.231Z" fill="black"/>
<path fill-rule="evenodd" clip-rule="evenodd" d="M163.692 134.646V128.792H157.846V134.646H163.692Z" fill="#C2915F"/>
<path fill-rule="evenodd" clip-rule="evenodd" d="M157.846 134.646V128.792H140.308V134.646H146.154H152H157.846Z" fill="#FFD5AB"/>
<path fill-rule="evenodd" clip-rule="evenodd" d="M128.615 134.646V128.792H122.769V134.646H128.615Z" fill="black"/>
<path fill-rule="evenodd" clip-rule="evenodd" d="M111.077 134.646V128.792H105.231V134.646H111.077Z" fill="black"/>
<path fill-rule="evenodd" clip-rule="evenodd" d="M76 128.792H70.1538V134.646H76V128.792Z" fill="#C41D19"/>
<path fill-rule="evenodd" clip-rule="evenodd" d="M198.769 140.5V134.646H192.923H181.231V140.5H192.923H198.769Z" fill="black"/>
<path fill-rule="evenodd" clip-rule="evenodd" d="M181.231 140.5V134.646H163.692V140.5H157.846H152V146.354V152.208H157.846H163.692H187.077H204.615H222.154V146.354H210.462H204.615H198.769V140.5H192.923H181.231V146.354H175.385H169.538V140.5H175.385H181.231Z" fill="#DFB54D"/>
<path fill-rule="evenodd" clip-rule="evenodd" d="M163.692 134.646H157.846H152V140.5H157.846H163.692V134.646Z" fill="black"/>
<path fill-rule="evenodd" clip-rule="evenodd" d="M134.461 140.5V134.646H128.615V140.5H134.461Z" fill="black"/>
<path fill-rule="evenodd" clip-rule="evenodd" d="M122.769 134.646H111.077V140.5V158.063V163.917H105.231H99.3844H75.9998H70.1537H64.3075H58.4613V158.063V146.354H52.6152V152.208V158.063V163.917V169.771V187.333H58.4613V175.625V169.771H64.3075H70.1537H75.9998H81.846H87.6921H93.5383H99.3844H105.231H111.077V175.625H116.923V158.063V152.208V146.354V140.5H122.769V134.646Z" fill="black"/>
<path fill-rule="evenodd" clip-rule="evenodd" d="M111.077 140.5V134.646H105.231V140.5H111.077Z" fill="#C41D19"/>
<path fill-rule="evenodd" clip-rule="evenodd" d="M105.231 134.646H99.3848H93.5387H87.6925V140.5H81.8464V146.354V152.208H76.0002V158.063V163.917H99.3848H105.231H111.077V158.063V140.5H105.231V134.646Z" fill="#FF2722"/>
<path fill-rule="evenodd" clip-rule="evenodd" d="M70.1538 134.646H64.3077V140.5H70.1538V134.646Z" fill="#C41D19"/>
<path fill-rule="evenodd" clip-rule="evenodd" d="M181.231 140.5H175.385H169.539V146.354H175.385H181.231V140.5Z" fill="#FFD776"/>
<path fill-rule="evenodd" clip-rule="evenodd" d="M64.3076 140.5H58.4615V146.354H64.3076V140.5Z" fill="#C41D19"/>
<path fill-rule="evenodd" clip-rule="evenodd" d="M111.077 175.625V169.771H105.231H99.3845H93.5383H87.6922H81.846H75.9998H70.1537H64.3075H58.4614V175.625V187.333H64.3075V193.188H70.1537V199.042H75.9998V204.896H81.846V210.75V216.604H87.6922V222.458V228.313H81.846V234.167V240.021V245.875H75.9998V257.583H87.6922H93.5383H99.3845V251.729V245.875V240.021V234.167H105.231V216.604H99.3845V210.75V204.896H93.5383V199.042H87.6922H81.846V193.188H75.9998V187.333H70.1537V181.479H75.9998V187.333H81.846V193.188H87.6922H93.5383V199.042H99.3845V204.896H105.231V210.75V216.604H111.077V222.458V228.313V234.167H105.231V251.729V257.583H111.077H122.769H128.615V251.729H116.923H111.077V245.875H116.923V240.021V234.167H122.769V228.313V222.458V216.604V210.75H116.923V204.896H111.077V199.042H105.231V193.188H99.3845V187.333H93.5383V181.479V175.625H111.077Z" fill="#284354"/>
<path fill-rule="evenodd" clip-rule="evenodd" d="M116.923 175.625V181.479V187.333H122.769V181.479V175.625H116.923Z" fill="black"/>
<path fill-rule="evenodd" clip-rule="evenodd" d="M116.923 181.479V175.625H111.077V181.479H116.923Z" fill="#284354"/>
<path fill-rule="evenodd" clip-rule="evenodd" d="M111.077 175.625H93.5384V181.479V187.333H99.3845V193.187H105.231V199.042H111.077V204.896H116.923V210.75H122.769V216.604V222.458V228.312V234.167H116.923V240.021V245.875H111.077V251.729H116.923H128.615V245.875H134.461V240.021V234.167V228.312H140.308V204.896H134.461V199.042H128.615V193.187H122.769V187.333H116.923V181.479H111.077V175.625Z" fill="#476679"/>
<path fill-rule="evenodd" clip-rule="evenodd" d="M76 187.333V181.479H70.1538V187.333H76Z" fill="black"/>
<path fill-rule="evenodd" clip-rule="evenodd" d="M128.615 193.188V187.333H122.769V193.188H128.615Z" fill="black"/>
<path fill-rule="evenodd" clip-rule="evenodd" d="M81.8462 193.188V187.333H76V193.188H81.8462Z" fill="black"/>
<path fill-rule="evenodd" clip-rule="evenodd" d="M64.3076 193.188V187.333H58.4615V193.188H64.3076Z" fill="black"/>
<path fill-rule="evenodd" clip-rule="evenodd" d="M134.461 199.042V193.188H128.615V199.042H134.461Z" fill="black"/>
<path fill-rule="evenodd" clip-rule="evenodd" d="M93.5386 199.042V193.188H87.6924H81.8463V199.042H87.6924H93.5386Z" fill="black"/>
<path fill-rule="evenodd" clip-rule="evenodd" d="M70.1538 199.042V193.188H64.3077V199.042H70.1538Z" fill="black"/>
<path fill-rule="evenodd" clip-rule="evenodd" d="M140.308 204.896V199.042H134.461V204.896H140.308Z" fill="black"/>
<path fill-rule="evenodd" clip-rule="evenodd" d="M99.3848 204.896V199.042H93.5386V204.896H99.3848Z" fill="black"/>
<path fill-rule="evenodd" clip-rule="evenodd" d="M76 204.896V199.042H70.1538V204.896H76Z" fill="black"/>
<path fill-rule="evenodd" clip-rule="evenodd" d="M140.308 204.896V228.313H146.154V222.458V216.604V210.75V204.896H140.308Z" fill="black"/>
<path fill-rule="evenodd" clip-rule="evenodd" d="M99.3848 204.896V210.75V216.604H105.231V210.75V204.896H99.3848Z" fill="black"/>
<path fill-rule="evenodd" clip-rule="evenodd" d="M105.231 216.604V234.167H111.077V228.312V222.458V216.604H105.231Z" fill="black"/>
<path fill-rule="evenodd" clip-rule="evenodd" d="M81.8462 216.604V228.312H87.6924V222.458V216.604H81.8462Z" fill="black"/>
<path fill-rule="evenodd" clip-rule="evenodd" d="M140.308 228.312H134.461V234.167V240.021V245.875H140.308V240.021V234.167V228.312Z" fill="black"/>
<path fill-rule="evenodd" clip-rule="evenodd" d="M81.8462 228.312H76V234.167V240.021V245.875H81.8462V240.021V234.167V228.312Z" fill="black"/>
<path fill-rule="evenodd" clip-rule="evenodd" d="M105.231 234.167H99.3846V257.583H76V245.875H70.1538V281H152V269.292H146.154V275.146H99.3846V263.437H134.462V245.875H128.615V257.583H105.231V234.167ZM93.5385 275.146H76V263.437H93.5385V275.146Z" fill="black"/>
<path fill-rule="evenodd" clip-rule="evenodd" d="M146.154 269.292V263.438H140.308H134.462V269.292H140.308H146.154Z" fill="black"/>
<path fill-rule="evenodd" clip-rule="evenodd" d="M134.462 263.438H116.923V269.292H122.769H128.615V275.146H134.462H140.308H146.154V269.292H140.308H134.462V263.438Z" fill="#D1B266"/>
<path fill-rule="evenodd" clip-rule="evenodd" d="M116.923 263.438H111.077H105.231H99.3845V269.292V275.146H105.231H128.615V269.292H122.769H116.923V263.438Z" fill="#AE9149"/>
<path fill-rule="evenodd" clip-rule="evenodd" d="M93.5386 269.292V263.438H87.6924H81.8463H76.0001V269.292V275.146H81.8463H87.6924H93.5386V269.292Z" fill="#AE9149"/>
</g>
<defs>
<clipPath id="clip0_271_3263">
<rect width="228" height="281" fill="white" transform="matrix(-1 0 0 1 228 0)"/>
</clipPath>
</defs>
</svg>
