<svg width="92" height="90" viewBox="0 0 92 90" fill="none" xmlns="http://www.w3.org/2000/svg">
<g clip-path="url(#clip0_134_9796)">
<path fill-rule="evenodd" clip-rule="evenodd" d="M69.4252 41.1118V44.0339H75.2749V46.9629H78.2128V49.892H81.1376V55.737H84.062V58.6656H81.1376V61.5882H78.2128V64.5172H75.2749V67.4462H69.4252V70.3688H63.563V73.2974H40.142V70.3688H34.283V67.4462H28.4269V64.5172H25.502V61.5882H22.5744V58.6656H19.6431V55.737H22.5744V49.892H25.502V46.9629H28.4269V44.0339H34.283V41.1118H40.142V38.186L63.563 38.186V41.1118H69.4252Z" fill="#626365"/>
<path fill-rule="evenodd" clip-rule="evenodd" d="M22.5746 26.4828V29.4054H25.5022V32.3353H28.427V29.4054H31.3593V26.4828H40.1408V23.5529L63.5618 23.5529V26.4828H69.4263V29.4054H75.276V32.3353H78.2139V35.2611H81.1387V38.1869H84.0631V44.0338H87.0009V61.5881H84.0631L84.0631 70.3664H81.1387V73.2964H78.2139V76.2189H75.276V79.1489H69.4254V82.0788L63.5609 82.0788V85.0009H40.1408V82.0788H34.2832V79.1489H28.427V76.2189H25.5022V73.2964H22.5746V70.3664H19.6423V61.5881H16.7151L16.7151 44.0338H19.6432V38.186H22.5755V35.2602H25.5031V32.3344H22.5755V29.4044L19.6432 29.4044V26.4828H16.7151V23.5529H13.7871V20.6285H10.8548L10.8548 17.7027H7.93228L7.93228 14.7769H5L5 8.92579H7.93228V6L13.7871 6V8.92579L16.7151 8.92579V11.8558L19.6432 11.8558V14.7783H22.5755V17.7041H25.5031V20.6299H28.428L28.428 23.5557H31.3603V26.4856H28.428V23.5557H25.5022L25.5022 20.6285H22.5746V17.7027H19.6423V14.7769H16.7151V11.8544H13.7871V8.92439H7.93228L7.93228 14.7769H10.8571V17.7027H13.7894V20.6285H16.7151V23.5543H19.6432V26.4842L22.5746 26.4828ZM81.1378 52.8145V46.9629H78.2139V44.0329H75.276V41.1132H69.4254V38.1879H63.5609L63.5609 35.2602L40.1408 35.2602L40.1408 38.186L34.2832 38.186V41.1132H28.427V44.0338H25.5022V46.9638H22.5746V44.0338H25.5022V41.1132H28.427V38.1879H34.2832V35.2602H40.1408V32.3344L63.5618 32.3344V35.2602H69.4263V38.186H75.276V41.1132H78.2139V44.0338H81.1387V46.9638H84.0631V44.0338H81.1387V38.186H78.2139V35.2602H75.276V32.3344H69.4254V29.4044H63.5609V26.4828L40.1408 26.4828V29.4054H34.2832V32.3353H28.427V35.2611H25.5022V38.1869H22.5746V44.0338H19.6423L19.6423 46.9638H22.5746V52.8145H19.6423V61.5881H22.5746V70.3664H25.5022V73.2964H28.427V76.2189H34.2832V79.1489H40.1408V82.0788H63.5618V79.1489L69.4263 79.1489V76.2189H75.276V73.2964H78.2139V70.3664H81.1387L81.1387 61.5881H84.0631V52.8145H81.1378Z" fill="black"/>
<path fill-rule="evenodd" clip-rule="evenodd" d="M28.4269 44.0338V41.1117H34.283V38.186H40.142V35.2602L63.563 35.2602V38.186H69.4252V41.1117H75.2749V44.0338H78.2128V46.9629H81.1376V49.8919H78.2128V46.9629H75.2749V44.0338H69.4252V41.1117H63.563V38.186L40.142 38.186V41.1117H34.283V44.0338H28.4269V46.9629H25.502V49.8919H22.5744V46.9629H19.6431V44.0338H22.5744V38.186H25.502V35.2602H28.4269V32.3344H34.283V29.4053L40.142 29.4053V26.4833H63.563V29.4053L69.4252 29.4053V32.3344H75.2749V35.2602H78.2128V38.186H81.1376V44.0338H84.062V46.9629H81.1376V44.0338H78.2128V41.1117H75.2749V38.186H69.4252V35.2602H63.563V32.3344L40.142 32.3344V35.2602H34.283V38.186H28.4269V41.1117H25.502V44.0338H22.5744L22.5744 46.9629H25.502L25.502 44.0338H28.4269Z" fill="#252424"/>
<path fill-rule="evenodd" clip-rule="evenodd" d="M78.2131 73.2972H75.2752V76.2198H69.4255V79.1488H63.5633V82.0779H40.1423V79.1488H34.2833V76.2198H28.4272V73.2972H25.5023V70.3687H22.5747V64.5171H25.5023V67.4461H28.4272V70.3687H34.2833V73.2972H40.1423V76.2198H63.5633V73.2972H69.4255V70.3687H75.2752V67.4461H78.2131V64.5171H81.1379V70.3687H78.2131V73.2972Z" fill="#252424"/>
<path fill-rule="evenodd" clip-rule="evenodd" d="M81.1376 61.5881V64.5171H78.2128V67.4461H75.2749V70.3687H69.4252V73.2973H63.563V76.2198H40.142V73.2973H34.283V70.3687H28.4269V67.4461H25.502V64.5171H22.5744V61.5881H19.6431V58.6655H22.5744V61.5881H25.502V64.5171H28.4269V67.4461H34.283V70.3687H40.142V73.2973H63.563V70.3687H69.4252V67.4461H75.2749V64.5171H78.2128V61.5881H81.1376V58.6655H84.062V61.5881H81.1376Z" fill="#9FA0A3"/>
<path fill-rule="evenodd" clip-rule="evenodd" d="M25.502 26.4833L19.643 26.4833V23.5543H16.715V20.6285H13.7869V17.7027H10.856V14.7769H7.93115L7.93115 8.92578H13.7869V11.8548H16.715V14.7769H19.643V17.7027H22.5744V20.6285H25.502L25.502 26.4833Z" fill="#626365"/>
<path fill-rule="evenodd" clip-rule="evenodd" d="M25.5023 26.4834V29.4054H22.5747V26.4834H25.5023V23.5543H28.4272V26.4834H25.5023Z" fill="#252424"/>
<path d="M28.4273 26.4828H25.5024V32.3344H28.4273V26.4828Z" fill="#9FA0A3"/>
<path d="M84.0625 52.8145H81.1377V55.737H84.0625V52.8145Z" fill="#252424"/>
<path d="M22.5744 52.8145H19.6431V55.737H22.5744V52.8145Z" fill="#252424"/>
</g>
<defs>
<clipPath id="clip0_134_9796">
<rect width="82" height="79" fill="white" transform="translate(5 6)"/>
</clipPath>
</defs>
</svg>
