<svg width="92" height="90" viewBox="0 0 92 90" fill="none" xmlns="http://www.w3.org/2000/svg">
<path d="M80.5015 19.4243H77.0239V22.9019H80.5015V19.4243Z" fill="black"/>
<path d="M80.5015 22.902H77.0239V26.3796H80.5015V22.902Z" fill="black"/>
<path d="M80.5015 26.3796H77.0239V29.8572H80.5015V26.3796Z" fill="black"/>
<path d="M80.5015 29.8488H77.0239V33.3264H80.5015V29.8488Z" fill="black"/>
<path d="M80.5015 33.3264H77.0239V36.804H80.5015V33.3264Z" fill="black"/>
<path d="M80.5015 36.804H77.0239V40.2815H80.5015V36.804Z" fill="black"/>
<path d="M77.024 15.9552H73.5464V19.4328H77.024V15.9552Z" fill="black"/>
<path d="M77.024 19.4243H73.5464V22.9019H77.024V19.4243Z" fill="white"/>
<path d="M77.024 22.902H73.5464V26.3796H77.024V22.902Z" fill="white"/>
<path d="M77.024 26.3796H73.5464V29.8572H77.024V26.3796Z" fill="white"/>
<path d="M77.024 29.8488H73.5464V33.3264H77.024V29.8488Z" fill="white"/>
<path d="M77.024 33.3264H73.5464V36.804H77.024V33.3264Z" fill="white"/>
<path d="M77.024 36.804H73.5464V40.2815H77.024V36.804Z" fill="white"/>
<path d="M77.024 40.2732H73.5464V43.7508H77.024V40.2732Z" fill="black"/>
<path d="M73.5464 12.4775H70.0688V15.9551H73.5464V12.4775Z" fill="black"/>
<path d="M73.5464 15.9552H70.0688V19.4328H73.5464V15.9552Z" fill="#E8E8E8"/>
<path d="M73.5464 19.4243H70.0688V22.9019H73.5464V19.4243Z" fill="white"/>
<path d="M73.5464 22.902H70.0688V26.3796H73.5464V22.902Z" fill="white"/>
<path d="M73.5464 26.3796H70.0688V29.8572H73.5464V26.3796Z" fill="white"/>
<path d="M73.5464 29.8488H70.0688V33.3264H73.5464V29.8488Z" fill="white"/>
<path d="M73.5464 33.3264H70.0688V36.804H73.5464V33.3264Z" fill="white"/>
<path d="M73.5464 36.804H70.0688V40.2815H73.5464V36.804Z" fill="white"/>
<path d="M73.5464 40.2732H70.0688V43.7508H73.5464V40.2732Z" fill="black"/>
<path d="M70.0772 12.4775H66.5996V15.9551H70.0772V12.4775Z" fill="black"/>
<path d="M70.0772 15.9552H66.5996V19.4328H70.0772V15.9552Z" fill="#E8E8E8"/>
<path d="M70.0772 19.4243H66.5996V22.9019H70.0772V19.4243Z" fill="white"/>
<path d="M70.0772 22.902H66.5996V26.3796H70.0772V22.902Z" fill="white"/>
<path d="M70.0772 26.3796H66.5996V29.8572H70.0772V26.3796Z" fill="#E8E8E8"/>
<path d="M70.0772 29.8488H66.5996V33.3264H70.0772V29.8488Z" fill="#E8E8E8"/>
<path d="M70.0772 33.3264H66.5996V36.804H70.0772V33.3264Z" fill="#E8E8E8"/>
<path d="M70.0772 36.804H66.5996V40.2815H70.0772V36.804Z" fill="#E8E8E8"/>
<path d="M70.0772 40.2732H66.5996V43.7508H70.0772V40.2732Z" fill="black"/>
<path d="M66.5997 12.4775H63.1221V15.9551H66.5997V12.4775Z" fill="#E8E8E8"/>
<path d="M66.5997 15.9552H63.1221V19.4328H66.5997V15.9552Z" fill="white"/>
<path d="M66.5997 19.4243H63.1221V22.9019H66.5997V19.4243Z" fill="white"/>
<path d="M66.5997 22.902H63.1221V26.3796H66.5997V22.902Z" fill="white"/>
<path d="M66.5997 26.3796H63.1221V29.8572H66.5997V26.3796Z" fill="white"/>
<path d="M66.5997 29.8488H63.1221V33.3264H66.5997V29.8488Z" fill="#BABABA"/>
<path d="M66.5997 33.3264H63.1221V36.804H66.5997V33.3264Z" fill="#BABABA"/>
<path d="M66.5997 36.804H63.1221V40.2815H66.5997V36.804Z" fill="#BABABA"/>
<path d="M66.5997 40.2732H63.1221V43.7508H66.5997V40.2732Z" fill="#BABABA"/>
<path d="M66.5997 43.7507H63.1221V47.2283H66.5997V43.7507Z" fill="black"/>
<path d="M66.5997 47.2284H63.1221V50.706H66.5997V47.2284Z" fill="black"/>
<path d="M66.5997 50.6976H63.1221V54.1752H66.5997V50.6976Z" fill="black"/>
<path d="M66.5997 54.1752H63.1221V57.6528H66.5997V54.1752Z" fill="black"/>
<path d="M66.5997 57.6528H63.1221V61.1304H66.5997V57.6528Z" fill="black"/>
<path d="M66.5997 61.1219H63.1221V64.5995H66.5997V61.1219Z" fill="black"/>
<path d="M66.5997 64.5996H63.1221V68.0772H66.5997V64.5996Z" fill="black"/>
<path d="M66.5997 68.0771H63.1221V71.5548H66.5997V68.0771Z" fill="black"/>
<path d="M66.5997 71.5548H63.1221V75.0324H66.5997V71.5548Z" fill="black"/>
<path d="M63.1221 12.4775H59.6445V15.9551H63.1221V12.4775Z" fill="#E8E8E8"/>
<path d="M63.1221 15.9552H59.6445V19.4328H63.1221V15.9552Z" fill="#E8E8E8"/>
<path d="M63.1221 19.4243H59.6445V22.9019H63.1221V19.4243Z" fill="white"/>
<path d="M63.1221 22.902H59.6445V26.3796H63.1221V22.902Z" fill="white"/>
<path d="M63.1221 26.3796H59.6445V29.8572H63.1221V26.3796Z" fill="white"/>
<path d="M63.1221 29.8488H59.6445V33.3264H63.1221V29.8488Z" fill="#E8E8E8"/>
<path d="M63.1221 33.3264H59.6445V36.804H63.1221V33.3264Z" fill="#E8E8E8"/>
<path d="M63.1221 36.804H59.6445V40.2815H63.1221V36.804Z" fill="#E8E8E8"/>
<path d="M63.1221 40.2732H59.6445V43.7508H63.1221V40.2732Z" fill="#E8E8E8"/>
<path d="M63.1221 43.7507H59.6445V47.2283H63.1221V43.7507Z" fill="#E8E8E8"/>
<path d="M63.1221 47.2284H59.6445V50.706H63.1221V47.2284Z" fill="#E8E8E8"/>
<path d="M63.1221 50.6976H59.6445V54.1752H63.1221V50.6976Z" fill="#E8E8E8"/>
<path d="M63.1221 54.1752H59.6445V57.6528H63.1221V54.1752Z" fill="#E8E8E8"/>
<path d="M63.1221 57.6528H59.6445V61.1304H63.1221V57.6528Z" fill="#E8E8E8"/>
<path d="M63.1221 61.1219H59.6445V64.5995H63.1221V61.1219Z" fill="#E8E8E8"/>
<path d="M63.1221 64.5996H59.6445V68.0772H63.1221V64.5996Z" fill="#E8E8E8"/>
<path d="M63.1221 68.0771H59.6445V71.5548H63.1221V68.0771Z" fill="#E8E8E8"/>
<path d="M63.1221 71.5548H59.6445V75.0324H63.1221V71.5548Z" fill="#E8E8E8"/>
<path d="M63.1221 75.024H59.6445V78.5016H63.1221V75.024Z" fill="black"/>
<path d="M59.6529 12.4775H56.1753V15.9551H59.6529V12.4775Z" fill="black"/>
<path d="M59.6529 15.9552H56.1753V19.4328H59.6529V15.9552Z" fill="black"/>
<path d="M59.6529 19.4243H56.1753V22.9019H59.6529V19.4243Z" fill="#E8E8E8"/>
<path d="M59.6529 22.902H56.1753V26.3796H59.6529V22.902Z" fill="white"/>
<path d="M59.6529 26.3796H56.1753V29.8572H59.6529V26.3796Z" fill="white"/>
<path d="M59.6529 29.8488H56.1753V33.3264H59.6529V29.8488Z" fill="white"/>
<path d="M59.6529 33.3264H56.1753V36.804H59.6529V33.3264Z" fill="#E8E8E8"/>
<path d="M59.6529 36.804H56.1753V40.2815H59.6529V36.804Z" fill="#E8E8E8"/>
<path d="M59.6529 40.2732H56.1753V43.7508H59.6529V40.2732Z" fill="#E8E8E8"/>
<path d="M59.6529 43.7507H56.1753V47.2283H59.6529V43.7507Z" fill="#E8E8E8"/>
<path d="M59.6529 47.2284H56.1753V50.706H59.6529V47.2284Z" fill="#E8E8E8"/>
<path d="M59.6529 50.6976H56.1753V54.1752H59.6529V50.6976Z" fill="#E8E8E8"/>
<path d="M59.6529 54.1752H56.1753V57.6528H59.6529V54.1752Z" fill="#E8E8E8"/>
<path d="M59.6529 57.6528H56.1753V61.1304H59.6529V57.6528Z" fill="#E8E8E8"/>
<path d="M59.6529 61.1219H56.1753V64.5995H59.6529V61.1219Z" fill="#E8E8E8"/>
<path d="M59.6529 64.5996H56.1753V68.0772H59.6529V64.5996Z" fill="#E8E8E8"/>
<path d="M59.6529 68.0771H56.1753V71.5548H59.6529V68.0771Z" fill="#E8E8E8"/>
<path d="M59.6529 71.5548H56.1753V75.0324H59.6529V71.5548Z" fill="#E8E8E8"/>
<path d="M59.6529 75.024H56.1753V78.5016H59.6529V75.024Z" fill="black"/>
<path d="M56.1754 19.4243H52.6978V22.9019H56.1754V19.4243Z" fill="black"/>
<path d="M56.1754 22.902H52.6978V26.3796H56.1754V22.902Z" fill="#E8E8E8"/>
<path d="M56.1754 26.3796H52.6978V29.8572H56.1754V26.3796Z" fill="white"/>
<path d="M56.1754 29.8488H52.6978V33.3264H56.1754V29.8488Z" fill="white"/>
<path d="M56.1754 33.3264H52.6978V36.804H56.1754V33.3264Z" fill="white"/>
<path d="M56.1754 36.804H52.6978V40.2815H56.1754V36.804Z" fill="white"/>
<path d="M56.1754 40.2732H52.6978V43.7508H56.1754V40.2732Z" fill="#E8E8E8"/>
<path d="M56.1754 43.7507H52.6978V47.2283H56.1754V43.7507Z" fill="#E8E8E8"/>
<path d="M56.1754 47.2284H52.6978V50.706H56.1754V47.2284Z" fill="#E8E8E8"/>
<path d="M56.1754 50.6976H52.6978V54.1752H56.1754V50.6976Z" fill="#E8E8E8"/>
<path d="M56.1754 54.1752H52.6978V57.6528H56.1754V54.1752Z" fill="#E8E8E8"/>
<path d="M56.1754 57.6528H52.6978V61.1304H56.1754V57.6528Z" fill="#E8E8E8"/>
<path d="M56.1754 61.1219H52.6978V64.5995H56.1754V61.1219Z" fill="#E8E8E8"/>
<path d="M56.1754 64.5996H52.6978V68.0772H56.1754V64.5996Z" fill="#E8E8E8"/>
<path d="M56.1754 68.0771H52.6978V71.5548H56.1754V68.0771Z" fill="#E8E8E8"/>
<path d="M56.1754 71.5548H52.6978V75.0324H56.1754V71.5548Z" fill="#E8E8E8"/>
<path d="M56.1754 75.024H52.6978V78.5016H56.1754V75.024Z" fill="black"/>
<path d="M52.6978 19.4243H49.2202V22.9019H52.6978V19.4243Z" fill="black"/>
<path d="M52.6978 22.902H49.2202V26.3796H52.6978V22.902Z" fill="#E8E8E8"/>
<path d="M52.6978 26.3796H49.2202V29.8572H52.6978V26.3796Z" fill="white"/>
<path d="M52.6978 29.8488H49.2202V33.3264H52.6978V29.8488Z" fill="white"/>
<path d="M52.6978 33.3264H49.2202V36.804H52.6978V33.3264Z" fill="white"/>
<path d="M52.6978 36.804H49.2202V40.2815H52.6978V36.804Z" fill="white"/>
<path d="M52.6978 40.2732H49.2202V43.7508H52.6978V40.2732Z" fill="white"/>
<path d="M52.6978 43.7507H49.2202V47.2283H52.6978V43.7507Z" fill="white"/>
<path d="M52.6978 47.2284H49.2202V50.706H52.6978V47.2284Z" fill="white"/>
<path d="M52.6978 50.6976H49.2202V54.1752H52.6978V50.6976Z" fill="white"/>
<path d="M52.6978 54.1752H49.2202V57.6528H52.6978V54.1752Z" fill="white"/>
<path d="M52.6978 57.6528H49.2202V61.1304H52.6978V57.6528Z" fill="white"/>
<path d="M52.6978 61.1219H49.2202V64.5995H52.6978V61.1219Z" fill="white"/>
<path d="M52.6978 64.5996H49.2202V68.0772H52.6978V64.5996Z" fill="#E8E8E8"/>
<path d="M52.6978 68.0771H49.2202V71.5548H52.6978V68.0771Z" fill="#E8E8E8"/>
<path d="M52.6978 71.5548H49.2202V75.0324H52.6978V71.5548Z" fill="#E8E8E8"/>
<path d="M52.6978 75.024H49.2202V78.5016H52.6978V75.024Z" fill="black"/>
<path d="M49.2286 19.4243H45.751V22.9019H49.2286V19.4243Z" fill="black"/>
<path d="M49.2286 22.902H45.751V26.3796H49.2286V22.902Z" fill="#E8E8E8"/>
<path d="M49.2286 26.3796H45.751V29.8572H49.2286V26.3796Z" fill="white"/>
<path d="M49.2286 29.8488H45.751V33.3264H49.2286V29.8488Z" fill="white"/>
<path d="M49.2286 33.3264H45.751V36.804H49.2286V33.3264Z" fill="white"/>
<path d="M49.2286 36.804H45.751V40.2815H49.2286V36.804Z" fill="white"/>
<path d="M49.2286 40.2732H45.751V43.7508H49.2286V40.2732Z" fill="white"/>
<path d="M49.2286 43.7507H45.751V47.2283H49.2286V43.7507Z" fill="white"/>
<path d="M49.2286 47.2284H45.751V50.706H49.2286V47.2284Z" fill="white"/>
<path d="M49.2286 50.6976H45.751V54.1752H49.2286V50.6976Z" fill="white"/>
<path d="M49.2286 54.1752H45.751V57.6528H49.2286V54.1752Z" fill="white"/>
<path d="M49.2286 57.6528H45.751V61.1304H49.2286V57.6528Z" fill="white"/>
<path d="M49.2286 61.1219H45.751V64.5995H49.2286V61.1219Z" fill="white"/>
<path d="M49.2286 64.5996H45.751V68.0772H49.2286V64.5996Z" fill="white"/>
<path d="M49.2286 68.0771H45.751V71.5548H49.2286V68.0771Z" fill="#E8E8E8"/>
<path d="M49.2286 71.5548H45.751V75.0324H49.2286V71.5548Z" fill="#E8E8E8"/>
<path d="M49.2286 75.024H45.751V78.5016H49.2286V75.024Z" fill="black"/>
<path d="M45.7506 19.4243H42.2729V22.9019H45.7506V19.4243Z" fill="black"/>
<path d="M45.7506 22.902H42.2729V26.3796H45.7506V22.902Z" fill="#E8E8E8"/>
<path d="M45.7506 26.3796H42.2729V29.8572H45.7506V26.3796Z" fill="white"/>
<path d="M45.7506 29.8488H42.2729V33.3264H45.7506V29.8488Z" fill="white"/>
<path d="M45.7506 33.3264H42.2729V36.804H45.7506V33.3264Z" fill="white"/>
<path d="M45.7506 36.804H42.2729V40.2815H45.7506V36.804Z" fill="white"/>
<path d="M45.7506 40.2732H42.2729V43.7508H45.7506V40.2732Z" fill="white"/>
<path d="M45.7506 43.7507H42.2729V47.2283H45.7506V43.7507Z" fill="white"/>
<path d="M45.7506 47.2284H42.2729V50.706H45.7506V47.2284Z" fill="white"/>
<path d="M45.7506 50.6976H42.2729V54.1752H45.7506V50.6976Z" fill="white"/>
<path d="M45.7506 54.1752H42.2729V57.6528H45.7506V54.1752Z" fill="white"/>
<path d="M45.7506 57.6528H42.2729V61.1304H45.7506V57.6528Z" fill="white"/>
<path d="M45.7506 61.1219H42.2729V64.5995H45.7506V61.1219Z" fill="white"/>
<path d="M45.7506 64.5996H42.2729V68.0772H45.7506V64.5996Z" fill="white"/>
<path d="M45.7506 68.0771H42.2729V71.5548H45.7506V68.0771Z" fill="white"/>
<path d="M45.7506 71.5548H42.2729V75.0324H45.7506V71.5548Z" fill="#E8E8E8"/>
<path d="M45.7506 75.024H42.2729V78.5016H45.7506V75.024Z" fill="black"/>
<path d="M42.273 19.4243H38.7954V22.9019H42.273V19.4243Z" fill="black"/>
<path d="M42.273 22.902H38.7954V26.3796H42.273V22.902Z" fill="#E8E8E8"/>
<path d="M42.273 26.3796H38.7954V29.8572H42.273V26.3796Z" fill="white"/>
<path d="M42.273 29.8488H38.7954V33.3264H42.273V29.8488Z" fill="white"/>
<path d="M42.273 33.3264H38.7954V36.804H42.273V33.3264Z" fill="white"/>
<path d="M42.273 36.804H38.7954V40.2815H42.273V36.804Z" fill="white"/>
<path d="M42.273 40.2732H38.7954V43.7508H42.273V40.2732Z" fill="white"/>
<path d="M42.273 43.7507H38.7954V47.2283H42.273V43.7507Z" fill="white"/>
<path d="M42.273 47.2284H38.7954V50.706H42.273V47.2284Z" fill="white"/>
<path d="M42.273 50.6976H38.7954V54.1752H42.273V50.6976Z" fill="white"/>
<path d="M42.273 54.1752H38.7954V57.6528H42.273V54.1752Z" fill="white"/>
<path d="M42.273 57.6528H38.7954V61.1304H42.273V57.6528Z" fill="white"/>
<path d="M42.273 61.1219H38.7954V64.5995H42.273V61.1219Z" fill="white"/>
<path d="M42.273 64.5996H38.7954V68.0772H42.273V64.5996Z" fill="white"/>
<path d="M42.273 68.0771H38.7954V71.5548H42.273V68.0771Z" fill="white"/>
<path d="M42.273 71.5548H38.7954V75.0324H42.273V71.5548Z" fill="white"/>
<path d="M42.273 75.024H38.7954V78.5016H42.273V75.024Z" fill="black"/>
<path d="M38.8038 19.4243H35.3262V22.9019H38.8038V19.4243Z" fill="black"/>
<path d="M38.8038 22.902H35.3262V26.3796H38.8038V22.902Z" fill="#E8E8E8"/>
<path d="M38.8038 26.3796H35.3262V29.8572H38.8038V26.3796Z" fill="white"/>
<path d="M38.8038 29.8488H35.3262V33.3264H38.8038V29.8488Z" fill="white"/>
<path d="M38.8038 33.3264H35.3262V36.804H38.8038V33.3264Z" fill="white"/>
<path d="M38.8038 36.804H35.3262V40.2815H38.8038V36.804Z" fill="white"/>
<path d="M38.8038 40.2732H35.3262V43.7508H38.8038V40.2732Z" fill="white"/>
<path d="M38.8038 43.7507H35.3262V47.2283H38.8038V43.7507Z" fill="white"/>
<path d="M38.8038 47.2284H35.3262V50.706H38.8038V47.2284Z" fill="white"/>
<path d="M38.8038 50.6976H35.3262V54.1752H38.8038V50.6976Z" fill="white"/>
<path d="M38.8038 54.1752H35.3262V57.6528H38.8038V54.1752Z" fill="white"/>
<path d="M38.8038 57.6528H35.3262V61.1304H38.8038V57.6528Z" fill="white"/>
<path d="M38.8038 61.1304H35.3262V64.608H38.8038V61.1304Z" fill="white"/>
<path d="M38.8038 64.5996H35.3262V68.0772H38.8038V64.5996Z" fill="white"/>
<path d="M38.8038 68.0771H35.3262V71.5548H38.8038V68.0771Z" fill="white"/>
<path d="M38.8038 71.5548H35.3262V75.0324H38.8038V71.5548Z" fill="white"/>
<path d="M38.8038 75.024H35.3262V78.5016H38.8038V75.024Z" fill="black"/>
<path d="M35.3262 12.4775H31.8486V15.9551H35.3262V12.4775Z" fill="black"/>
<path d="M35.3262 15.9552H31.8486V19.4328H35.3262V15.9552Z" fill="black"/>
<path d="M35.3262 19.4243H31.8486V22.9019H35.3262V19.4243Z" fill="#E8E8E8"/>
<path d="M35.3262 22.902H31.8486V26.3796H35.3262V22.902Z" fill="white"/>
<path d="M35.3262 26.3796H31.8486V29.8572H35.3262V26.3796Z" fill="white"/>
<path d="M35.3262 29.8488H31.8486V33.3264H35.3262V29.8488Z" fill="white"/>
<path d="M35.3262 33.3264H31.8486V36.804H35.3262V33.3264Z" fill="white"/>
<path d="M35.3262 36.804H31.8486V40.2815H35.3262V36.804Z" fill="white"/>
<path d="M35.3262 40.2732H31.8486V43.7508H35.3262V40.2732Z" fill="white"/>
<path d="M35.3262 43.7507H31.8486V47.2283H35.3262V43.7507Z" fill="white"/>
<path d="M35.3262 47.2284H31.8486V50.706H35.3262V47.2284Z" fill="white"/>
<path d="M35.3262 50.6976H31.8486V54.1752H35.3262V50.6976Z" fill="white"/>
<path d="M35.3262 54.1752H31.8486V57.6528H35.3262V54.1752Z" fill="white"/>
<path d="M35.3262 57.6528H31.8486V61.1304H35.3262V57.6528Z" fill="white"/>
<path d="M35.3262 61.1304H31.8486V64.608H35.3262V61.1304Z" fill="white"/>
<path d="M35.3262 64.5996H31.8486V68.0772H35.3262V64.5996Z" fill="white"/>
<path d="M35.3262 68.0771H31.8486V71.5548H35.3262V68.0771Z" fill="white"/>
<path d="M35.3262 71.5548H31.8486V75.0324H35.3262V71.5548Z" fill="white"/>
<path d="M35.3262 75.024H31.8486V78.5016H35.3262V75.024Z" fill="black"/>
<path d="M31.8487 12.4775H28.3711V15.9551H31.8487V12.4775Z" fill="#E8E8E8"/>
<path d="M31.8487 15.9552H28.3711V19.4328H31.8487V15.9552Z" fill="#E8E8E8"/>
<path d="M31.8487 19.4243H28.3711V22.9019H31.8487V19.4243Z" fill="white"/>
<path d="M31.8487 22.902H28.3711V26.3796H31.8487V22.902Z" fill="white"/>
<path d="M31.8487 26.3796H28.3711V29.8572H31.8487V26.3796Z" fill="white"/>
<path d="M31.8487 29.8488H28.3711V33.3264H31.8487V29.8488Z" fill="#E8E8E8"/>
<path d="M31.8487 33.3264H28.3711V36.804H31.8487V33.3264Z" fill="#E8E8E8"/>
<path d="M31.8487 36.804H28.3711V40.2815H31.8487V36.804Z" fill="#E8E8E8"/>
<path d="M31.8487 40.2732H28.3711V43.7508H31.8487V40.2732Z" fill="#E8E8E8"/>
<path d="M31.8487 43.7507H28.3711V47.2283H31.8487V43.7507Z" fill="#E8E8E8"/>
<path d="M31.8487 47.2284H28.3711V50.706H31.8487V47.2284Z" fill="#E8E8E8"/>
<path d="M31.8487 50.6976H28.3711V54.1752H31.8487V50.6976Z" fill="#E8E8E8"/>
<path d="M31.8487 54.1752H28.3711V57.6528H31.8487V54.1752Z" fill="white"/>
<path d="M31.8487 57.6528H28.3711V61.1304H31.8487V57.6528Z" fill="white"/>
<path d="M31.8487 61.1304H28.3711V64.608H31.8487V61.1304Z" fill="white"/>
<path d="M31.8487 64.5996H28.3711V68.0772H31.8487V64.5996Z" fill="white"/>
<path d="M31.8487 68.0771H28.3711V71.5548H31.8487V68.0771Z" fill="white"/>
<path d="M31.8487 71.5548H28.3711V75.0324H31.8487V71.5548Z" fill="white"/>
<path d="M31.8487 75.024H28.3711V78.5016H31.8487V75.024Z" fill="black"/>
<path d="M28.3795 12.4775H24.9019V15.9551H28.3795V12.4775Z" fill="#E8E8E8"/>
<path d="M28.3795 15.9552H24.9019V19.4328H28.3795V15.9552Z" fill="white"/>
<path d="M28.3795 19.4243H24.9019V22.9019H28.3795V19.4243Z" fill="white"/>
<path d="M28.3795 22.902H24.9019V26.3796H28.3795V22.902Z" fill="white"/>
<path d="M28.3795 26.3796H24.9019V29.8572H28.3795V26.3796Z" fill="white"/>
<path d="M28.3795 29.8488H24.9019V33.3264H28.3795V29.8488Z" fill="#BABABA"/>
<path d="M28.3795 33.3264H24.9019V36.804H28.3795V33.3264Z" fill="#BABABA"/>
<path d="M28.3795 36.804H24.9019V40.2815H28.3795V36.804Z" fill="#BABABA"/>
<path d="M28.3795 40.2732H24.9019V43.7508H28.3795V40.2732Z" fill="#BABABA"/>
<path d="M28.3795 43.7507H24.9019V47.2283H28.3795V43.7507Z" fill="black"/>
<path d="M28.3795 47.2284H24.9019V50.706H28.3795V47.2284Z" fill="black"/>
<path d="M28.3795 50.6976H24.9019V54.1752H28.3795V50.6976Z" fill="black"/>
<path d="M28.3795 54.1752H24.9019V57.6528H28.3795V54.1752Z" fill="black"/>
<path d="M28.3795 57.6528H24.9019V61.1304H28.3795V57.6528Z" fill="black"/>
<path d="M28.3795 61.1304H24.9019V64.608H28.3795V61.1304Z" fill="black"/>
<path d="M28.3795 64.5996H24.9019V68.0772H28.3795V64.5996Z" fill="black"/>
<path d="M28.3795 68.0771H24.9019V71.5548H28.3795V68.0771Z" fill="black"/>
<path d="M28.3795 71.5548H24.9019V75.0324H28.3795V71.5548Z" fill="black"/>
<path d="M24.9019 12.4775H21.4243V15.9551H24.9019V12.4775Z" fill="black"/>
<path d="M24.9019 15.9552H21.4243V19.4328H24.9019V15.9552Z" fill="#E8E8E8"/>
<path d="M24.9019 19.4243H21.4243V22.9019H24.9019V19.4243Z" fill="white"/>
<path d="M24.9019 22.902H21.4243V26.3796H24.9019V22.902Z" fill="white"/>
<path d="M24.9019 26.3796H21.4243V29.8572H24.9019V26.3796Z" fill="#E8E8E8"/>
<path d="M24.9019 29.8488H21.4243V33.3264H24.9019V29.8488Z" fill="#E8E8E8"/>
<path d="M24.9019 33.3264H21.4243V36.804H24.9019V33.3264Z" fill="#E8E8E8"/>
<path d="M24.9019 36.804H21.4243V40.2815H24.9019V36.804Z" fill="#E8E8E8"/>
<path d="M24.9019 40.2732H21.4243V43.7508H24.9019V40.2732Z" fill="black"/>
<path d="M21.4244 12.4775H17.9468V15.9551H21.4244V12.4775Z" fill="black"/>
<path d="M21.4244 15.9552H17.9468V19.4328H21.4244V15.9552Z" fill="#E8E8E8"/>
<path d="M21.4244 19.4243H17.9468V22.9019H21.4244V19.4243Z" fill="white"/>
<path d="M21.4244 22.902H17.9468V26.3796H21.4244V22.902Z" fill="white"/>
<path d="M21.4244 26.3796H17.9468V29.8572H21.4244V26.3796Z" fill="white"/>
<path d="M21.4244 29.8488H17.9468V33.3264H21.4244V29.8488Z" fill="white"/>
<path d="M21.4244 33.3264H17.9468V36.804H21.4244V33.3264Z" fill="white"/>
<path d="M21.4244 36.804H17.9468V40.2815H21.4244V36.804Z" fill="white"/>
<path d="M21.4244 40.2732H17.9468V43.7508H21.4244V40.2732Z" fill="black"/>
<path d="M17.9551 15.9552H14.4775V19.4328H17.9551V15.9552Z" fill="black"/>
<path d="M17.9551 19.4243H14.4775V22.9019H17.9551V19.4243Z" fill="white"/>
<path d="M17.9551 22.902H14.4775V26.3796H17.9551V22.902Z" fill="white"/>
<path d="M17.9551 26.3796H14.4775V29.8572H17.9551V26.3796Z" fill="white"/>
<path d="M17.9551 29.8488H14.4775V33.3264H17.9551V29.8488Z" fill="white"/>
<path d="M17.9551 33.3264H14.4775V36.804H17.9551V33.3264Z" fill="white"/>
<path d="M17.9551 36.804H14.4775V40.2815H17.9551V36.804Z" fill="white"/>
<path d="M17.9551 40.2732H14.4775V43.7508H17.9551V40.2732Z" fill="black"/>
<path d="M14.4776 19.4243H11V22.9019H14.4776V19.4243Z" fill="black"/>
<path d="M14.4776 22.902H11V26.3796H14.4776V22.902Z" fill="black"/>
<path d="M14.4776 26.3796H11V29.8572H14.4776V26.3796Z" fill="black"/>
<path d="M14.4776 29.8488H11V33.3264H14.4776V29.8488Z" fill="black"/>
<path d="M14.4776 33.3264H11V36.804H14.4776V33.3264Z" fill="black"/>
<path d="M14.4776 36.804H11V40.2815H14.4776V36.804Z" fill="black"/>
<path d="M66.5997 11H63.1221V14.4776H66.5997V11Z" fill="black"/>
<path d="M63.1221 11H59.6445V14.4776H63.1221V11Z" fill="black"/>
<path d="M31.8487 11H28.3711V14.4776H31.8487V11Z" fill="black"/>
<path d="M28.3799 11H24.9023V14.4776H28.3799V11Z" fill="black"/>
</svg>
