<svg width="92" height="90" viewBox="0 0 92 90" fill="none" xmlns="http://www.w3.org/2000/svg">
<path d="M66.3595 17.1299H64.2915V19.1948H66.3595V17.1299Z" fill="black"/>
<path d="M66.3595 19.1948H64.2915V21.2598H66.3595V19.1948Z" fill="black"/>
<path d="M66.3595 21.2598H64.2915V23.3247H66.3595V21.2598Z" fill="black"/>
<path d="M66.3595 23.3246H64.2915V25.3895H66.3595V23.3246Z" fill="black"/>
<path d="M66.3595 25.3895H64.2915V27.4545H66.3595V25.3895Z" fill="black"/>
<path d="M66.3595 27.4545H64.2915V29.5194H66.3595V27.4545Z" fill="black"/>
<path d="M66.3595 29.5194H64.2915V31.5843H66.3595V29.5194Z" fill="black"/>
<path d="M66.3595 31.5844H64.2915V33.6493H66.3595V31.5844Z" fill="black"/>
<path d="M66.3595 33.6492H64.2915V35.7141H66.3595V33.6492Z" fill="black"/>
<path d="M66.3595 35.7142H64.2915V37.7792H66.3595V35.7142Z" fill="black"/>
<path d="M66.3595 37.7792H64.2915V39.8441H66.3595V37.7792Z" fill="black"/>
<path d="M66.3595 39.844H64.2915V41.9089H66.3595V39.844Z" fill="black"/>
<path d="M66.3595 41.9089H64.2915V43.9739H66.3595V41.9089Z" fill="black"/>
<path d="M66.3595 43.9739H64.2915V46.0388H66.3595V43.9739Z" fill="black"/>
<path d="M66.3595 46.0388H64.2915V48.1037H66.3595V46.0388Z" fill="black"/>
<path d="M66.3595 48.1038H64.2915V50.1687H66.3595V48.1038Z" fill="black"/>
<path d="M66.3595 50.1626H64.2915V52.2275H66.3595V50.1626Z" fill="black"/>
<path d="M66.3595 52.2277H64.2915V54.2926H66.3595V52.2277Z" fill="black"/>
<path d="M66.3595 54.2925H64.2915V56.3574H66.3595V54.2925Z" fill="black"/>
<path d="M66.3595 56.3574H64.2915V58.4224H66.3595V56.3574Z" fill="black"/>
<path d="M66.3595 58.4224H64.2915V60.4873H66.3595V58.4224Z" fill="black"/>
<path d="M66.3595 60.4873H64.2915V62.5522H66.3595V60.4873Z" fill="black"/>
<path d="M66.3595 62.5522H64.2915V64.6172H66.3595V62.5522Z" fill="black"/>
<path d="M66.3595 64.6172H64.2915V66.6821H66.3595V64.6172Z" fill="black"/>
<path d="M66.3595 66.6821H64.2915V68.7471H66.3595V66.6821Z" fill="black"/>
<path d="M66.3595 68.7471H64.2915V70.812H66.3595V68.7471Z" fill="black"/>
<path d="M64.2916 15.0649H62.2236V17.1299H64.2916V15.0649Z" fill="black"/>
<path d="M64.2916 17.1299H62.2236V19.1948H64.2916V17.1299Z" fill="#E5E3E5"/>
<path d="M64.2916 19.1948H62.2236V21.2598H64.2916V19.1948Z" fill="#E5E3E5"/>
<path d="M64.2916 21.2598H62.2236V23.3247H64.2916V21.2598Z" fill="#E5E3E5"/>
<path d="M64.2916 23.3246H62.2236V25.3895H64.2916V23.3246Z" fill="#E5E3E5"/>
<path d="M64.2916 25.3895H62.2236V27.4545H64.2916V25.3895Z" fill="#E5E3E5"/>
<path d="M64.2916 27.4545H62.2236V29.5194H64.2916V27.4545Z" fill="#E5E3E5"/>
<path d="M64.2916 29.5194H62.2236V31.5843H64.2916V29.5194Z" fill="#E5E3E5"/>
<path d="M64.2916 31.5844H62.2236V33.6493H64.2916V31.5844Z" fill="#E5E3E5"/>
<path d="M64.2916 33.6492H62.2236V35.7141H64.2916V33.6492Z" fill="#E5E3E5"/>
<path d="M64.2916 35.7142H62.2236V37.7792H64.2916V35.7142Z" fill="#E5E3E5"/>
<path d="M64.2916 37.7792H62.2236V39.8441H64.2916V37.7792Z" fill="#E5E3E5"/>
<path d="M64.2916 39.844H62.2236V41.9089H64.2916V39.844Z" fill="#E5E3E5"/>
<path d="M64.2916 41.9089H62.2236V43.9739H64.2916V41.9089Z" fill="#E5E3E5"/>
<path d="M64.2916 43.9739H62.2236V46.0388H64.2916V43.9739Z" fill="#E5E3E5"/>
<path d="M64.2916 46.0388H62.2236V48.1037H64.2916V46.0388Z" fill="#E5E3E5"/>
<path d="M64.2916 48.1038H62.2236V50.1687H64.2916V48.1038Z" fill="#E5E3E5"/>
<path d="M64.2916 50.1626H62.2236V52.2275H64.2916V50.1626Z" fill="#E5E3E5"/>
<path d="M64.2916 52.2277H62.2236V54.2926H64.2916V52.2277Z" fill="#E5E3E5"/>
<path d="M64.2916 54.2925H62.2236V56.3574H64.2916V54.2925Z" fill="#E5E3E5"/>
<path d="M64.2916 56.3574H62.2236V58.4224H64.2916V56.3574Z" fill="#E5E3E5"/>
<path d="M64.2916 58.4224H62.2236V60.4873H64.2916V58.4224Z" fill="#E5E3E5"/>
<path d="M64.2916 60.4873H62.2236V62.5522H64.2916V60.4873Z" fill="#E5E3E5"/>
<path d="M64.2916 62.5522H62.2236V64.6172H64.2916V62.5522Z" fill="#E5E3E5"/>
<path d="M64.2916 64.6172H62.2236V66.6821H64.2916V64.6172Z" fill="#E5E3E5"/>
<path d="M64.2916 66.6821H62.2236V68.7471H64.2916V66.6821Z" fill="#E5E3E5"/>
<path d="M64.2916 68.7471H62.2236V70.812H64.2916V68.7471Z" fill="#E5E3E5"/>
<path d="M64.2916 70.812H62.2236V72.8769H64.2916V70.812Z" fill="black"/>
<path d="M62.2237 13H60.1558V15.0649H62.2237V13Z" fill="black"/>
<path d="M62.2237 15.0649H60.1558V17.1299H62.2237V15.0649Z" fill="#333333"/>
<path d="M62.2237 17.1299H60.1558V19.1948H62.2237V17.1299Z" fill="#333333"/>
<path d="M62.2237 19.1948H60.1558V21.2598H62.2237V19.1948Z" fill="#333333"/>
<path d="M62.2237 21.2598H60.1558V23.3247H62.2237V21.2598Z" fill="#333333"/>
<path d="M62.2237 23.3246H60.1558V25.3895H62.2237V23.3246Z" fill="#333333"/>
<path d="M62.2237 25.3895H60.1558V27.4545H62.2237V25.3895Z" fill="#333333"/>
<path d="M62.2237 27.4545H60.1558V29.5194H62.2237V27.4545Z" fill="#333333"/>
<path d="M62.2237 29.5194H60.1558V31.5843H62.2237V29.5194Z" fill="#333333"/>
<path d="M62.2237 31.5844H60.1558V33.6493H62.2237V31.5844Z" fill="#333333"/>
<path d="M62.2237 33.6492H60.1558V35.7141H62.2237V33.6492Z" fill="#333333"/>
<path d="M62.2237 35.7142H60.1558V37.7792H62.2237V35.7142Z" fill="#333333"/>
<path d="M62.2237 37.7792H60.1558V39.8441H62.2237V37.7792Z" fill="#333333"/>
<path d="M62.2237 39.844H60.1558V41.9089H62.2237V39.844Z" fill="#333333"/>
<path d="M62.2237 41.9089H60.1558V43.9739H62.2237V41.9089Z" fill="#333333"/>
<path d="M62.2237 43.9739H60.1558V46.0388H62.2237V43.9739Z" fill="#333333"/>
<path d="M62.2237 46.0388H60.1558V48.1037H62.2237V46.0388Z" fill="#333333"/>
<path d="M62.2237 48.1038H60.1558V50.1687H62.2237V48.1038Z" fill="#333333"/>
<path d="M62.2237 50.1626H60.1558V52.2275H62.2237V50.1626Z" fill="#333333"/>
<path d="M62.2237 52.2277H60.1558V54.2926H62.2237V52.2277Z" fill="#333333"/>
<path d="M62.2237 54.2925H60.1558V56.3574H62.2237V54.2925Z" fill="#333333"/>
<path d="M62.2237 56.3574H60.1558V58.4224H62.2237V56.3574Z" fill="#333333"/>
<path d="M62.2237 58.4224H60.1558V60.4873H62.2237V58.4224Z" fill="#333333"/>
<path d="M62.2237 60.4873H60.1558V62.5522H62.2237V60.4873Z" fill="#333333"/>
<path d="M62.2237 62.5522H60.1558V64.6172H62.2237V62.5522Z" fill="#333333"/>
<path d="M62.2237 64.6172H60.1558V66.6821H62.2237V64.6172Z" fill="#333333"/>
<path d="M62.2237 66.6821H60.1558V68.7471H62.2237V66.6821Z" fill="#333333"/>
<path d="M62.2237 68.7471H60.1558V70.812H62.2237V68.7471Z" fill="#333333"/>
<path d="M62.2237 70.812H60.1558V72.8769H62.2237V70.812Z" fill="#E5E3E5"/>
<path d="M62.2237 72.8768H60.1558V74.9418H62.2237V72.8768Z" fill="black"/>
<path d="M60.1559 13H58.0879V15.0649H60.1559V13Z" fill="black"/>
<path d="M60.1559 15.0649H58.0879V17.1299H60.1559V15.0649Z" fill="#333333"/>
<path d="M60.1559 17.1299H58.0879V19.1948H60.1559V17.1299Z" fill="#333333"/>
<path d="M60.1559 19.1948H58.0879V21.2598H60.1559V19.1948Z" fill="#333333"/>
<path d="M60.1559 21.2598H58.0879V23.3247H60.1559V21.2598Z" fill="#333333"/>
<path d="M60.1559 23.3246H58.0879V25.3895H60.1559V23.3246Z" fill="#333333"/>
<path d="M60.1559 25.3895H58.0879V27.4545H60.1559V25.3895Z" fill="#161616"/>
<path d="M60.1559 27.4545H58.0879V29.5194H60.1559V27.4545Z" fill="#161616"/>
<path d="M60.1559 29.5194H58.0879V31.5843H60.1559V29.5194Z" fill="#161616"/>
<path d="M60.1559 31.5844H58.0879V33.6493H60.1559V31.5844Z" fill="#161616"/>
<path d="M60.1559 33.6492H58.0879V35.7141H60.1559V33.6492Z" fill="#161616"/>
<path d="M60.1559 35.7142H58.0879V37.7792H60.1559V35.7142Z" fill="#161616"/>
<path d="M60.1559 37.7792H58.0879V39.8441H60.1559V37.7792Z" fill="#161616"/>
<path d="M60.1559 39.844H58.0879V41.9089H60.1559V39.844Z" fill="#161616"/>
<path d="M60.1559 41.9089H58.0879V43.9739H60.1559V41.9089Z" fill="#161616"/>
<path d="M60.1559 43.9739H58.0879V46.0388H60.1559V43.9739Z" fill="#161616"/>
<path d="M60.1559 46.0388H58.0879V48.1037H60.1559V46.0388Z" fill="#161616"/>
<path d="M60.1559 48.1038H58.0879V50.1687H60.1559V48.1038Z" fill="#161616"/>
<path d="M60.1559 50.1626H58.0879V52.2275H60.1559V50.1626Z" fill="#161616"/>
<path d="M60.1559 52.2277H58.0879V54.2926H60.1559V52.2277Z" fill="#161616"/>
<path d="M60.1559 54.2925H58.0879V56.3574H60.1559V54.2925Z" fill="#161616"/>
<path d="M60.1559 56.3574H58.0879V58.4224H60.1559V56.3574Z" fill="#161616"/>
<path d="M60.1559 58.4224H58.0879V60.4873H60.1559V58.4224Z" fill="#161616"/>
<path d="M60.1559 60.4873H58.0879V62.5522H60.1559V60.4873Z" fill="#161616"/>
<path d="M60.1559 62.5522H58.0879V64.6172H60.1559V62.5522Z" fill="#333333"/>
<path d="M60.1559 64.6172H58.0879V66.6821H60.1559V64.6172Z" fill="#333333"/>
<path d="M60.1559 66.6821H58.0879V68.7471H60.1559V66.6821Z" fill="#333333"/>
<path d="M60.1559 68.7471H58.0879V70.812H60.1559V68.7471Z" fill="#333333"/>
<path d="M60.1559 70.812H58.0879V72.8769H60.1559V70.812Z" fill="#333333"/>
<path d="M60.1559 72.8768H58.0879V74.9418H60.1559V72.8768Z" fill="#E5E3E5"/>
<path d="M60.1559 74.9418H58.0879V77.0067H60.1559V74.9418Z" fill="black"/>
<path d="M58.0875 13H56.0195V15.0649H58.0875V13Z" fill="black"/>
<path d="M58.0875 15.0649H56.0195V17.1299H58.0875V15.0649Z" fill="#333333"/>
<path d="M58.0875 17.1299H56.0195V19.1948H58.0875V17.1299Z" fill="#494949"/>
<path d="M58.0875 19.1948H56.0195V21.2598H58.0875V19.1948Z" fill="#333333"/>
<path d="M58.0875 21.2598H56.0195V23.3247H58.0875V21.2598Z" fill="#333333"/>
<path d="M58.0875 23.3246H56.0195V25.3895H58.0875V23.3246Z" fill="#161616"/>
<path d="M58.0875 25.3895H56.0195V27.4545H58.0875V25.3895Z" fill="#99DBFF"/>
<path d="M58.0875 27.4545H56.0195V29.5194H58.0875V27.4545Z" fill="#99DBFF"/>
<path d="M58.0875 29.5194H56.0195V31.5843H58.0875V29.5194Z" fill="#99DBFF"/>
<path d="M58.0875 31.5844H56.0195V33.6493H58.0875V31.5844Z" fill="#99DBFF"/>
<path d="M58.088 33.6492H56.02V35.7141H58.088V33.6492Z" fill="#99DBFF"/>
<path d="M58.0875 35.7142H56.0195V37.7792H58.0875V35.7142Z" fill="#99DBFF"/>
<path d="M58.0875 37.7792H56.0195V39.8441H58.0875V37.7792Z" fill="#99DBFF"/>
<path d="M58.0875 39.844H56.0195V41.9089H58.0875V39.844Z" fill="#99DBFF"/>
<path d="M58.0875 41.9089H56.0195V43.9739H58.0875V41.9089Z" fill="#99DBFF"/>
<path d="M58.0875 43.9739H56.0195V46.0388H58.0875V43.9739Z" fill="#99DBFF"/>
<path d="M58.0875 46.0388H56.0195V48.1037H58.0875V46.0388Z" fill="#99DBFF"/>
<path d="M58.0875 48.1038H56.0195V50.1687H58.0875V48.1038Z" fill="#99DBFF"/>
<path d="M58.088 50.1626H56.02V52.2275H58.088V50.1626Z" fill="#99DBFF"/>
<path d="M58.0875 52.2336H56.0195V54.2986H58.0875V52.2336Z" fill="#99DBFF"/>
<path d="M58.0875 54.2925H56.0195V56.3574H58.0875V54.2925Z" fill="#99DBFF"/>
<path d="M58.0875 56.3574H56.0195V58.4224H58.0875V56.3574Z" fill="#99DBFF"/>
<path d="M58.0875 58.4224H56.0195V60.4873H58.0875V58.4224Z" fill="#99DBFF"/>
<path d="M58.0875 60.4873H56.0195V62.5522H58.0875V60.4873Z" fill="#99DBFF"/>
<path d="M58.0875 62.5522H56.0195V64.6172H58.0875V62.5522Z" fill="#161616"/>
<path d="M58.0875 64.6172H56.0195V66.6821H58.0875V64.6172Z" fill="#333333"/>
<path d="M58.0875 66.6821H56.0195V68.7471H58.0875V66.6821Z" fill="#333333"/>
<path d="M58.0875 68.7471H56.0195V70.812H58.0875V68.7471Z" fill="#333333"/>
<path d="M58.088 70.812H56.02V72.8769H58.088V70.812Z" fill="#333333"/>
<path d="M58.0875 72.8768H56.0195V74.9418H58.0875V72.8768Z" fill="#E5E3E5"/>
<path d="M58.0875 74.9418H56.0195V77.0067H58.0875V74.9418Z" fill="black"/>
<path d="M56.0196 13H53.9517V15.0649H56.0196V13Z" fill="black"/>
<path d="M56.0196 15.0649H53.9517V17.1299H56.0196V15.0649Z" fill="#333333"/>
<path d="M56.0196 17.1299H53.9517V19.1948H56.0196V17.1299Z" fill="#333333"/>
<path d="M56.0196 19.1948H53.9517V21.2598H56.0196V19.1948Z" fill="#333333"/>
<path d="M56.0196 21.2598H53.9517V23.3247H56.0196V21.2598Z" fill="#333333"/>
<path d="M56.0196 23.3246H53.9517V25.3895H56.0196V23.3246Z" fill="#161616"/>
<path d="M56.0196 25.3895H53.9517V27.4545H56.0196V25.3895Z" fill="#C0E7F9"/>
<path d="M56.0196 27.4545H53.9517V29.5194H56.0196V27.4545Z" fill="#99DBFF"/>
<path d="M56.0196 29.5194H53.9517V31.5843H56.0196V29.5194Z" fill="#99DBFF"/>
<path d="M56.0196 31.5844H53.9517V33.6493H56.0196V31.5844Z" fill="#99DBFF"/>
<path d="M56.0196 33.6492H53.9517V35.7141H56.0196V33.6492Z" fill="#99DBFF"/>
<path d="M56.0196 35.7142H53.9517V37.7792H56.0196V35.7142Z" fill="#99DBFF"/>
<path d="M56.0196 37.7792H53.9517V39.8441H56.0196V37.7792Z" fill="#99DBFF"/>
<path d="M56.0196 39.844H53.9517V41.9089H56.0196V39.844Z" fill="#99DBFF"/>
<path d="M56.0196 41.9089H53.9517V43.9739H56.0196V41.9089Z" fill="#99DBFF"/>
<path d="M56.0196 43.9739H53.9517V46.0388H56.0196V43.9739Z" fill="#99DBFF"/>
<path d="M56.0196 46.0388H53.9517V48.1037H56.0196V46.0388Z" fill="#99DBFF"/>
<path d="M56.0196 48.1038H53.9517V50.1687H56.0196V48.1038Z" fill="#99DBFF"/>
<path d="M56.0196 50.1626H53.9517V52.2275H56.0196V50.1626Z" fill="#99DBFF"/>
<path d="M56.0196 52.2336H53.9517V54.2986H56.0196V52.2336Z" fill="#99DBFF"/>
<path d="M56.0196 54.2925H53.9517V56.3574H56.0196V54.2925Z" fill="#99DBFF"/>
<path d="M56.0196 56.3574H53.9517V58.4224H56.0196V56.3574Z" fill="#99DBFF"/>
<path d="M56.0196 58.4224H53.9517V60.4873H56.0196V58.4224Z" fill="#99DBFF"/>
<path d="M56.0196 60.4873H53.9517V62.5522H56.0196V60.4873Z" fill="#99DBFF"/>
<path d="M56.0196 62.5522H53.9517V64.6172H56.0196V62.5522Z" fill="#161616"/>
<path d="M56.0196 64.6172H53.9517V66.6821H56.0196V64.6172Z" fill="#333333"/>
<path d="M56.0196 66.6821H53.9517V68.7471H56.0196V66.6821Z" fill="#333333"/>
<path d="M56.0196 68.7471H53.9517V70.812H56.0196V68.7471Z" fill="#333333"/>
<path d="M56.0196 70.812H53.9517V72.8769H56.0196V70.812Z" fill="#333333"/>
<path d="M56.0196 72.8768H53.9517V74.9418H56.0196V72.8768Z" fill="#E5E3E5"/>
<path d="M56.0196 74.9418H53.9517V77.0067H56.0196V74.9418Z" fill="black"/>
<path d="M53.9518 13H51.8838V15.0649H53.9518V13Z" fill="black"/>
<path d="M53.9518 15.0649H51.8838V17.1299H53.9518V15.0649Z" fill="#333333"/>
<path d="M53.9518 17.1299H51.8838V19.1948H53.9518V17.1299Z" fill="#494949"/>
<path d="M53.9518 19.1948H51.8838V21.2598H53.9518V19.1948Z" fill="#333333"/>
<path d="M53.9518 21.2598H51.8838V23.3247H53.9518V21.2598Z" fill="#333333"/>
<path d="M53.9518 23.3246H51.8838V25.3895H53.9518V23.3246Z" fill="#161616"/>
<path d="M53.9518 25.3895H51.8838V27.4545H53.9518V25.3895Z" fill="#C0E7F9"/>
<path d="M53.9518 27.4545H51.8838V29.5194H53.9518V27.4545Z" fill="#C0E7F9"/>
<path d="M53.9518 29.5194H51.8838V31.5843H53.9518V29.5194Z" fill="#99DBFF"/>
<path d="M53.9518 31.5844H51.8838V33.6493H53.9518V31.5844Z" fill="#99DBFF"/>
<path d="M53.9518 33.6492H51.8838V35.7141H53.9518V33.6492Z" fill="#99DBFF"/>
<path d="M53.9518 35.7142H51.8838V37.7792H53.9518V35.7142Z" fill="#99DBFF"/>
<path d="M53.9518 37.7792H51.8838V39.8441H53.9518V37.7792Z" fill="#99DBFF"/>
<path d="M53.9518 39.844H51.8838V41.9089H53.9518V39.844Z" fill="#99DBFF"/>
<path d="M53.9518 41.9089H51.8838V43.9739H53.9518V41.9089Z" fill="#99DBFF"/>
<path d="M53.9518 43.9739H51.8838V46.0388H53.9518V43.9739Z" fill="#99DBFF"/>
<path d="M53.9518 46.0388H51.8838V48.1037H53.9518V46.0388Z" fill="#99DBFF"/>
<path d="M53.9518 48.1038H51.8838V50.1687H53.9518V48.1038Z" fill="#99DBFF"/>
<path d="M53.9518 50.1626H51.8838V52.2275H53.9518V50.1626Z" fill="#99DBFF"/>
<path d="M53.9518 52.2336H51.8838V54.2986H53.9518V52.2336Z" fill="#99DBFF"/>
<path d="M53.9518 54.2925H51.8838V56.3574H53.9518V54.2925Z" fill="#99DBFF"/>
<path d="M53.9518 56.3574H51.8838V58.4224H53.9518V56.3574Z" fill="#99DBFF"/>
<path d="M53.9518 58.4224H51.8838V60.4873H53.9518V58.4224Z" fill="#99DBFF"/>
<path d="M53.9518 60.4873H51.8838V62.5522H53.9518V60.4873Z" fill="#99DBFF"/>
<path d="M53.9518 62.5522H51.8838V64.6172H53.9518V62.5522Z" fill="#161616"/>
<path d="M53.9518 64.6172H51.8838V66.6821H53.9518V64.6172Z" fill="#333333"/>
<path d="M53.9518 66.6821H51.8838V68.7471H53.9518V66.6821Z" fill="#161616"/>
<path d="M53.9518 68.7471H51.8838V70.812H53.9518V68.7471Z" fill="#161616"/>
<path d="M53.9518 70.812H51.8838V72.8769H53.9518V70.812Z" fill="#333333"/>
<path d="M53.9518 72.8768H51.8838V74.9418H53.9518V72.8768Z" fill="#333333"/>
<path d="M53.9518 74.9418H51.8838V77.0067H53.9518V74.9418Z" fill="black"/>
<path d="M51.8839 13H49.8159V15.0649H51.8839V13Z" fill="black"/>
<path d="M51.8839 15.0649H49.8159V17.1299H51.8839V15.0649Z" fill="#333333"/>
<path d="M51.8839 17.1299H49.8159V19.1948H51.8839V17.1299Z" fill="#494949"/>
<path d="M51.8839 19.1948H49.8159V21.2598H51.8839V19.1948Z" fill="#333333"/>
<path d="M51.8839 21.2598H49.8159V23.3247H51.8839V21.2598Z" fill="#333333"/>
<path d="M51.8839 23.3246H49.8159V25.3895H51.8839V23.3246Z" fill="#161616"/>
<path d="M51.8839 25.3895H49.8159V27.4545H51.8839V25.3895Z" fill="#C0E7F9"/>
<path d="M51.8839 27.4545H49.8159V29.5194H51.8839V27.4545Z" fill="#C0E7F9"/>
<path d="M51.8839 29.5194H49.8159V31.5843H51.8839V29.5194Z" fill="#C0E7F9"/>
<path d="M51.8839 31.5844H49.8159V33.6493H51.8839V31.5844Z" fill="#C0E7F9"/>
<path d="M51.8839 33.6492H49.8159V35.7141H51.8839V33.6492Z" fill="#99DBFF"/>
<path d="M51.8839 35.7142H49.8159V37.7792H51.8839V35.7142Z" fill="#99DBFF"/>
<path d="M51.8839 37.7792H49.8159V39.8441H51.8839V37.7792Z" fill="#99DBFF"/>
<path d="M51.8839 39.844H49.8159V41.9089H51.8839V39.844Z" fill="#99DBFF"/>
<path d="M51.8839 41.9089H49.8159V43.9739H51.8839V41.9089Z" fill="#99DBFF"/>
<path d="M51.8839 43.9739H49.8159V46.0388H51.8839V43.9739Z" fill="#99DBFF"/>
<path d="M51.8839 46.0388H49.8159V48.1037H51.8839V46.0388Z" fill="#99DBFF"/>
<path d="M51.8839 48.1038H49.8159V50.1687H51.8839V48.1038Z" fill="#99DBFF"/>
<path d="M51.8839 50.1626H49.8159V52.2275H51.8839V50.1626Z" fill="#99DBFF"/>
<path d="M51.8839 52.2336H49.8159V54.2986H51.8839V52.2336Z" fill="#99DBFF"/>
<path d="M51.8839 54.2925H49.8159V56.3574H51.8839V54.2925Z" fill="#99DBFF"/>
<path d="M51.8839 56.3574H49.8159V58.4224H51.8839V56.3574Z" fill="#99DBFF"/>
<path d="M51.8839 58.4224H49.8159V60.4873H51.8839V58.4224Z" fill="#99DBFF"/>
<path d="M51.8839 60.4873H49.8159V62.5522H51.8839V60.4873Z" fill="#99DBFF"/>
<path d="M51.8839 62.5522H49.8159V64.6172H51.8839V62.5522Z" fill="#161616"/>
<path d="M51.8839 64.6172H49.8159V66.6821H51.8839V64.6172Z" fill="#333333"/>
<path d="M51.8839 66.6821H49.8159V68.7471H51.8839V66.6821Z" fill="#161616"/>
<path d="M51.8839 68.7471H49.8159V70.812H51.8839V68.7471Z" fill="#E5E3E5"/>
<path d="M51.8839 70.812H49.8159V72.8769H51.8839V70.812Z" fill="#161616"/>
<path d="M51.8839 72.8768H49.8159V74.9418H51.8839V72.8768Z" fill="#333333"/>
<path d="M51.8839 74.9418H49.8159V77.0067H51.8839V74.9418Z" fill="black"/>
<path d="M49.816 13H47.748V15.0649H49.816V13Z" fill="black"/>
<path d="M49.816 15.0649H47.748V17.1299H49.816V15.0649Z" fill="#333333"/>
<path d="M49.816 17.1299H47.748V19.1948H49.816V17.1299Z" fill="#494949"/>
<path d="M49.816 19.1948H47.748V21.2598H49.816V19.1948Z" fill="#333333"/>
<path d="M49.816 21.2598H47.748V23.3247H49.816V21.2598Z" fill="#333333"/>
<path d="M49.816 23.3246H47.748V25.3895H49.816V23.3246Z" fill="#161616"/>
<path d="M49.816 25.3895H47.748V27.4545H49.816V25.3895Z" fill="#C0E7F9"/>
<path d="M49.816 27.4545H47.748V29.5194H49.816V27.4545Z" fill="#C0E7F9"/>
<path d="M49.816 29.5194H47.748V31.5843H49.816V29.5194Z" fill="#C0E7F9"/>
<path d="M49.816 31.5844H47.748V33.6493H49.816V31.5844Z" fill="#C0E7F9"/>
<path d="M49.816 33.6492H47.748V35.7141H49.816V33.6492Z" fill="#C0E7F9"/>
<path d="M49.816 35.7142H47.748V37.7792H49.816V35.7142Z" fill="#C0E7F9"/>
<path d="M49.816 37.7792H47.748V39.8441H49.816V37.7792Z" fill="#99DBFF"/>
<path d="M49.816 39.844H47.748V41.9089H49.816V39.844Z" fill="#99DBFF"/>
<path d="M49.816 41.9089H47.748V43.9739H49.816V41.9089Z" fill="#99DBFF"/>
<path d="M49.816 43.9739H47.748V46.0388H49.816V43.9739Z" fill="#99DBFF"/>
<path d="M49.816 46.0388H47.748V48.1037H49.816V46.0388Z" fill="#99DBFF"/>
<path d="M49.816 48.1038H47.748V50.1687H49.816V48.1038Z" fill="#99DBFF"/>
<path d="M49.816 50.1626H47.748V52.2275H49.816V50.1626Z" fill="#99DBFF"/>
<path d="M49.816 52.2336H47.748V54.2986H49.816V52.2336Z" fill="#99DBFF"/>
<path d="M49.816 54.2925H47.748V56.3574H49.816V54.2925Z" fill="#99DBFF"/>
<path d="M49.816 56.3574H47.748V58.4224H49.816V56.3574Z" fill="#99DBFF"/>
<path d="M49.816 58.4224H47.748V60.4873H49.816V58.4224Z" fill="#99DBFF"/>
<path d="M49.816 60.4873H47.748V62.5522H49.816V60.4873Z" fill="#99DBFF"/>
<path d="M49.816 62.5522H47.748V64.6172H49.816V62.5522Z" fill="#161616"/>
<path d="M49.816 64.6172H47.748V66.6821H49.816V64.6172Z" fill="#333333"/>
<path d="M49.816 66.6821H47.748V68.7471H49.816V66.6821Z" fill="#161616"/>
<path d="M49.816 68.7471H47.748V70.812H49.816V68.7471Z" fill="#E5E3E5"/>
<path d="M49.816 70.812H47.748V72.8769H49.816V70.812Z" fill="#161616"/>
<path d="M49.816 72.8768H47.748V74.9418H49.816V72.8768Z" fill="#333333"/>
<path d="M49.816 74.9418H47.748V77.0067H49.816V74.9418Z" fill="black"/>
<path d="M47.7477 13H45.6797V15.0649H47.7477V13Z" fill="black"/>
<path d="M47.7477 15.0649H45.6797V17.1299H47.7477V15.0649Z" fill="#333333"/>
<path d="M47.7477 17.1299H45.6797V19.1948H47.7477V17.1299Z" fill="#494949"/>
<path d="M47.7477 19.1948H45.6797V21.2598H47.7477V19.1948Z" fill="#333333"/>
<path d="M47.7477 21.2598H45.6797V23.3247H47.7477V21.2598Z" fill="#333333"/>
<path d="M47.7477 23.3246H45.6797V25.3895H47.7477V23.3246Z" fill="#161616"/>
<path d="M47.7477 25.3895H45.6797V27.4545H47.7477V25.3895Z" fill="#C0E7F9"/>
<path d="M47.7477 27.4545H45.6797V29.5194H47.7477V27.4545Z" fill="#C0E7F9"/>
<path d="M47.7477 29.5194H45.6797V31.5843H47.7477V29.5194Z" fill="#C0E7F9"/>
<path d="M47.7477 31.5844H45.6797V33.6493H47.7477V31.5844Z" fill="#C0E7F9"/>
<path d="M47.7477 33.6492H45.6797V35.7141H47.7477V33.6492Z" fill="#C0E7F9"/>
<path d="M47.7477 35.7142H45.6797V37.7792H47.7477V35.7142Z" fill="#C0E7F9"/>
<path d="M47.7477 37.7792H45.6797V39.8441H47.7477V37.7792Z" fill="#C0E7F9"/>
<path d="M47.7477 39.844H45.6797V41.9089H47.7477V39.844Z" fill="#C0E7F9"/>
<path d="M47.7477 41.9089H45.6797V43.9739H47.7477V41.9089Z" fill="#99DBFF"/>
<path d="M47.7477 43.9739H45.6797V46.0388H47.7477V43.9739Z" fill="#99DBFF"/>
<path d="M47.7477 46.0388H45.6797V48.1037H47.7477V46.0388Z" fill="#99DBFF"/>
<path d="M47.7477 48.1038H45.6797V50.1687H47.7477V48.1038Z" fill="#99DBFF"/>
<path d="M47.7477 50.1626H45.6797V52.2275H47.7477V50.1626Z" fill="#99DBFF"/>
<path d="M47.7477 52.2336H45.6797V54.2986H47.7477V52.2336Z" fill="#99DBFF"/>
<path d="M47.7477 54.2925H45.6797V56.3574H47.7477V54.2925Z" fill="#99DBFF"/>
<path d="M47.7477 56.3574H45.6797V58.4224H47.7477V56.3574Z" fill="#99DBFF"/>
<path d="M47.7477 58.4224H45.6797V60.4873H47.7477V58.4224Z" fill="#99DBFF"/>
<path d="M47.7477 60.4873H45.6797V62.5522H47.7477V60.4873Z" fill="#99DBFF"/>
<path d="M47.7477 62.5522H45.6797V64.6172H47.7477V62.5522Z" fill="#161616"/>
<path d="M47.7477 64.6172H45.6797V66.6821H47.7477V64.6172Z" fill="#333333"/>
<path d="M47.7477 66.6821H45.6797V68.7471H47.7477V66.6821Z" fill="#161616"/>
<path d="M47.7477 68.7471H45.6797V70.812H47.7477V68.7471Z" fill="#333333"/>
<path d="M47.7477 70.812H45.6797V72.8769H47.7477V70.812Z" fill="#161616"/>
<path d="M47.7477 72.8768H45.6797V74.9418H47.7477V72.8768Z" fill="#333333"/>
<path d="M47.7477 74.9418H45.6797V77.0067H47.7477V74.9418Z" fill="black"/>
<path d="M45.6798 13H43.6118V15.0649H45.6798V13Z" fill="black"/>
<path d="M45.6798 15.0649H43.6118V17.1299H45.6798V15.0649Z" fill="#333333"/>
<path d="M45.6798 17.1299H43.6118V19.1948H45.6798V17.1299Z" fill="#494949"/>
<path d="M45.6798 19.1948H43.6118V21.2598H45.6798V19.1948Z" fill="#333333"/>
<path d="M45.6798 21.2598H43.6118V23.3247H45.6798V21.2598Z" fill="#333333"/>
<path d="M45.6798 23.3246H43.6118V25.3895H45.6798V23.3246Z" fill="#161616"/>
<path d="M45.6798 25.3895H43.6118V27.4545H45.6798V25.3895Z" fill="#C0E7F9"/>
<path d="M45.6798 27.4545H43.6118V29.5194H45.6798V27.4545Z" fill="#C0E7F9"/>
<path d="M45.6798 29.5194H43.6118V31.5843H45.6798V29.5194Z" fill="#C0E7F9"/>
<path d="M45.6798 31.5844H43.6118V33.6493H45.6798V31.5844Z" fill="#C0E7F9"/>
<path d="M45.6798 33.6492H43.6118V35.7141H45.6798V33.6492Z" fill="#C0E7F9"/>
<path d="M45.6798 35.7142H43.6118V37.7792H45.6798V35.7142Z" fill="#C0E7F9"/>
<path d="M45.6798 37.7792H43.6118V39.8441H45.6798V37.7792Z" fill="#C0E7F9"/>
<path d="M45.6798 39.844H43.6118V41.9089H45.6798V39.844Z" fill="#C0E7F9"/>
<path d="M45.6798 41.9089H43.6118V43.9739H45.6798V41.9089Z" fill="#C0E7F9"/>
<path d="M45.6798 43.9739H43.6118V46.0388H45.6798V43.9739Z" fill="#C0E7F9"/>
<path d="M45.6798 46.0388H43.6118V48.1037H45.6798V46.0388Z" fill="#99DBFF"/>
<path d="M45.6798 48.1038H43.6118V50.1687H45.6798V48.1038Z" fill="#99DBFF"/>
<path d="M45.6798 50.1626H43.6118V52.2275H45.6798V50.1626Z" fill="#99DBFF"/>
<path d="M45.6798 52.2336H43.6118V54.2986H45.6798V52.2336Z" fill="#99DBFF"/>
<path d="M45.6798 54.2925H43.6118V56.3574H45.6798V54.2925Z" fill="#99DBFF"/>
<path d="M45.6798 56.3574H43.6118V58.4224H45.6798V56.3574Z" fill="#99DBFF"/>
<path d="M45.6798 58.4224H43.6118V60.4873H45.6798V58.4224Z" fill="#99DBFF"/>
<path d="M45.6798 60.4873H43.6118V62.5522H45.6798V60.4873Z" fill="#99DBFF"/>
<path d="M45.6798 62.5522H43.6118V64.6172H45.6798V62.5522Z" fill="#161616"/>
<path d="M45.6798 64.6172H43.6118V66.6821H45.6798V64.6172Z" fill="#333333"/>
<path d="M45.6798 66.6821H43.6118V68.7471H45.6798V66.6821Z" fill="#161616"/>
<path d="M45.6798 68.7471H43.6118V70.812H45.6798V68.7471Z" fill="#333333"/>
<path d="M45.6798 70.812H43.6118V72.8769H45.6798V70.812Z" fill="#161616"/>
<path d="M45.6798 72.8768H43.6118V74.9418H45.6798V72.8768Z" fill="#333333"/>
<path d="M45.6798 74.9418H43.6118V77.0067H45.6798V74.9418Z" fill="black"/>
<path d="M43.6119 13H41.5439V15.0649H43.6119V13Z" fill="black"/>
<path d="M43.6119 15.0649H41.5439V17.1299H43.6119V15.0649Z" fill="#333333"/>
<path d="M43.6119 17.1299H41.5439V19.1948H43.6119V17.1299Z" fill="#494949"/>
<path d="M43.6119 19.1948H41.5439V21.2598H43.6119V19.1948Z" fill="#333333"/>
<path d="M43.6119 21.2598H41.5439V23.3247H43.6119V21.2598Z" fill="#333333"/>
<path d="M43.6119 23.3246H41.5439V25.3895H43.6119V23.3246Z" fill="#161616"/>
<path d="M43.6119 25.3895H41.5439V27.4545H43.6119V25.3895Z" fill="#C0E7F9"/>
<path d="M43.6119 27.4545H41.5439V29.5194H43.6119V27.4545Z" fill="#C0E7F9"/>
<path d="M43.6119 29.5194H41.5439V31.5843H43.6119V29.5194Z" fill="#C0E7F9"/>
<path d="M43.6119 31.5844H41.5439V33.6493H43.6119V31.5844Z" fill="#C0E7F9"/>
<path d="M43.6119 33.6492H41.5439V35.7141H43.6119V33.6492Z" fill="#C0E7F9"/>
<path d="M43.6119 35.7142H41.5439V37.7792H43.6119V35.7142Z" fill="#C0E7F9"/>
<path d="M43.6119 37.7792H41.5439V39.8441H43.6119V37.7792Z" fill="#C0E7F9"/>
<path d="M43.6119 39.844H41.5439V41.9089H43.6119V39.844Z" fill="#C0E7F9"/>
<path d="M43.6119 41.9089H41.5439V43.9739H43.6119V41.9089Z" fill="#C0E7F9"/>
<path d="M43.6119 43.9739H41.5439V46.0388H43.6119V43.9739Z" fill="#C0E7F9"/>
<path d="M43.6119 46.0388H41.5439V48.1037H43.6119V46.0388Z" fill="#C0E7F9"/>
<path d="M43.6119 48.1038H41.5439V50.1687H43.6119V48.1038Z" fill="#C0E7F9"/>
<path d="M43.6119 50.1626H41.5439V52.2275H43.6119V50.1626Z" fill="#C0E7F9"/>
<path d="M43.6119 52.2336H41.5439V54.2986H43.6119V52.2336Z" fill="#99DBFF"/>
<path d="M43.6119 54.2925H41.5439V56.3574H43.6119V54.2925Z" fill="#99DBFF"/>
<path d="M43.6119 56.3574H41.5439V58.4224H43.6119V56.3574Z" fill="#99DBFF"/>
<path d="M43.6119 58.4224H41.5439V60.4873H43.6119V58.4224Z" fill="#99DBFF"/>
<path d="M43.6119 60.4873H41.5439V62.5522H43.6119V60.4873Z" fill="#99DBFF"/>
<path d="M43.6119 62.5522H41.5439V64.6172H43.6119V62.5522Z" fill="#161616"/>
<path d="M43.6119 64.6172H41.5439V66.6821H43.6119V64.6172Z" fill="#333333"/>
<path d="M43.6119 66.6821H41.5439V68.7471H43.6119V66.6821Z" fill="#161616"/>
<path d="M43.6119 68.7471H41.5439V70.812H43.6119V68.7471Z" fill="#333333"/>
<path d="M43.6119 70.812H41.5439V72.8769H43.6119V70.812Z" fill="#161616"/>
<path d="M43.6119 72.8768H41.5439V74.9418H43.6119V72.8768Z" fill="#333333"/>
<path d="M43.6119 74.9418H41.5439V77.0067H43.6119V74.9418Z" fill="black"/>
<path d="M41.5441 13H39.4761V15.0649H41.5441V13Z" fill="black"/>
<path d="M41.5441 15.0649H39.4761V17.1299H41.5441V15.0649Z" fill="#333333"/>
<path d="M41.5441 17.1299H39.4761V19.1948H41.5441V17.1299Z" fill="#494949"/>
<path d="M41.5441 19.1948H39.4761V21.2598H41.5441V19.1948Z" fill="#333333"/>
<path d="M41.5441 21.2598H39.4761V23.3247H41.5441V21.2598Z" fill="#333333"/>
<path d="M41.5441 23.3246H39.4761V25.3895H41.5441V23.3246Z" fill="#161616"/>
<path d="M41.5441 25.3895H39.4761V27.4545H41.5441V25.3895Z" fill="#C0E7F9"/>
<path d="M41.5441 27.4545H39.4761V29.5194H41.5441V27.4545Z" fill="#C0E7F9"/>
<path d="M41.5441 29.5194H39.4761V31.5843H41.5441V29.5194Z" fill="#C0E7F9"/>
<path d="M41.5441 31.5844H39.4761V33.6493H41.5441V31.5844Z" fill="#C0E7F9"/>
<path d="M41.5441 33.6492H39.4761V35.7141H41.5441V33.6492Z" fill="#C0E7F9"/>
<path d="M41.5441 35.7142H39.4761V37.7792H41.5441V35.7142Z" fill="#C0E7F9"/>
<path d="M41.5441 37.7792H39.4761V39.8441H41.5441V37.7792Z" fill="#C0E7F9"/>
<path d="M41.5441 39.844H39.4761V41.9089H41.5441V39.844Z" fill="#C0E7F9"/>
<path d="M41.5441 41.9089H39.4761V43.9739H41.5441V41.9089Z" fill="#C0E7F9"/>
<path d="M41.5441 43.9739H39.4761V46.0388H41.5441V43.9739Z" fill="#C0E7F9"/>
<path d="M41.5441 46.0388H39.4761V48.1037H41.5441V46.0388Z" fill="#C0E7F9"/>
<path d="M41.5441 48.1038H39.4761V50.1687H41.5441V48.1038Z" fill="#C0E7F9"/>
<path d="M41.5441 50.1626H39.4761V52.2275H41.5441V50.1626Z" fill="#C0E7F9"/>
<path d="M41.5441 52.2336H39.4761V54.2986H41.5441V52.2336Z" fill="#C0E7F9"/>
<path d="M41.5441 54.2925H39.4761V56.3574H41.5441V54.2925Z" fill="#99DBFF"/>
<path d="M41.5441 56.3574H39.4761V58.4224H41.5441V56.3574Z" fill="#99DBFF"/>
<path d="M41.5441 58.4224H39.4761V60.4873H41.5441V58.4224Z" fill="#99DBFF"/>
<path d="M41.5441 60.4873H39.4761V62.5522H41.5441V60.4873Z" fill="#99DBFF"/>
<path d="M41.5441 62.5522H39.4761V64.6172H41.5441V62.5522Z" fill="#161616"/>
<path d="M41.5441 64.6172H39.4761V66.6821H41.5441V64.6172Z" fill="#333333"/>
<path d="M41.5441 66.6821H39.4761V68.7471H41.5441V66.6821Z" fill="#161616"/>
<path d="M41.5441 68.7471H39.4761V70.812H41.5441V68.7471Z" fill="#333333"/>
<path d="M41.5441 70.812H39.4761V72.8769H41.5441V70.812Z" fill="#161616"/>
<path d="M41.5441 72.8768H39.4761V74.9418H41.5441V72.8768Z" fill="#333333"/>
<path d="M41.5441 74.9418H39.4761V77.0067H41.5441V74.9418Z" fill="black"/>
<path d="M39.4757 13H37.4077V15.0649H39.4757V13Z" fill="black"/>
<path d="M39.4757 15.0649H37.4077V17.1299H39.4757V15.0649Z" fill="#333333"/>
<path d="M39.4757 17.1299H37.4077V19.1948H39.4757V17.1299Z" fill="#333333"/>
<path d="M39.4757 19.1948H37.4077V21.2598H39.4757V19.1948Z" fill="#333333"/>
<path d="M39.4757 21.2598H37.4077V23.3247H39.4757V21.2598Z" fill="#333333"/>
<path d="M39.4757 23.3246H37.4077V25.3895H39.4757V23.3246Z" fill="#161616"/>
<path d="M39.4757 25.3895H37.4077V27.4545H39.4757V25.3895Z" fill="#C0E7F9"/>
<path d="M39.4757 27.4545H37.4077V29.5194H39.4757V27.4545Z" fill="#C0E7F9"/>
<path d="M39.4757 29.5194H37.4077V31.5843H39.4757V29.5194Z" fill="#C0E7F9"/>
<path d="M39.4757 31.5844H37.4077V33.6493H39.4757V31.5844Z" fill="#C0E7F9"/>
<path d="M39.4757 33.6492H37.4077V35.7141H39.4757V33.6492Z" fill="#C0E7F9"/>
<path d="M39.4757 35.7142H37.4077V37.7792H39.4757V35.7142Z" fill="#C0E7F9"/>
<path d="M39.4757 37.7792H37.4077V39.8441H39.4757V37.7792Z" fill="#C0E7F9"/>
<path d="M39.4757 39.844H37.4077V41.9089H39.4757V39.844Z" fill="#C0E7F9"/>
<path d="M39.4757 41.9089H37.4077V43.9739H39.4757V41.9089Z" fill="#C0E7F9"/>
<path d="M39.4757 43.9739H37.4077V46.0388H39.4757V43.9739Z" fill="#C0E7F9"/>
<path d="M39.4757 46.0388H37.4077V48.1037H39.4757V46.0388Z" fill="#C0E7F9"/>
<path d="M39.4757 48.1038H37.4077V50.1687H39.4757V48.1038Z" fill="#C0E7F9"/>
<path d="M39.4757 50.1626H37.4077V52.2275H39.4757V50.1626Z" fill="#C0E7F9"/>
<path d="M39.4757 52.2336H37.4077V54.2986H39.4757V52.2336Z" fill="#C0E7F9"/>
<path d="M39.4757 54.2925H37.4077V56.3574H39.4757V54.2925Z" fill="#C0E7F9"/>
<path d="M39.4757 56.3574H37.4077V58.4224H39.4757V56.3574Z" fill="#99DBFF"/>
<path d="M39.4757 58.4224H37.4077V60.4873H39.4757V58.4224Z" fill="#99DBFF"/>
<path d="M39.4757 60.4873H37.4077V62.5522H39.4757V60.4873Z" fill="#99DBFF"/>
<path d="M39.4757 62.5522H37.4077V64.6172H39.4757V62.5522Z" fill="#161616"/>
<path d="M39.4757 64.6172H37.4077V66.6821H39.4757V64.6172Z" fill="#333333"/>
<path d="M39.4757 66.6821H37.4077V68.7471H39.4757V66.6821Z" fill="#161616"/>
<path d="M39.4757 68.7471H37.4077V70.812H39.4757V68.7471Z" fill="#161616"/>
<path d="M39.4757 70.812H37.4077V72.8769H39.4757V70.812Z" fill="#333333"/>
<path d="M39.4757 72.8768H37.4077V74.9418H39.4757V72.8768Z" fill="#333333"/>
<path d="M39.4757 74.9418H37.4077V77.0067H39.4757V74.9418Z" fill="black"/>
<path d="M37.4078 13H35.3398V15.0649H37.4078V13Z" fill="black"/>
<path d="M37.4078 15.0649H35.3398V17.1299H37.4078V15.0649Z" fill="#333333"/>
<path d="M37.4078 17.1299H35.3398V19.1948H37.4078V17.1299Z" fill="#333333"/>
<path d="M37.4078 19.1948H35.3398V21.2598H37.4078V19.1948Z" fill="#333333"/>
<path d="M37.4078 21.2598H35.3398V23.3247H37.4078V21.2598Z" fill="#333333"/>
<path d="M37.4078 23.3246H35.3398V25.3895H37.4078V23.3246Z" fill="#161616"/>
<path d="M37.4078 25.3895H35.3398V27.4545H37.4078V25.3895Z" fill="#C0E7F9"/>
<path d="M37.4078 27.4545H35.3398V29.5194H37.4078V27.4545Z" fill="#C0E7F9"/>
<path d="M37.4078 29.5194H35.3398V31.5843H37.4078V29.5194Z" fill="#C0E7F9"/>
<path d="M37.4078 31.5844H35.3398V33.6493H37.4078V31.5844Z" fill="#C0E7F9"/>
<path d="M37.4078 33.6492H35.3398V35.7141H37.4078V33.6492Z" fill="#C0E7F9"/>
<path d="M37.4078 35.7142H35.3398V37.7792H37.4078V35.7142Z" fill="#C0E7F9"/>
<path d="M37.4078 37.7792H35.3398V39.8441H37.4078V37.7792Z" fill="#C0E7F9"/>
<path d="M37.4078 39.844H35.3398V41.9089H37.4078V39.844Z" fill="#C0E7F9"/>
<path d="M37.4078 41.9089H35.3398V43.9739H37.4078V41.9089Z" fill="#C0E7F9"/>
<path d="M37.4078 43.9739H35.3398V46.0388H37.4078V43.9739Z" fill="#C0E7F9"/>
<path d="M37.4078 46.0388H35.3398V48.1037H37.4078V46.0388Z" fill="#C0E7F9"/>
<path d="M37.4078 48.1038H35.3398V50.1687H37.4078V48.1038Z" fill="#C0E7F9"/>
<path d="M37.4078 50.1626H35.3398V52.2275H37.4078V50.1626Z" fill="#C0E7F9"/>
<path d="M37.4078 52.2336H35.3398V54.2986H37.4078V52.2336Z" fill="#C0E7F9"/>
<path d="M37.4078 54.2925H35.3398V56.3574H37.4078V54.2925Z" fill="#C0E7F9"/>
<path d="M37.4078 56.3574H35.3398V58.4224H37.4078V56.3574Z" fill="#C0E7F9"/>
<path d="M37.4078 58.4224H35.3398V60.4873H37.4078V58.4224Z" fill="#99DBFF"/>
<path d="M37.4078 60.4873H35.3398V62.5522H37.4078V60.4873Z" fill="#99DBFF"/>
<path d="M37.4078 62.5522H35.3398V64.6172H37.4078V62.5522Z" fill="#161616"/>
<path d="M37.4078 64.6172H35.3398V66.6821H37.4078V64.6172Z" fill="#333333"/>
<path d="M37.4078 66.6821H35.3398V68.7471H37.4078V66.6821Z" fill="#333333"/>
<path d="M37.4078 68.7471H35.3398V70.812H37.4078V68.7471Z" fill="#333333"/>
<path d="M37.4078 70.812H35.3398V72.8769H37.4078V70.812Z" fill="#333333"/>
<path d="M37.4078 72.8768H35.3398V74.9418H37.4078V72.8768Z" fill="#232323"/>
<path d="M37.4078 74.9418H35.3398V77.0067H37.4078V74.9418Z" fill="black"/>
<path d="M35.34 13H33.272V15.0649H35.34V13Z" fill="black"/>
<path d="M35.34 15.0649H33.272V17.1299H35.34V15.0649Z" fill="#333333"/>
<path d="M35.34 17.1299H33.272V19.1948H35.34V17.1299Z" fill="#E00B0B"/>
<path d="M35.34 19.1948H33.272V21.2598H35.34V19.1948Z" fill="#333333"/>
<path d="M35.34 21.2598H33.272V23.3247H35.34V21.2598Z" fill="#333333"/>
<path d="M35.34 23.3246H33.272V25.3895H35.34V23.3246Z" fill="#161616"/>
<path d="M35.34 25.3895H33.272V27.4545H35.34V25.3895Z" fill="#C0E7F9"/>
<path d="M35.34 27.4545H33.272V29.5194H35.34V27.4545Z" fill="#C0E7F9"/>
<path d="M35.34 29.5194H33.272V31.5843H35.34V29.5194Z" fill="#C0E7F9"/>
<path d="M35.34 31.5844H33.272V33.6493H35.34V31.5844Z" fill="#C0E7F9"/>
<path d="M35.34 33.6492H33.272V35.7141H35.34V33.6492Z" fill="#C0E7F9"/>
<path d="M35.34 35.7142H33.272V37.7792H35.34V35.7142Z" fill="#C0E7F9"/>
<path d="M35.34 37.7792H33.272V39.8441H35.34V37.7792Z" fill="#C0E7F9"/>
<path d="M35.34 39.844H33.272V41.9089H35.34V39.844Z" fill="#C0E7F9"/>
<path d="M35.34 41.9089H33.272V43.9739H35.34V41.9089Z" fill="#C0E7F9"/>
<path d="M35.34 43.9739H33.272V46.0388H35.34V43.9739Z" fill="#C0E7F9"/>
<path d="M35.34 46.0388H33.272V48.1037H35.34V46.0388Z" fill="#C0E7F9"/>
<path d="M35.34 48.1038H33.272V50.1687H35.34V48.1038Z" fill="#C0E7F9"/>
<path d="M35.34 50.1626H33.272V52.2275H35.34V50.1626Z" fill="#C0E7F9"/>
<path d="M35.34 52.2336H33.272V54.2986H35.34V52.2336Z" fill="#C0E7F9"/>
<path d="M35.34 54.2925H33.272V56.3574H35.34V54.2925Z" fill="#C0E7F9"/>
<path d="M35.34 56.3574H33.272V58.4224H35.34V56.3574Z" fill="#C0E7F9"/>
<path d="M35.34 58.4224H33.272V60.4873H35.34V58.4224Z" fill="#C0E7F9"/>
<path d="M35.34 60.4873H33.272V62.5522H35.34V60.4873Z" fill="#99DBFF"/>
<path d="M35.34 62.5522H33.272V64.6172H35.34V62.5522Z" fill="#161616"/>
<path d="M35.34 64.6172H33.272V66.6821H35.34V64.6172Z" fill="#333333"/>
<path d="M35.34 66.6821H33.272V68.7471H35.34V66.6821Z" fill="#333333"/>
<path d="M35.34 68.7471H33.272V70.812H35.34V68.7471Z" fill="#333333"/>
<path d="M35.34 70.812H33.272V72.8769H35.34V70.812Z" fill="#333333"/>
<path d="M35.34 72.8768H33.272V74.9418H35.34V72.8768Z" fill="#232323"/>
<path d="M35.34 74.9418H33.272V77.0067H35.34V74.9418Z" fill="black"/>
<path d="M33.2721 13H31.2041V15.0649H33.2721V13Z" fill="black"/>
<path d="M33.2721 15.0649H31.2041V17.1299H33.2721V15.0649Z" fill="#333333"/>
<path d="M33.2721 17.1299H31.2041V19.1948H33.2721V17.1299Z" fill="#333333"/>
<path d="M33.2721 19.1948H31.2041V21.2598H33.2721V19.1948Z" fill="#333333"/>
<path d="M33.2721 21.2598H31.2041V23.3247H33.2721V21.2598Z" fill="#333333"/>
<path d="M33.2721 23.3246H31.2041V25.3895H33.2721V23.3246Z" fill="#333333"/>
<path d="M33.2721 25.3895H31.2041V27.4545H33.2721V25.3895Z" fill="#161616"/>
<path d="M33.2721 27.4545H31.2041V29.5194H33.2721V27.4545Z" fill="#161616"/>
<path d="M33.2721 29.5194H31.2041V31.5843H33.2721V29.5194Z" fill="#161616"/>
<path d="M33.2721 31.5844H31.2041V33.6493H33.2721V31.5844Z" fill="#161616"/>
<path d="M33.2721 33.6492H31.2041V35.7141H33.2721V33.6492Z" fill="#161616"/>
<path d="M33.2721 35.7142H31.2041V37.7792H33.2721V35.7142Z" fill="#161616"/>
<path d="M33.2721 37.7792H31.2041V39.8441H33.2721V37.7792Z" fill="#161616"/>
<path d="M33.2721 39.844H31.2041V41.9089H33.2721V39.844Z" fill="#161616"/>
<path d="M33.2721 41.9089H31.2041V43.9739H33.2721V41.9089Z" fill="#161616"/>
<path d="M33.2721 43.9739H31.2041V46.0388H33.2721V43.9739Z" fill="#161616"/>
<path d="M33.2721 46.0388H31.2041V48.1037H33.2721V46.0388Z" fill="#161616"/>
<path d="M33.2721 48.1038H31.2041V50.1687H33.2721V48.1038Z" fill="#161616"/>
<path d="M33.2721 50.1626H31.2041V52.2275H33.2721V50.1626Z" fill="#161616"/>
<path d="M33.2721 52.2336H31.2041V54.2986H33.2721V52.2336Z" fill="#161616"/>
<path d="M33.2721 54.2925H31.2041V56.3574H33.2721V54.2925Z" fill="#161616"/>
<path d="M33.2721 56.3574H31.2041V58.4224H33.2721V56.3574Z" fill="#161616"/>
<path d="M33.2721 58.4224H31.2041V60.4873H33.2721V58.4224Z" fill="#161616"/>
<path d="M33.2721 60.4873H31.2041V62.5522H33.2721V60.4873Z" fill="#161616"/>
<path d="M33.2721 62.5522H31.2041V64.6172H33.2721V62.5522Z" fill="#333333"/>
<path d="M33.2721 64.6172H31.2041V66.6821H33.2721V64.6172Z" fill="#333333"/>
<path d="M33.2721 66.6821H31.2041V68.7471H33.2721V66.6821Z" fill="#333333"/>
<path d="M33.2721 68.7471H31.2041V70.812H33.2721V68.7471Z" fill="#333333"/>
<path d="M33.2721 70.812H31.2041V72.8769H33.2721V70.812Z" fill="#232323"/>
<path d="M33.2721 72.8768H31.2041V74.9418H33.2721V72.8768Z" fill="#232323"/>
<path d="M33.2721 74.9418H31.2041V77.0067H33.2721V74.9418Z" fill="black"/>
<path d="M31.2037 13H29.1357V15.0649H31.2037V13Z" fill="black"/>
<path d="M31.2037 15.0649H29.1357V17.1299H31.2037V15.0649Z" fill="#333333"/>
<path d="M31.2037 17.1299H29.1357V19.1948H31.2037V17.1299Z" fill="#333333"/>
<path d="M31.2037 19.1948H29.1357V21.2598H31.2037V19.1948Z" fill="#333333"/>
<path d="M31.2037 21.2598H29.1357V23.3247H31.2037V21.2598Z" fill="#333333"/>
<path d="M31.2037 23.3246H29.1357V25.3895H31.2037V23.3246Z" fill="#333333"/>
<path d="M31.2037 25.3895H29.1357V27.4545H31.2037V25.3895Z" fill="#333333"/>
<path d="M31.2037 27.4545H29.1357V29.5194H31.2037V27.4545Z" fill="#333333"/>
<path d="M31.2037 29.5194H29.1357V31.5843H31.2037V29.5194Z" fill="#333333"/>
<path d="M31.2037 31.5844H29.1357V33.6493H31.2037V31.5844Z" fill="#333333"/>
<path d="M31.2037 33.6492H29.1357V35.7141H31.2037V33.6492Z" fill="#333333"/>
<path d="M31.2037 35.7142H29.1357V37.7792H31.2037V35.7142Z" fill="#333333"/>
<path d="M31.2037 37.7792H29.1357V39.8441H31.2037V37.7792Z" fill="#333333"/>
<path d="M31.2037 39.844H29.1357V41.9089H31.2037V39.844Z" fill="#333333"/>
<path d="M31.2037 41.9089H29.1357V43.9739H31.2037V41.9089Z" fill="#333333"/>
<path d="M31.2037 43.9739H29.1357V46.0388H31.2037V43.9739Z" fill="#333333"/>
<path d="M31.2037 46.0388H29.1357V48.1037H31.2037V46.0388Z" fill="#333333"/>
<path d="M31.2037 48.1038H29.1357V50.1687H31.2037V48.1038Z" fill="#333333"/>
<path d="M31.2037 50.1626H29.1357V52.2275H31.2037V50.1626Z" fill="#333333"/>
<path d="M31.2037 52.2336H29.1357V54.2986H31.2037V52.2336Z" fill="#333333"/>
<path d="M31.2037 54.2925H29.1357V56.3574H31.2037V54.2925Z" fill="#333333"/>
<path d="M31.2037 56.3574H29.1357V58.4224H31.2037V56.3574Z" fill="#333333"/>
<path d="M31.2037 58.4224H29.1357V60.4873H31.2037V58.4224Z" fill="#333333"/>
<path d="M31.2037 60.4873H29.1357V62.5522H31.2037V60.4873Z" fill="#333333"/>
<path d="M31.2037 62.5522H29.1357V64.6172H31.2037V62.5522Z" fill="#333333"/>
<path d="M31.2037 64.6172H29.1357V66.6821H31.2037V64.6172Z" fill="#333333"/>
<path d="M31.2037 66.6821H29.1357V68.7471H31.2037V66.6821Z" fill="#333333"/>
<path d="M31.2037 68.7471H29.1357V70.812H31.2037V68.7471Z" fill="#232323"/>
<path d="M31.2037 70.812H29.1357V72.8769H31.2037V70.812Z" fill="#232323"/>
<path d="M31.2037 72.8768H29.1357V74.9418H31.2037V72.8768Z" fill="black"/>
<path d="M29.1359 15.0649H27.0679V17.1299H29.1359V15.0649Z" fill="black"/>
<path d="M29.1359 17.1299H27.0679V19.1948H29.1359V17.1299Z" fill="#333333"/>
<path d="M29.1359 19.1948H27.0679V21.2598H29.1359V19.1948Z" fill="#232323"/>
<path d="M29.1359 21.2598H27.0679V23.3247H29.1359V21.2598Z" fill="#232323"/>
<path d="M29.1359 23.3246H27.0679V25.3895H29.1359V23.3246Z" fill="#232323"/>
<path d="M29.1359 25.3895H27.0679V27.4545H29.1359V25.3895Z" fill="#232323"/>
<path d="M29.1359 27.4545H27.0679V29.5194H29.1359V27.4545Z" fill="#232323"/>
<path d="M29.1359 29.5194H27.0679V31.5843H29.1359V29.5194Z" fill="#232323"/>
<path d="M29.1359 31.5844H27.0679V33.6493H29.1359V31.5844Z" fill="#232323"/>
<path d="M29.1359 33.6492H27.0679V35.7141H29.1359V33.6492Z" fill="#232323"/>
<path d="M29.1359 35.7142H27.0679V37.7792H29.1359V35.7142Z" fill="#232323"/>
<path d="M29.1359 37.7792H27.0679V39.8441H29.1359V37.7792Z" fill="#232323"/>
<path d="M29.1359 39.844H27.0679V41.9089H29.1359V39.844Z" fill="#232323"/>
<path d="M29.1359 41.9089H27.0679V43.9739H29.1359V41.9089Z" fill="#232323"/>
<path d="M29.1359 43.9739H27.0679V46.0388H29.1359V43.9739Z" fill="#232323"/>
<path d="M29.1359 46.0388H27.0679V48.1037H29.1359V46.0388Z" fill="#232323"/>
<path d="M29.1359 48.1038H27.0679V50.1687H29.1359V48.1038Z" fill="#232323"/>
<path d="M29.1359 50.1626H27.0679V52.2275H29.1359V50.1626Z" fill="#232323"/>
<path d="M29.1359 52.2336H27.0679V54.2986H29.1359V52.2336Z" fill="#232323"/>
<path d="M29.1359 54.2925H27.0679V56.3574H29.1359V54.2925Z" fill="#232323"/>
<path d="M29.1359 56.3574H27.0679V58.4224H29.1359V56.3574Z" fill="#232323"/>
<path d="M29.1359 58.4224H27.0679V60.4873H29.1359V58.4224Z" fill="#232323"/>
<path d="M29.1359 60.4873H27.0679V62.5522H29.1359V60.4873Z" fill="#232323"/>
<path d="M29.1359 62.5522H27.0679V64.6172H29.1359V62.5522Z" fill="#232323"/>
<path d="M29.1359 64.6172H27.0679V66.6821H29.1359V64.6172Z" fill="#232323"/>
<path d="M29.1359 66.6821H27.0679V68.7471H29.1359V66.6821Z" fill="#232323"/>
<path d="M29.1359 68.7471H27.0679V70.812H29.1359V68.7471Z" fill="#232323"/>
<path d="M29.1359 70.812H27.0679V72.8769H29.1359V70.812Z" fill="black"/>
<path d="M27.068 17.1299H25V19.1948H27.068V17.1299Z" fill="black"/>
<path d="M27.068 19.1948H25V21.2598H27.068V19.1948Z" fill="black"/>
<path d="M27.068 21.2598H25V23.3247H27.068V21.2598Z" fill="black"/>
<path d="M27.068 23.3246H25V25.3895H27.068V23.3246Z" fill="black"/>
<path d="M27.068 25.3895H25V27.4545H27.068V25.3895Z" fill="black"/>
<path d="M27.068 27.4545H25V29.5194H27.068V27.4545Z" fill="black"/>
<path d="M27.068 29.5194H25V31.5843H27.068V29.5194Z" fill="black"/>
<path d="M27.068 31.5844H25V33.6493H27.068V31.5844Z" fill="black"/>
<path d="M27.068 33.6492H25V35.7141H27.068V33.6492Z" fill="black"/>
<path d="M27.068 35.7142H25V37.7792H27.068V35.7142Z" fill="black"/>
<path d="M27.068 37.7792H25V39.8441H27.068V37.7792Z" fill="black"/>
<path d="M27.068 39.844H25V41.9089H27.068V39.844Z" fill="black"/>
<path d="M27.068 41.9089H25V43.9739H27.068V41.9089Z" fill="black"/>
<path d="M27.068 43.9739H25V46.0388H27.068V43.9739Z" fill="black"/>
<path d="M27.068 46.0388H25V48.1037H27.068V46.0388Z" fill="black"/>
<path d="M27.068 48.1038H25V50.1687H27.068V48.1038Z" fill="black"/>
<path d="M27.068 50.1626H25V52.2275H27.068V50.1626Z" fill="black"/>
<path d="M27.068 52.2336H25V54.2986H27.068V52.2336Z" fill="black"/>
<path d="M27.068 54.2925H25V56.3574H27.068V54.2925Z" fill="black"/>
<path d="M27.068 56.3574H25V58.4224H27.068V56.3574Z" fill="black"/>
<path d="M27.068 58.4224H25V60.4873H27.068V58.4224Z" fill="black"/>
<path d="M27.068 60.4873H25V62.5522H27.068V60.4873Z" fill="black"/>
<path d="M27.068 62.5522H25V64.6172H27.068V62.5522Z" fill="black"/>
<path d="M27.068 64.6172H25V66.6821H27.068V64.6172Z" fill="black"/>
<path d="M27.068 66.6821H25V68.7471H27.068V66.6821Z" fill="black"/>
<path d="M27.068 68.7471H25V70.812H27.068V68.7471Z" fill="black"/>
</svg>
