<svg width="92" height="90" viewBox="0 0 92 90" fill="none" xmlns="http://www.w3.org/2000/svg">
<path d="M28.497 20.5107C28.497 20.5048 28.4958 20.4989 28.4935 20.4935C28.4912 20.488 28.4879 20.483 28.4837 20.4789C28.4795 20.4747 28.4745 20.4714 28.469 20.4691C28.4636 20.4668 28.4577 20.4657 28.4518 20.4657L25.0201 20.4717C25.0142 20.4717 25.0083 20.4729 25.0029 20.4752C24.9974 20.4774 24.9924 20.4808 24.9883 20.485C24.9841 20.4892 24.9808 20.4941 24.9785 20.4996C24.9762 20.5051 24.9751 20.511 24.9751 20.5169L24.9811 23.9485C24.9811 23.9545 24.9823 23.9603 24.9846 23.9658C24.9868 23.9713 24.9902 23.9762 24.9944 23.9804C24.9986 23.9846 25.0035 23.9879 25.009 23.9902C25.0145 23.9924 25.0204 23.9936 25.0263 23.9936L28.4579 23.9876C28.4639 23.9876 28.4697 23.9864 28.4752 23.9841C28.4807 23.9818 28.4856 23.9785 28.4898 23.9743C28.494 23.9701 28.4973 23.9651 28.4996 23.9596C28.5018 23.9542 28.503 23.9483 28.503 23.9424L28.497 20.5107Z" stroke="#9C6AEE" stroke-width="2"/>
<path d="M63.7898 23.9893L66.8756 23.992C66.914 23.992 66.9509 23.9769 66.9781 23.9499C67.0052 23.923 67.0205 23.8865 67.0205 23.8484V20.5986C67.0205 20.5642 67.0067 20.5311 66.9821 20.5068C66.9574 20.4824 66.9241 20.4688 66.8893 20.4688L63.5533 20.4865C63.5178 20.4865 63.5 20.5043 63.5 20.5398V23.9168C63.5 23.9733 63.5283 24.0048 63.5848 24.0111C63.6176 24.0148 63.6518 24.012 63.6873 24.0029C63.721 23.9938 63.7552 23.9893 63.7898 23.9893Z" stroke="#9C6AEE" stroke-width="2"/>
<path d="M39.0614 30.9837C39.0405 30.9891 39.0241 30.9545 39.0122 30.8798" stroke="#9C6AEE" stroke-width="2"/>
<path d="M39.0123 30.8797L39 24.052C39 24.0019 38.975 23.9768 38.9248 23.9768H35.541C35.4955 23.9768 35.4727 23.9996 35.4727 24.0452L35.4754 30.9139C35.4754 30.9604 35.4522 30.9836 35.4057 30.9836H32.1176C32.089 30.9836 32.0615 30.995 32.0412 31.0153C32.021 31.0355 32.0096 31.063 32.0096 31.0916L32.026 34.2622C32.026 34.3263 32.0005 34.3879 31.9551 34.4333C31.9097 34.4787 31.8482 34.5041 31.784 34.5041H28.5725C28.5324 34.5041 28.5128 34.5242 28.5137 34.5643L28.5602 37.959" stroke="#9C6AEE" stroke-width="2"/>
<path d="M28.5609 37.9591C28.5424 37.96 28.5239 37.9614 28.5054 37.9633" stroke="#9C6AEE" stroke-width="2"/>
<path d="M28.5054 37.9631L25.1202 37.9563C25.0254 37.9563 24.978 38.0037 24.978 38.0985L24.9808 48.4153" stroke="#9C6AEE" stroke-width="2"/>
<path d="M24.9808 48.4154C24.9844 48.4637 24.9721 48.4865 24.9438 48.4838" stroke="#9C6AEE" stroke-width="2"/>
<path d="M24.9438 48.4837H18.1011C18.0757 48.4837 18.0513 48.4736 18.0334 48.4556C18.0155 48.4377 18.0054 48.4133 18.0054 48.388L18.0081 34.5739C18.0081 34.5283 17.9853 34.5051 17.9397 34.5042L14.5806 34.5028C14.5405 34.5028 14.5204 34.5229 14.5204 34.563L14.519 48.4153C14.519 48.4609 14.5423 48.4837 14.5888 48.4837H17.922C17.9785 48.4837 18.0067 48.5119 18.0067 48.5684L17.9794 51.8825C17.9792 51.8991 17.9823 51.9156 17.9886 51.931C17.9948 51.9465 18.004 51.9605 18.0157 51.9723C18.0274 51.9841 18.0414 51.9935 18.0567 51.9999C18.0721 52.0063 18.0885 52.0096 18.1052 52.0096L24.978 52.0124" stroke="#9C6AEE" stroke-width="2"/>
<path d="M24.9782 52.0125L24.9741 58.9003C24.9741 58.9293 24.9855 58.9572 25.0058 58.9777C25.026 58.9982 25.0535 59.0097 25.0821 59.0097L29.2151 59.0111" stroke="#9C6AEE" stroke-width="2"/>
<path d="M29.2153 59.0111L32.0181 59.0193" stroke="#9C6AEE" stroke-width="2"/>
<path d="M32.0176 59.0193V65.9126C32.0176 65.96 32.0408 65.9837 32.0873 65.9837H38.9533C38.9898 65.9837 39.008 65.9655 39.008 65.9291L39.0258 59.0125" stroke="#9C6AEE" stroke-width="2"/>
<path d="M39.0259 59.0125L52.9165 59.0111C52.9548 59.0111 52.9744 59.0307 52.9753 59.0699C52.9762 59.0881 52.973 59.1045 52.9657 59.1191" stroke="#9C6AEE" stroke-width="2"/>
<path d="M52.9658 59.1191L52.9727 65.914C52.9727 65.9605 52.9959 65.9837 53.0424 65.9837H59.9057C59.9439 65.9837 59.9635 65.9646 59.9645 65.9263L59.9918 59.0466" stroke="#9C6AEE" stroke-width="2"/>
<path d="M59.9917 59.0466C60.0181 59.0156 60.0587 59.0033 60.1134 59.0097" stroke="#9C6AEE" stroke-width="2"/>
<path d="M60.1133 59.0097H66.9205C66.9481 59.0097 66.9745 58.9987 66.994 58.9793C67.0135 58.9598 67.0244 58.9333 67.0244 58.9058L67.0203 52.4103" stroke="#9C6AEE" stroke-width="2"/>
<path d="M67.0205 52.4103L67.0287 52.0945C67.0296 52.0407 67.057 52.0129 67.1107 52.0111L67.4662 52.0043" stroke="#9C6AEE" stroke-width="2"/>
<path d="M67.4656 52.0042L73.9242 52.0028C73.9362 52.0028 73.948 52.0004 73.9591 51.9959C73.9701 51.9913 73.9801 51.9847 73.9885 51.9763C73.9969 51.9679 74.0035 51.9579 74.008 51.947C74.0124 51.936 74.0146 51.9243 74.0145 51.9125L73.983 48.5916C73.983 48.563 73.9942 48.5355 74.0142 48.5153C74.0342 48.495 74.0614 48.4836 74.0896 48.4836H77.4051C77.447 48.4836 77.468 48.4627 77.468 48.4208L77.509 34.5711C77.5092 34.5624 77.5076 34.5537 77.5044 34.5456C77.5012 34.5375 77.4964 34.5301 77.4903 34.5239C77.4841 34.5176 77.4768 34.5127 77.4688 34.5093C77.4607 34.5059 77.4521 34.5041 77.4434 34.5042H74.0609C74.0145 34.5042 73.9912 34.5269 73.9912 34.5725L73.9939 48.4057C73.9939 48.4264 73.9857 48.4462 73.9711 48.4608C73.9565 48.4754 73.9367 48.4836 73.916 48.4836H67.0883C67.0418 48.4836 67.0186 48.4609 67.0186 48.4153L67.0213 38.0506C67.0213 38.0249 67.0111 38.0002 66.9929 37.982C66.9747 37.9638 66.95 37.9536 66.9242 37.9536L63.5049 37.9713" stroke="#9C6AEE" stroke-width="2"/>
<path d="M63.5053 37.9714L63.4971 37.8907" stroke="#9C6AEE" stroke-width="2"/>
<path d="M63.4978 37.8907V34.5698C63.4978 34.5261 63.4759 34.5042 63.4321 34.5042H60.1591C60.1136 34.5042 60.07 34.4863 60.0378 34.4543C60.0055 34.4222 59.9872 34.3788 59.9868 34.3333L59.9772 31.0493C59.9763 31.0074 59.9549 30.9865 59.913 30.9865H56.562" stroke="#9C6AEE" stroke-width="2"/>
<path d="M56.5612 30.9864C56.543 30.9846 56.5257 30.9623 56.5093 30.9194" stroke="#9C6AEE" stroke-width="2"/>
<path d="M56.5096 30.9194L56.5041 24.0588C56.5041 24.0042 56.4763 23.9768 56.4207 23.9768H53.0396C52.9941 23.9768 52.9713 24 52.9713 24.0465L52.9768 30.851C52.9768 30.9394 52.9321 30.9836 52.8428 30.9836H39.0615" stroke="#9C6AEE" stroke-width="2"/>
<path d="M56.5096 30.9194C56.4139 30.9787 56.3451 30.9491 56.3031 30.8306C56.2867 30.7832 56.2799 30.718 56.2826 30.6351C56.3496 28.52 56.3496 26.3489 56.2854 24.2476C56.2843 24.2107 56.2688 24.1757 56.2422 24.1502C56.2156 24.1246 56.18 24.1105 56.1432 24.1108L53.3568 24.1368C53.3294 24.1372 53.3032 24.1484 53.2837 24.1681C53.2643 24.1877 53.2533 24.2143 53.2529 24.2421L53.2133 30.7403C53.2126 30.8392 53.1729 30.9338 53.103 31.0035C53.0331 31.0731 52.9386 31.1122 52.84 31.1122L39.1217 31.1081C39.0816 31.1081 39.0615 31.0881 39.0615 31.048V30.9837" stroke="#9C6AEE" stroke-width="2"/>
<path d="M56.5612 30.9865C56.5512 31.0831 56.5863 31.1305 56.6665 31.1286C57.681 31.1095 58.6822 31.0995 59.6702 31.0986C59.7105 31.0986 59.7491 31.1147 59.7775 31.1434C59.806 31.1721 59.822 31.2111 59.822 31.2517L59.811 34.3224C59.811 34.4119 59.8465 34.4978 59.9096 34.5612C59.9726 34.6245 60.0582 34.6601 60.1474 34.6601L63.2864 34.656C63.3067 34.656 63.3262 34.664 63.3406 34.6784C63.3549 34.6928 63.363 34.7122 63.363 34.7325C63.3648 35.6786 63.3644 36.6307 63.3616 37.5886C63.3616 37.7308 63.4068 37.8315 63.497 37.8907" stroke="#9C6AEE" stroke-width="2"/>
<path d="M63.5052 37.9714C63.4688 38.0371 63.477 38.1054 63.5298 38.1765C63.5426 38.1935 63.5591 38.2073 63.5781 38.2168C63.5971 38.2263 63.618 38.2312 63.6392 38.2312L66.6716 38.2257C66.7446 38.2257 66.781 38.2622 66.781 38.3351V48.2855C66.781 48.3301 66.7898 48.3743 66.807 48.4156C66.8241 48.4568 66.8492 48.4942 66.8808 48.5257C66.9124 48.5572 66.95 48.5822 66.9913 48.5991C67.0326 48.6161 67.0768 48.6247 67.1214 48.6246L73.6552 48.6095C73.6888 48.6095 73.721 48.6224 73.7452 48.6456C73.7694 48.6688 73.7837 48.7004 73.7851 48.7339C73.8079 49.402 73.8129 50.0583 73.8002 50.7027C73.7961 50.8749 73.9095 51.0294 73.7687 51.2263C73.7414 51.2646 73.7368 51.3052 73.755 51.348L73.8562 51.5927C73.8613 51.6049 73.8638 51.618 73.8637 51.6312C73.8636 51.6444 73.8609 51.6575 73.8557 51.6697C73.8505 51.6819 73.8429 51.6929 73.8334 51.7023C73.8238 51.7116 73.8125 51.719 73.8002 51.724C73.6862 51.7686 73.5367 51.7896 73.3517 51.7869C71.4686 51.755 69.5277 51.7586 67.5289 51.7978C67.4632 51.7987 67.4359 51.8315 67.4468 51.8962L67.466 52.0042" stroke="#9C6AEE" stroke-width="2"/>
<path d="M67.0203 52.4102C66.9383 52.3674 66.8749 52.4025 66.8303 52.5155C66.8102 52.5647 66.7997 52.6304 66.7988 52.7124C66.776 54.6839 66.7719 56.6112 66.7865 58.4942C66.7874 58.6793 66.6954 58.7727 66.5103 58.7745C65.093 58.7909 63.6766 58.7977 62.2611 58.795C62.0059 58.7941 61.8296 58.7818 61.732 58.7581C61.7247 58.7563 61.7184 58.7581 61.7129 58.7636C61.7047 58.7727 61.696 58.7813 61.6869 58.7895C61.6778 58.7987 61.6669 58.8028 61.6541 58.8018C61.2193 58.7581 60.7982 58.7923 60.3662 58.769C60.2122 58.7608 60.1279 58.841 60.1133 59.0097" stroke="#9C6AEE" stroke-width="2"/>
<path d="M59.9918 59.0466C59.9717 59.0147 59.9521 59.001 59.933 59.0056C59.8984 59.0125 59.8672 59.0305 59.8447 59.0564C59.8223 59.0823 59.81 59.1146 59.81 59.1478L59.8141 65.7103C59.8141 65.7567 59.7955 65.8012 59.7624 65.834C59.7293 65.8668 59.6845 65.8853 59.6377 65.8853L53.4908 65.873C53.4452 65.8727 53.4002 65.8628 53.3587 65.8439C53.3173 65.8251 53.2803 65.7976 53.2502 65.7634C53.2201 65.7291 53.1976 65.6889 53.1841 65.6454C53.1707 65.6018 53.1667 65.5559 53.1723 65.5107C53.2187 65.1351 53.2434 64.7801 53.2461 64.4456C53.2607 62.6911 53.2506 60.9251 53.216 59.1478C53.2148 59.1015 53.1964 59.0573 53.1646 59.0239C53.1327 58.9905 53.0896 58.9704 53.0437 58.9673C53.0374 58.9664 53.0114 59.017 52.9658 59.1191" stroke="#9C6AEE" stroke-width="2"/>
<path d="M39.0258 59.0124C38.9123 59.1095 38.8316 59.1574 38.8289 59.3201C38.7997 61.4492 38.7947 63.5579 38.8139 65.646C38.814 65.6724 38.809 65.6985 38.7991 65.7228C38.7891 65.7472 38.7744 65.7694 38.7559 65.7881C38.7373 65.8067 38.7153 65.8216 38.691 65.8317C38.6667 65.8418 38.6406 65.847 38.6143 65.847H32.4633C32.3813 65.847 32.3027 65.8145 32.2448 65.7565C32.1869 65.6986 32.1543 65.62 32.1543 65.538L32.1625 59.0302C32.1627 59.0219 32.1607 59.0138 32.1567 59.0065C32.1528 58.9992 32.147 58.993 32.1399 58.9885C32.1328 58.984 32.1246 58.9813 32.1162 58.9807C32.1077 58.9801 32.0992 58.9816 32.0914 58.9851L32.0176 59.0193" stroke="#9C6AEE" stroke-width="2"/>
<path d="M29.2149 59.0111C29.2268 58.94 29.2263 58.8831 29.2136 58.8402C29.2026 58.8065 29.1794 58.7896 29.1438 58.7896L25.421 58.7924C25.3736 58.7923 25.328 58.7746 25.2929 58.7428C25.2577 58.711 25.2357 58.6673 25.231 58.6201C25.2054 58.3731 25.1922 58.1047 25.1913 57.8148C25.1877 55.9409 25.1849 54.0669 25.1831 52.193C25.1831 52.1301 25.1676 52.084 25.1366 52.0549C25.0938 52.0157 25.0409 52.0016 24.978 52.0125" stroke="#9C6AEE" stroke-width="2"/>
<path d="M24.9778 52.0125C24.9888 51.9496 24.9673 51.8844 24.9136 51.817C24.9003 51.8008 24.8837 51.7877 24.865 51.7787C24.8464 51.7697 24.8261 51.765 24.8056 51.765L18.3196 51.7664C18.308 51.7666 18.2965 51.7644 18.2857 51.76C18.275 51.7556 18.2651 51.7491 18.2569 51.7408C18.2486 51.7326 18.242 51.7227 18.2376 51.7118C18.2331 51.701 18.2308 51.6893 18.2308 51.6775L18.228 48.7422C18.228 48.7084 18.2414 48.6761 18.2653 48.6523C18.2891 48.6284 18.3215 48.615 18.3552 48.615C20.529 48.6105 22.7142 48.6082 24.9108 48.6082C24.9464 48.6082 24.9573 48.5667 24.9437 48.4838" stroke="#9C6AEE" stroke-width="2"/>
<path d="M24.981 48.4154C25.0074 48.4692 25.0552 48.4829 25.1245 48.4564C25.1673 48.44 25.1888 48.4086 25.1888 48.3621L25.1983 38.4527C25.1983 38.3953 25.2211 38.3402 25.2615 38.2995C25.302 38.2587 25.3569 38.2357 25.4144 38.2353L28.3729 38.2176C28.414 38.2176 28.4477 38.2016 28.4741 38.1697C28.5288 38.1004 28.5393 38.0316 28.5056 37.9633" stroke="#9C6AEE" stroke-width="2"/>
<path d="M39.0127 30.8799C38.938 30.889 38.8769 30.8685 38.8295 30.8183C38.7958 30.7828 38.7807 30.7286 38.7844 30.6556C38.8527 29.2187 38.7912 27.7736 38.809 26.334C38.8181 25.6276 38.8131 24.9335 38.7939 24.2517C38.7929 24.2163 38.778 24.1827 38.7524 24.1582C38.7268 24.1337 38.6927 24.1201 38.6572 24.1205L35.8244 24.1369C35.8062 24.1373 35.7888 24.1448 35.776 24.1578C35.7632 24.1708 35.7561 24.1884 35.7561 24.2066L35.7137 30.7472C35.7133 30.797 35.7032 30.8462 35.6839 30.892C35.6646 30.9378 35.6365 30.9793 35.6012 31.0142C35.5659 31.0491 35.5241 31.0767 35.4782 31.0954C35.4323 31.1141 35.3831 31.1236 35.3336 31.1232L32.3613 31.1C32.3346 31.0998 32.3082 31.1049 32.2835 31.1149C32.2588 31.1249 32.2363 31.1397 32.2174 31.1584C32.1984 31.177 32.1834 31.1993 32.1731 31.2237C32.1629 31.2482 32.1576 31.2745 32.1576 31.301V34.343C32.1576 34.3856 32.1492 34.4279 32.1328 34.4673C32.1165 34.5067 32.0925 34.5424 32.0622 34.5726C32.032 34.6027 31.9961 34.6265 31.9566 34.6427C31.9172 34.6589 31.8749 34.6672 31.8322 34.667L28.8039 34.656C28.7587 34.6557 28.7151 34.6731 28.6826 34.7046C28.6502 34.736 28.6313 34.779 28.6303 34.8242L28.5605 37.9592" stroke="#9C6AEE" stroke-width="2"/>
<path d="M24.9863 31.0178C25.0201 30.9914 25.0506 30.9791 25.0779 30.9809" stroke="#9C6AEE" stroke-width="2"/>
<path d="M25.0779 30.981H28.433C28.4777 30.981 28.5 30.9587 28.5 30.914V27.5316C28.5 27.486 28.4772 27.4633 28.4316 27.4633H21.5793C21.5219 27.4633 21.4932 27.4915 21.4932 27.548V34.3976C21.4932 34.4687 21.5287 34.5043 21.5998 34.5043H24.9385C24.9749 34.5043 24.9932 34.486 24.9932 34.4496L24.9863 31.0179" stroke="#9C6AEE" stroke-width="2"/>
<path d="M25.0778 30.981C25.1134 30.8889 25.1717 30.8443 25.2528 30.847C26.2099 30.888 27.1446 30.8967 28.0569 30.873C28.1376 30.8708 28.2142 30.8374 28.2706 30.7797C28.327 30.722 28.3588 30.6447 28.3591 30.564L28.3728 27.7954C28.3728 27.7606 28.3589 27.7272 28.3343 27.7026C28.3097 27.678 28.2763 27.6642 28.2415 27.6642L21.8499 27.6656C21.7984 27.6656 21.749 27.6859 21.7126 27.722C21.6762 27.7582 21.6558 27.8072 21.6558 27.8583L21.6585 34.1447C21.6585 34.1643 21.6624 34.1838 21.67 34.202C21.6775 34.2202 21.6886 34.2367 21.7026 34.2505C21.7166 34.2644 21.7332 34.2753 21.7514 34.2827C21.7697 34.2901 21.7892 34.2939 21.8089 34.2937L24.6882 34.2732C24.7215 34.2732 24.7535 34.2598 24.7771 34.2359C24.8007 34.2121 24.814 34.1797 24.814 34.146L24.8181 31.0726C24.8181 31.0243 24.8413 30.9942 24.8878 30.9823C24.9261 30.9732 24.9589 30.9851 24.9862 31.0179" stroke="#9C6AEE" stroke-width="2"/>
<path d="M66.9233 30.9797C66.947 30.9787 66.9789 30.992 67.019 31.0193" stroke="#9C6AEE" stroke-width="2"/>
<path d="M67.0191 31.0193L67.0123 34.4263C67.0123 34.4774 67.0378 34.5029 67.0889 34.5029L70.4357 34.507C70.4822 34.507 70.5055 34.4842 70.5055 34.4386L70.5137 27.5179C70.5137 27.4815 70.4954 27.4633 70.459 27.4633H63.6066C63.5355 27.4633 63.5 27.4988 63.5 27.5699V30.914C63.5 30.9587 63.5228 30.981 63.5684 30.981L66.9234 30.9797" stroke="#9C6AEE" stroke-width="2"/>
<path d="M67.019 31.0193C67.0136 30.9591 67.0455 30.94 67.1147 30.9618C67.1281 30.9657 67.1399 30.9738 67.1482 30.9849C67.1566 30.996 67.1612 31.0095 67.1612 31.0234L67.1558 34.1406C67.1558 34.2408 67.2059 34.2914 67.3062 34.2923L70.1841 34.3005C70.2049 34.3007 70.2256 34.2968 70.2449 34.289C70.2642 34.2812 70.2818 34.2696 70.2966 34.255C70.3115 34.2404 70.3233 34.2231 70.3315 34.2039C70.3396 34.1847 70.3439 34.1641 70.344 34.1433L70.3454 27.8228C70.3454 27.7817 70.3292 27.7422 70.3002 27.7131C70.2713 27.6839 70.232 27.6673 70.1909 27.6669L63.8499 27.6574C63.8223 27.6572 63.795 27.6625 63.7694 27.6729C63.7439 27.6833 63.7207 27.6987 63.7011 27.7181C63.6815 27.7376 63.666 27.7607 63.6554 27.7862C63.6448 27.8116 63.6394 27.8389 63.6394 27.8665L63.6353 30.5066C63.6353 30.604 63.6738 30.6975 63.7424 30.7666C63.811 30.8358 63.9042 30.875 64.0017 30.8757C64.9104 30.8812 65.7995 30.8839 66.669 30.8839C66.7793 30.8848 66.8641 30.9167 66.9233 30.9796" stroke="#9C6AEE" stroke-width="2"/>
<path d="M28.4999 69.5384C28.4999 69.5289 28.4962 69.5199 28.4895 69.5132C28.4828 69.5066 28.4738 69.5028 28.4644 69.5028H25.0136C25.0041 69.5028 24.9951 69.5066 24.9884 69.5132C24.9818 69.5199 24.978 69.5289 24.978 69.5384V72.9563C24.978 72.9658 24.9818 72.9748 24.9884 72.9815C24.9951 72.9881 25.0041 72.9919 25.0136 72.9919H28.4644C28.4738 72.9919 28.4828 72.9881 28.4895 72.9815C28.4962 72.9748 28.4999 72.9658 28.4999 72.9563V69.5384Z" stroke="#9C6AEE" stroke-width="2"/>
<path d="M67.0236 69.5457C67.0236 69.5352 67.0195 69.5251 67.012 69.5177C67.0046 69.5102 66.9946 69.506 66.984 69.506L63.5442 69.5C63.539 69.5 63.5338 69.501 63.529 69.503C63.5242 69.505 63.5198 69.5079 63.5161 69.5116C63.5125 69.5152 63.5095 69.5196 63.5075 69.5244C63.5055 69.5292 63.5045 69.5344 63.5045 69.5396L63.4985 72.9493C63.4985 72.9598 63.5027 72.9699 63.5101 72.9774C63.5175 72.9848 63.5276 72.989 63.5381 72.989L66.9779 72.995C66.9832 72.9951 66.9883 72.994 66.9931 72.9921C66.9979 72.9901 67.0023 72.9872 67.006 72.9835C67.0097 72.9798 67.0126 72.9754 67.0146 72.9706C67.0166 72.9658 67.0177 72.9607 67.0177 72.9555L67.0236 69.5457Z" stroke="#9C6AEE" stroke-width="2"/>
<path d="M28.3892 23.6283L28.3687 20.801C28.3683 20.782 28.3607 20.7639 28.3474 20.7506C28.3341 20.7373 28.3162 20.7299 28.2976 20.7299H25.2966C25.2337 20.7299 25.2027 20.7608 25.2036 20.8228L25.2105 23.7883C25.2105 23.8493 25.2314 23.8575 25.2734 23.8129L25.298 23.7869C25.3007 23.7832 25.3048 23.7814 25.3103 23.7814L28.2251 23.7924C28.2467 23.7925 28.2681 23.7884 28.2881 23.7802C28.3081 23.7721 28.3263 23.76 28.3415 23.7447C28.3568 23.7294 28.3689 23.7113 28.3771 23.6913C28.3852 23.6713 28.3894 23.6499 28.3892 23.6283Z" stroke="#9C6AEE" stroke-width="2"/>
<path d="M66.7796 20.8994C66.7796 20.8773 66.7753 20.8555 66.7669 20.8351C66.7585 20.8146 66.7461 20.7961 66.7305 20.7804C66.7149 20.7648 66.6964 20.7524 66.676 20.7439C66.6556 20.7354 66.6338 20.731 66.6117 20.731L63.809 20.7261C63.7869 20.726 63.765 20.7303 63.7446 20.7388C63.7242 20.7472 63.7056 20.7595 63.69 20.7751C63.6743 20.7907 63.6619 20.8092 63.6534 20.8296C63.6449 20.85 63.6405 20.8719 63.6405 20.894L63.6357 23.6228C63.6357 23.6449 63.64 23.6668 63.6484 23.6872C63.6568 23.7076 63.6692 23.7262 63.6848 23.7418C63.7004 23.7575 63.7189 23.7699 63.7393 23.7784C63.7597 23.7869 63.7815 23.7913 63.8036 23.7913L66.6063 23.7962C66.6284 23.7962 66.6503 23.7919 66.6707 23.7835C66.6911 23.7751 66.7097 23.7627 66.7253 23.7472C66.741 23.7316 66.7534 23.7131 66.7619 23.6927C66.7704 23.6723 66.7748 23.6504 66.7748 23.6283L66.7796 20.8994Z" stroke="#9C6AEE" stroke-width="2"/>
<path d="M32.0203 51.9019C31.9929 51.9401 32.0394 51.9711 32.1597 51.9948" stroke="#9C6AEE" stroke-width="2"/>
<path d="M32.1601 51.9948C32.1182 52.0148 32.0904 52.0435 32.0767 52.0809C32.0575 52.1329 32.0758 52.1588 32.1314 52.1588H38.8033C38.8935 52.1588 38.9801 52.123 39.044 52.0591C39.1078 51.9953 39.1437 51.9087 39.1437 51.8184L39.1423 41.6547C39.1423 41.6183 39.1268 41.5905 39.0958 41.5713L39.0097 41.5208" stroke="#9C6AEE" stroke-width="2"/>
<path d="M39.0096 41.5206L32.0205 41.5138" stroke="#9C6AEE" stroke-width="2"/>
<path d="M32.0205 41.5138C31.9576 41.4919 31.8947 41.5243 31.8318 41.6109C31.8018 41.6537 31.7863 41.7016 31.7854 41.7544L31.7813 51.955C31.7812 51.9664 31.7835 51.9776 31.788 51.9881C31.7925 51.9986 31.7991 52.008 31.8074 52.016C31.8157 52.0239 31.8255 52.03 31.8363 52.0341C31.8471 52.0382 31.8586 52.0402 31.8701 52.0398C31.8856 52.0389 31.9007 52.0384 31.9152 52.0384C31.9553 52.0375 31.9772 52.0166 31.9809 51.9755C31.9845 51.9327 31.9977 51.9081 32.0205 51.9017" stroke="#9C6AEE" stroke-width="2"/>
<path d="M32.0205 41.5138V51.9017" stroke="#9C6AEE" stroke-width="2"/>
<path d="M39.0098 41.5208L38.9906 51.8211C38.9906 51.9396 38.9314 51.9989 38.8129 51.9989L32.1602 51.9948" stroke="#9C6AEE" stroke-width="2"/>
<path d="M59.978 41.5138L53.0327 41.5152" stroke="#9C6AEE" stroke-width="2"/>
<path d="M53.033 41.5152L52.9428 41.5261C52.8781 41.5343 52.8457 41.5712 52.8457 41.6369V51.8443C52.8457 51.9262 52.8783 52.0048 52.9362 52.0628C52.9941 52.1207 53.0727 52.1533 53.1547 52.1533L59.9059 52.1615C59.982 52.1615 60.055 52.1311 60.1089 52.077C60.1627 52.0229 60.193 51.9495 60.193 51.873L60.1848 41.6095C60.1848 41.5873 60.1772 41.5656 60.1634 41.548C60.1495 41.5305 60.1301 41.5179 60.1082 41.5124C60.0681 41.5024 60.0248 41.5029 59.9783 41.5138" stroke="#9C6AEE" stroke-width="2"/>
<path d="M53.0329 41.5152L52.9946 51.7827C52.9937 51.9295 53.0671 52.0029 53.2148 52.0029L59.9085 52.0042C59.955 52.0051 59.9782 51.9823 59.9782 51.9359V41.5138" stroke="#9C6AEE" stroke-width="2"/>
<path d="M14.7515 48.2869C14.7971 48.357 14.8459 48.3912 14.8978 48.3894C15.8412 48.3529 16.7772 48.3388 17.706 48.347C17.723 48.3472 17.7399 48.344 17.7556 48.3376C17.7714 48.3313 17.7857 48.3218 17.7978 48.3099C17.8099 48.2979 17.8194 48.2837 17.826 48.268C17.8325 48.2523 17.8359 48.2355 17.8359 48.2185L17.8441 34.7736C17.8441 34.7449 17.8329 34.7175 17.8129 34.6972C17.7929 34.677 17.7658 34.6656 17.7375 34.6656L14.7611 34.6492C14.7335 34.6492 14.7071 34.66 14.6876 34.6792C14.6681 34.6984 14.6572 34.7245 14.6572 34.7517C14.6563 39.2179 14.6567 43.6899 14.6586 48.1679C14.6586 48.2199 14.6896 48.2595 14.7515 48.2869Z" stroke="#9C6AEE" stroke-width="2"/>
<path d="M77.3113 34.7791C77.3113 34.7479 77.2989 34.718 77.2769 34.6959C77.2548 34.6739 77.2249 34.6615 77.1938 34.6615H74.2816C74.2505 34.6615 74.2206 34.6739 74.1985 34.6959C74.1765 34.718 74.1641 34.7479 74.1641 34.7791V48.265C74.1641 48.2962 74.1765 48.3261 74.1985 48.3482C74.2206 48.3702 74.2505 48.3826 74.2816 48.3826H77.1938C77.2249 48.3826 77.2548 48.3702 77.2769 48.3482C77.2989 48.3261 77.3113 48.2962 77.3113 48.265V34.7791Z" stroke="#9C6AEE" stroke-width="2"/>
<path d="M28.3662 69.7899C28.3662 69.7515 28.3509 69.7146 28.3238 69.6875C28.2966 69.6603 28.2597 69.645 28.2213 69.645H25.3393C25.3008 69.645 25.264 69.6603 25.2368 69.6875C25.2096 69.7146 25.1943 69.7515 25.1943 69.7899V72.6884C25.1943 72.7268 25.2096 72.7637 25.2368 72.7909C25.264 72.818 25.3008 72.8333 25.3393 72.8333H28.2213C28.2597 72.8333 28.2966 72.818 28.3238 72.7909C28.3509 72.7637 28.3662 72.7268 28.3662 72.6884V69.7899Z" stroke="#9C6AEE" stroke-width="2"/>
<path d="M66.7945 69.7763C66.7946 69.7616 66.7917 69.747 66.7862 69.7334C66.7806 69.7197 66.7724 69.7073 66.7621 69.6969C66.7517 69.6864 66.7394 69.6781 66.7258 69.6724C66.7123 69.6667 66.6977 69.6637 66.683 69.6636L63.76 69.6483C63.7452 69.6482 63.7307 69.6511 63.717 69.6566C63.7034 69.6622 63.691 69.6704 63.6805 69.6807C63.6701 69.6911 63.6617 69.7034 63.656 69.717C63.6503 69.7306 63.6473 69.7451 63.6473 69.7598L63.6318 72.7075C63.6318 72.7222 63.6346 72.7368 63.6401 72.7504C63.6457 72.764 63.6539 72.7764 63.6643 72.7869C63.6746 72.7974 63.6869 72.8057 63.7005 72.8114C63.7141 72.8171 63.7286 72.8201 63.7434 72.8202L66.6664 72.8355C66.6811 72.8355 66.6957 72.8327 66.7093 72.8271C66.7229 72.8216 66.7353 72.8134 66.7458 72.803C66.7563 72.7927 66.7646 72.7804 66.7703 72.7668C66.776 72.7532 66.779 72.7387 66.7791 72.7239L66.7945 69.7763Z" stroke="#9C6AEE" stroke-width="2"/>
<path d="M81 31.2666V51.6364L80.9248 51.9016C80.912 51.9472 80.882 51.97 80.8346 51.97H77.5342C77.4804 51.97 77.4535 51.9968 77.4535 52.0506L77.4412 55.2157C77.4412 55.2473 77.435 55.2785 77.4228 55.3077C77.4106 55.3369 77.3928 55.3635 77.3703 55.3858C77.3479 55.4081 77.3212 55.4259 77.2918 55.438C77.2625 55.4501 77.231 55.4563 77.1992 55.4563H70.6764C70.6312 55.4562 70.5877 55.4735 70.5549 55.5045C70.5221 55.5355 70.5025 55.578 70.5 55.6231C70.4139 57.1366 70.4016 58.3752 70.4535 60.102C70.4713 60.7377 70.5492 61.6073 70.4316 62.3483C70.4281 62.37 70.4168 62.3898 70.3997 62.4041C70.3827 62.4184 70.3611 62.4262 70.3387 62.4262L63.6217 62.433C63.6057 62.433 63.5899 62.4362 63.5751 62.4423C63.5604 62.4484 63.5469 62.4574 63.5356 62.4687C63.5243 62.48 63.5154 62.4934 63.5093 62.5082C63.5031 62.5229 63.5 62.5387 63.5 62.5547V65.8127C63.5 65.8581 63.518 65.9015 63.5501 65.9336C63.5821 65.9656 63.6256 65.9836 63.6709 65.9836H70.1978C70.3455 65.9836 70.428 66.057 70.4453 66.2037C70.5342 66.942 70.4125 67.8594 70.4084 68.4377C70.4011 69.4996 70.4007 70.5614 70.407 71.6233C70.407 71.7217 70.4699 71.8844 70.4699 72.002C70.4745 73.4676 70.4749 74.9136 70.4713 76.3401C70.4713 76.385 70.4533 76.4282 70.4212 76.4599C70.3892 76.4917 70.3457 76.5096 70.3004 76.5096L60.1627 76.511C60.145 76.511 60.1276 76.5075 60.1113 76.5007C60.095 76.4939 60.0803 76.484 60.0679 76.4716C60.0556 76.4591 60.0459 76.4443 60.0394 76.428C60.0329 76.4118 60.0297 76.3944 60.0301 76.377C60.0583 74.5513 60.0501 72.7065 60.0055 70.8426C59.9959 70.4694 60.0178 70.0196 59.9426 69.5834C59.9387 69.5605 59.927 69.5397 59.9095 69.5247C59.892 69.5097 59.8698 69.5015 59.8469 69.5014L49.5465 69.5041C49.5217 69.5043 49.4973 69.4978 49.4759 69.4853C49.4545 69.4728 49.4369 69.4547 49.4249 69.433C49.4128 69.4114 49.4069 69.3869 49.4076 69.3621C49.4083 69.3373 49.4156 69.3132 49.4289 69.2922L49.541 69.1118C49.55 69.0974 49.5547 69.0808 49.5547 69.0639V62.5985C49.5547 62.5531 49.5365 62.5097 49.5042 62.4776C49.4719 62.4456 49.4281 62.4276 49.3824 62.4276L42.5123 62.4317C42.4676 62.4317 42.4453 62.454 42.4453 62.4987V69.4317C42.4453 69.4509 42.4377 69.4693 42.4241 69.4829C42.4105 69.4965 42.3921 69.5041 42.3729 69.5041L32.0998 69.5028C32.0615 69.5028 32.0424 69.5224 32.0424 69.5616L32.0602 76.3032C32.0603 76.3304 32.0551 76.3574 32.0447 76.3826C32.0344 76.4078 32.0191 76.4307 31.9998 76.45C31.9805 76.4693 31.9575 76.4847 31.9322 76.4951C31.9069 76.5056 31.8797 76.511 31.8523 76.511L21.7652 76.5096C21.6057 76.5096 21.5264 76.4298 21.5273 76.2703L21.5287 66.1873C21.5287 66.1239 21.5539 66.063 21.5988 66.0182C21.6437 65.9733 21.7045 65.9481 21.768 65.9481L28.4139 65.9508C28.4251 65.951 28.4363 65.9489 28.4467 65.9447C28.4572 65.9404 28.4667 65.9341 28.4747 65.9261C28.4827 65.9181 28.4891 65.9085 28.4934 65.898C28.4978 65.8874 28.5 65.8761 28.5 65.8647V62.5315C28.5 62.5108 28.4918 62.491 28.4772 62.4764C28.4626 62.4618 28.4427 62.4535 28.4221 62.4535L21.768 62.4235C21.704 62.4231 21.6428 62.3975 21.5977 62.3521C21.5527 62.3068 21.5273 62.2454 21.5273 62.1815V55.593C21.5273 55.5571 21.5129 55.5227 21.4873 55.4973C21.4617 55.4719 21.4269 55.4577 21.3906 55.4577L14.7584 55.4549C14.6226 55.454 14.5547 55.3856 14.5547 55.2498V52.3159C14.5547 52.0853 14.4394 51.97 14.2088 51.97H11.1709C11.1256 51.97 11.0821 51.952 11.0501 51.9199C11.018 51.8879 11 51.8444 11 51.7991V31.2612C11 31.1876 11.0292 31.117 11.0813 31.0649C11.1333 31.0129 11.2039 30.9836 11.2775 30.9836H17.6951C17.7687 30.9836 17.8393 30.9544 17.8914 30.9023C17.9434 30.8503 17.9727 30.7797 17.9727 30.7061V24.2543C17.9727 24.1898 17.9983 24.1279 18.0439 24.0822C18.0896 24.0366 18.1515 24.011 18.216 24.011H21.459C21.4769 24.011 21.4941 24.0038 21.5068 23.991C21.5196 23.9782 21.527 23.9609 21.5273 23.9426L21.5287 17.283C21.5287 17.1281 21.6062 17.0502 21.7611 17.0493L31.8646 17.0014C31.906 17.0014 31.9456 17.0177 31.9749 17.0466C32.0041 17.0756 32.0205 17.1149 32.0205 17.1559V20.2457C32.0205 20.3009 32.0424 20.3537 32.0814 20.3927C32.1203 20.4317 32.1732 20.4535 32.2283 20.4535L42.5027 20.4604C42.5222 20.4606 42.5411 20.4672 42.5565 20.4791C42.572 20.491 42.5831 20.5075 42.5882 20.5262C42.5934 20.5448 42.5922 20.5645 42.5849 20.5823C42.5776 20.6001 42.5646 20.6149 42.5479 20.6244L42.5096 20.6477C42.4686 20.6723 42.448 20.7088 42.448 20.7571L42.4426 27.3073C42.4426 27.3866 42.4822 27.4262 42.5615 27.4262L49.4508 27.4317C49.5201 27.4317 49.5547 27.397 49.5547 27.3278V20.6655C49.5547 20.6103 49.5767 20.5575 49.616 20.5185C49.6552 20.4795 49.7084 20.4576 49.7639 20.4576L59.7703 20.4549C59.9262 20.4549 60.0055 20.377 60.0082 20.2211L60.0656 17.1463C60.066 17.1248 60.0734 17.1041 60.0868 17.0875C60.1002 17.0709 60.1188 17.0593 60.1395 17.0547C60.3053 17.0174 60.4685 16.9991 60.6289 17C63.8728 17.0328 67.0798 17.0451 70.2498 17.0369C70.3929 17.0369 70.4649 17.1085 70.4658 17.2516C70.4731 18.4575 70.4749 19.6451 70.4713 20.8145C70.4699 21.2643 70.366 21.8549 70.4111 22.3881C70.4645 23.0157 70.474 23.393 70.4727 23.9166C70.4727 23.9786 70.5041 24.0096 70.567 24.0096L73.784 24.0137C73.9161 24.0137 73.9827 24.0798 73.9836 24.2119L73.9891 30.7334C73.9891 30.7994 74.0153 30.8627 74.0619 30.9094C74.1086 30.956 74.1719 30.9823 74.2379 30.9823C76.4199 30.9841 78.5947 30.9836 80.7621 30.9809C80.9079 30.9809 80.9872 31.0761 81 31.2666ZM28.497 20.5106C28.497 20.5047 28.4958 20.4988 28.4935 20.4934C28.4913 20.4879 28.4879 20.4829 28.4837 20.4787C28.4795 20.4746 28.4746 20.4713 28.4691 20.469C28.4636 20.4667 28.4577 20.4656 28.4518 20.4656L25.0202 20.4716C25.0142 20.4716 25.0084 20.4728 25.0029 20.475C24.9974 20.4773 24.9925 20.4807 24.9883 20.4849C24.9841 20.4891 24.9808 20.494 24.9785 20.4995C24.9763 20.505 24.9751 20.5109 24.9751 20.5168L24.9811 23.9484C24.9811 23.9543 24.9823 23.9602 24.9846 23.9657C24.9869 23.9712 24.9902 23.9761 24.9944 23.9803C24.9986 23.9845 25.0036 23.9878 25.009 23.9901C25.0145 23.9923 25.0204 23.9935 25.0263 23.9935L28.458 23.9875C28.4639 23.9875 28.4697 23.9863 28.4752 23.984C28.4807 23.9817 28.4857 23.9784 28.4898 23.9742C28.494 23.97 28.4973 23.965 28.4996 23.9595C28.5018 23.9541 28.503 23.9482 28.503 23.9423L28.497 20.5106ZM63.7898 23.9891L66.8756 23.9918C66.914 23.9918 66.9509 23.9767 66.9781 23.9498C67.0052 23.9229 67.0205 23.8863 67.0205 23.8483V20.5985C67.0205 20.564 67.0067 20.531 66.9821 20.5066C66.9575 20.4823 66.9241 20.4686 66.8893 20.4686L63.5533 20.4864C63.5178 20.4864 63.5 20.5041 63.5 20.5397V23.9166C63.5 23.9731 63.5283 24.0046 63.5848 24.011C63.6176 24.0146 63.6518 24.0119 63.6873 24.0028C63.721 23.9937 63.7552 23.9891 63.7898 23.9891ZM39.0615 30.9836C39.0406 30.9891 39.0242 30.9545 39.0123 30.8797L39 24.052C39 24.0019 38.9749 23.9768 38.9248 23.9768H35.541C35.4954 23.9768 35.4727 23.9996 35.4727 24.0451L35.4754 30.9139C35.4754 30.9604 35.4521 30.9836 35.4057 30.9836H32.1176C32.0889 30.9836 32.0615 30.995 32.0412 31.0153C32.0209 31.0355 32.0096 31.063 32.0096 31.0916L32.026 34.2621C32.026 34.3263 32.0005 34.3879 31.9551 34.4333C31.9097 34.4786 31.8482 34.5041 31.784 34.5041H28.5725C28.5324 34.5041 28.5128 34.5242 28.5137 34.5643L28.5602 37.959C28.5419 37.9599 28.5237 37.9613 28.5055 37.9631L25.1203 37.9563C25.0255 37.9563 24.9781 38.0037 24.9781 38.0985L24.9809 48.4153C24.9845 48.4636 24.9722 48.4864 24.9439 48.4836H18.1012C18.0758 48.4836 18.0514 48.4735 18.0335 48.4556C18.0156 48.4376 18.0055 48.4133 18.0055 48.3879L18.0082 34.5739C18.0082 34.5283 17.9854 34.505 17.9398 34.5041L14.5807 34.5028C14.5406 34.5028 14.5205 34.5228 14.5205 34.5629L14.5191 48.4153C14.5191 48.4608 14.5424 48.4836 14.5889 48.4836H17.9221C17.9786 48.4836 18.0068 48.5119 18.0068 48.5684L17.9795 51.8825C17.9793 51.8991 17.9824 51.9156 17.9887 51.931C17.9949 51.9464 18.0041 51.9605 18.0158 51.9723C18.0275 51.9841 18.0415 51.9935 18.0568 51.9999C18.0722 52.0063 18.0886 52.0096 18.1053 52.0096L24.9781 52.0123L24.974 58.9002C24.974 58.9292 24.9854 58.9571 25.0057 58.9776C25.0259 58.9981 25.0534 59.0096 25.082 59.0096L29.215 59.011L32.0178 59.0192V65.9125C32.0178 65.9599 32.041 65.9836 32.0875 65.9836H38.9535C38.99 65.9836 39.0082 65.9654 39.0082 65.9289L39.026 59.0123L52.9166 59.011C52.9549 59.011 52.9745 59.0306 52.9754 59.0698C52.9763 59.088 52.9731 59.1044 52.9658 59.119L52.9727 65.9139C52.9727 65.9604 52.9959 65.9836 53.0424 65.9836H59.9057C59.9439 65.9836 59.9635 65.9645 59.9645 65.9262L59.9918 59.0465C60.0182 59.0155 60.0588 59.0032 60.1135 59.0096H66.9207C66.9483 59.0096 66.9747 58.9987 66.9942 58.9792C67.0137 58.9597 67.0246 58.9333 67.0246 58.9057L67.0205 52.4102L67.0287 52.0944C67.0296 52.0406 67.057 52.0128 67.1107 52.011L67.4662 52.0041L73.9248 52.0028C73.9368 52.0028 73.9486 52.0004 73.9597 51.9959C73.9707 51.9913 73.9807 51.9846 73.9891 51.9762C73.9975 51.9679 74.0041 51.9579 74.0086 51.947C74.013 51.936 74.0152 51.9243 74.015 51.9125L73.9836 48.5916C73.9836 48.563 73.9948 48.5355 74.0148 48.5153C74.0348 48.495 74.062 48.4836 74.0902 48.4836H77.4057C77.4476 48.4836 77.4686 48.4627 77.4686 48.4207L77.5096 34.5711C77.5098 34.5624 77.5082 34.5537 77.505 34.5456C77.5018 34.5375 77.497 34.5301 77.4908 34.5238C77.4847 34.5176 77.4774 34.5126 77.4694 34.5093C77.4613 34.5059 77.4527 34.5041 77.4439 34.5041H74.0615C74.015 34.5041 73.9918 34.5269 73.9918 34.5725L73.9945 48.4057C73.9945 48.4264 73.9863 48.4462 73.9717 48.4608C73.9571 48.4754 73.9373 48.4836 73.9166 48.4836H67.0889C67.0424 48.4836 67.0191 48.4608 67.0191 48.4153L67.0219 38.0506C67.0219 38.0249 67.0116 38.0002 66.9934 37.982C66.9752 37.9638 66.9505 37.9535 66.9248 37.9535L63.5055 37.9713L63.4973 37.8907V34.5698C63.4973 34.526 63.4754 34.5041 63.4316 34.5041H60.1586C60.1131 34.5041 60.0695 34.4862 60.0373 34.4542C60.005 34.4222 59.9867 34.3787 59.9863 34.3332L59.9768 31.0493C59.9758 31.0073 59.9544 30.9864 59.9125 30.9864H56.5615C56.5433 30.9845 56.526 30.9622 56.5096 30.9194L56.5041 24.0588C56.5041 24.0041 56.4763 23.9768 56.4207 23.9768H53.0396C52.9941 23.9768 52.9713 24 52.9713 24.0465L52.9768 30.851C52.9768 30.9394 52.9321 30.9836 52.8428 30.9836H39.0615ZM24.9863 31.0178C25.0201 30.9914 25.0506 30.9791 25.0779 30.9809H28.433C28.4777 30.9809 28.5 30.9586 28.5 30.9139V27.5315C28.5 27.4859 28.4772 27.4631 28.4316 27.4631H21.5793C21.5219 27.4631 21.4932 27.4914 21.4932 27.5479V34.3975C21.4932 34.4686 21.5287 34.5041 21.5998 34.5041H24.9385C24.9749 34.5041 24.9932 34.4859 24.9932 34.4494L24.9863 31.0178ZM66.9234 30.9795C66.9471 30.9786 66.979 30.9918 67.0191 31.0192L67.0123 34.4262C67.0123 34.4772 67.0378 34.5028 67.0889 34.5028L70.4357 34.5069C70.4822 34.5069 70.5055 34.4841 70.5055 34.4385L70.5137 27.5178C70.5137 27.4813 70.4954 27.4631 70.459 27.4631H63.6066C63.5355 27.4631 63.5 27.4987 63.5 27.5698V30.9139C63.5 30.9586 63.5228 30.9809 63.5684 30.9809L66.9234 30.9795ZM28.5 69.5383C28.5 69.5289 28.4963 69.5198 28.4896 69.5132C28.4829 69.5065 28.4739 69.5028 28.4645 69.5028H25.0137C25.0042 69.5028 24.9952 69.5065 24.9885 69.5132C24.9819 69.5198 24.9781 69.5289 24.9781 69.5383V72.9563C24.9781 72.9657 24.9819 72.9748 24.9885 72.9814C24.9952 72.9881 25.0042 72.9918 25.0137 72.9918H28.4645C28.4739 72.9918 28.4829 72.9881 28.4896 72.9814C28.4963 72.9748 28.5 72.9657 28.5 72.9563V69.5383ZM67.0235 69.5455C67.0235 69.535 67.0193 69.5249 67.0119 69.5174C67.0045 69.51 66.9944 69.5058 66.9839 69.5058L63.5441 69.4998C63.5389 69.4998 63.5337 69.5008 63.5289 69.5028C63.5241 69.5047 63.5197 69.5077 63.516 69.5113C63.5123 69.515 63.5094 69.5194 63.5074 69.5242C63.5054 69.529 63.5044 69.5341 63.5043 69.5394L63.4984 72.9491C63.4984 72.9596 63.5025 72.9697 63.51 72.9772C63.5174 72.9846 63.5275 72.9888 63.538 72.9888L66.9778 72.9948C66.983 72.9948 66.9882 72.9938 66.993 72.9918C66.9978 72.9898 67.0022 72.9869 67.0059 72.9833C67.0096 72.9796 67.0125 72.9752 67.0145 72.9704C67.0165 72.9656 67.0175 72.9604 67.0175 72.9552L67.0235 69.5455Z" fill="black"/>
<path d="M28.503 23.9424C28.503 23.9483 28.5018 23.9542 28.4996 23.9596C28.4973 23.9651 28.494 23.9701 28.4898 23.9743C28.4856 23.9785 28.4807 23.9818 28.4752 23.9841C28.4697 23.9864 28.4639 23.9876 28.4579 23.9876L25.0263 23.9936C25.0204 23.9936 25.0145 23.9924 25.009 23.9902C25.0035 23.9879 24.9986 23.9846 24.9944 23.9804C24.9902 23.9762 24.9868 23.9713 24.9846 23.9658C24.9823 23.9603 24.9811 23.9545 24.9811 23.9485L24.9751 20.5169C24.9751 20.511 24.9762 20.5051 24.9785 20.4996C24.9808 20.4941 24.9841 20.4892 24.9883 20.485C24.9924 20.4808 24.9974 20.4774 25.0029 20.4752C25.0083 20.4729 25.0142 20.4717 25.0201 20.4717L28.4518 20.4657C28.4577 20.4657 28.4636 20.4668 28.469 20.4691C28.4745 20.4714 28.4795 20.4747 28.4837 20.4789C28.4879 20.483 28.4912 20.488 28.4935 20.4935C28.4958 20.4989 28.497 20.5048 28.497 20.5107L28.503 23.9424ZM28.3892 23.6283L28.3687 20.8009C28.3684 20.7819 28.3607 20.7639 28.3474 20.7506C28.3341 20.7373 28.3162 20.7298 28.2976 20.7298H25.2966C25.2338 20.7298 25.2028 20.7608 25.2037 20.8228L25.2105 23.7882C25.2105 23.8493 25.2315 23.8575 25.2734 23.8128L25.298 23.7869C25.3007 23.7832 25.3048 23.7814 25.3103 23.7814L28.2252 23.7923C28.2468 23.7925 28.2682 23.7884 28.2882 23.7802C28.3081 23.772 28.3263 23.7599 28.3416 23.7447C28.3568 23.7294 28.3689 23.7112 28.3771 23.6913C28.3853 23.6713 28.3894 23.6499 28.3892 23.6283Z" fill="#9C6AEE"/>
<path d="M63.6873 24.0027C63.6518 24.0118 63.6176 24.0145 63.5848 24.0109C63.5283 24.0045 63.5 23.9731 63.5 23.9166V20.5396C63.5 20.5041 63.5178 20.4863 63.5533 20.4863L66.8893 20.4685C66.9241 20.4685 66.9574 20.4822 66.9821 20.5065C67.0067 20.5309 67.0205 20.5639 67.0205 20.5984V23.8482C67.0205 23.8863 67.0052 23.9228 66.9781 23.9497C66.9509 23.9766 66.914 23.9917 66.8756 23.9917L63.7898 23.989C63.7552 23.989 63.721 23.9936 63.6873 24.0027ZM66.7795 20.8992C66.7796 20.8771 66.7753 20.8552 66.7668 20.8348C66.7584 20.8144 66.7461 20.7958 66.7305 20.7802C66.7149 20.7645 66.6964 20.7521 66.676 20.7436C66.6556 20.7351 66.6337 20.7308 66.6116 20.7307L63.8089 20.7258C63.7868 20.7258 63.765 20.7301 63.7445 20.7385C63.7241 20.7469 63.7056 20.7593 63.6899 20.7749C63.6743 20.7905 63.6619 20.809 63.6534 20.8294C63.6449 20.8498 63.6405 20.8716 63.6405 20.8937L63.6357 23.6226C63.6357 23.6447 63.64 23.6666 63.6484 23.687C63.6568 23.7074 63.6692 23.726 63.6848 23.7416C63.7003 23.7572 63.7189 23.7697 63.7392 23.7781C63.7596 23.7866 63.7815 23.791 63.8036 23.7911L66.6063 23.796C66.6284 23.796 66.6503 23.7917 66.6707 23.7833C66.6911 23.7749 66.7097 23.7625 66.7253 23.7469C66.741 23.7313 66.7534 23.7128 66.7619 23.6924C66.7703 23.672 66.7747 23.6502 66.7748 23.6281L66.7795 20.8992Z" fill="#9C6AEE"/>
<path d="M28.3892 23.6282C28.3894 23.6498 28.3852 23.6712 28.3771 23.6912C28.3689 23.7112 28.3568 23.7293 28.3415 23.7446C28.3263 23.7599 28.3081 23.7719 28.2881 23.7801C28.2681 23.7883 28.2467 23.7924 28.2251 23.7922L25.3103 23.7813C25.3048 23.7813 25.3007 23.7831 25.298 23.7868L25.2734 23.8127C25.2314 23.8574 25.2105 23.8492 25.2105 23.7881L25.2036 20.8227C25.2027 20.7607 25.2337 20.7297 25.2966 20.7297H28.2976C28.3162 20.7297 28.3341 20.7372 28.3474 20.7505C28.3607 20.7638 28.3683 20.7819 28.3687 20.8008L28.3892 23.6282Z" fill="#9C6AEE"/>
<path d="M66.612 20.7308L63.8093 20.7259C63.7164 20.7257 63.641 20.8009 63.6408 20.8937L63.6361 23.6227C63.6359 23.7155 63.7111 23.7909 63.8039 23.7911L66.6067 23.796C66.6995 23.7962 66.775 23.721 66.7751 23.6281L66.7799 20.8992C66.78 20.8064 66.7049 20.7309 66.612 20.7308Z" fill="#9C6AEE"/>
<path d="M56.5096 30.9194C56.4139 30.9786 56.3451 30.949 56.3031 30.8305C56.2867 30.7831 56.2799 30.718 56.2826 30.635C56.3496 28.52 56.3496 26.3489 56.2854 24.2475C56.2843 24.2106 56.2688 24.1757 56.2422 24.1501C56.2156 24.1245 56.18 24.1104 56.1432 24.1108L53.3568 24.1368C53.3294 24.1371 53.3032 24.1483 53.2837 24.168C53.2643 24.1877 53.2533 24.2142 53.2529 24.242L53.2133 30.7403C53.2126 30.8392 53.1729 30.9337 53.103 31.0034C53.0331 31.0731 52.9386 31.1122 52.84 31.1122L39.1217 31.1081C39.0816 31.1081 39.0615 31.088 39.0615 31.0479V30.9836H52.8428C52.9321 30.9836 52.9768 30.9394 52.9768 30.851L52.9713 24.0465C52.9713 24 52.9941 23.9768 53.0396 23.9768H56.4207C56.4763 23.9768 56.5041 24.0042 56.5041 24.0588L56.5096 30.9194Z" fill="#9C6AEE"/>
<path d="M39.0123 30.8797C38.9376 30.8888 38.8765 30.8683 38.8291 30.8182C38.7954 30.7827 38.7804 30.7284 38.784 30.6555C38.8524 29.2186 38.7908 27.7735 38.8086 26.3338C38.8177 25.6275 38.8127 24.9334 38.7936 24.2516C38.7925 24.2162 38.7776 24.1826 38.752 24.1581C38.7265 24.1335 38.6923 24.12 38.6569 24.1204L35.8241 24.1368C35.8058 24.1371 35.7884 24.1446 35.7756 24.1577C35.7628 24.1707 35.7557 24.1882 35.7557 24.2065L35.7133 30.7471C35.713 30.7969 35.7028 30.846 35.6835 30.8918C35.6642 30.9376 35.6361 30.9792 35.6009 31.0141C35.5656 31.049 35.5238 31.0766 35.4778 31.0953C35.4319 31.114 35.3828 31.1235 35.3332 31.1231L32.361 31.0999C32.3343 31.0997 32.3078 31.1047 32.2831 31.1148C32.2584 31.1248 32.2359 31.1396 32.217 31.1582C32.1981 31.1769 32.183 31.1991 32.1728 31.2236C32.1625 31.2481 32.1573 31.2743 32.1573 31.3008V34.3428C32.1573 34.3855 32.1488 34.4277 32.1325 34.4671C32.1161 34.5065 32.0921 34.5423 32.0619 34.5724C32.0316 34.6025 31.9958 34.6264 31.9563 34.6426C31.9168 34.6588 31.8745 34.667 31.8319 34.6668L28.8035 34.6559C28.7583 34.6555 28.7148 34.673 28.6823 34.7044C28.6498 34.7359 28.631 34.7789 28.6299 34.8241L28.5602 37.959L28.5137 34.5643C28.5128 34.5242 28.5324 34.5041 28.5725 34.5041H31.784C31.8482 34.5041 31.9097 34.4787 31.9551 34.4333C32.0005 34.3879 32.026 34.3263 32.026 34.2622L32.0096 31.0916C32.0096 31.063 32.021 31.0355 32.0412 31.0153C32.0615 30.995 32.089 30.9836 32.1176 30.9836H35.4057C35.4522 30.9836 35.4754 30.9604 35.4754 30.9139L35.4727 24.0452C35.4727 23.9996 35.4955 23.9768 35.541 23.9768H38.9248C38.975 23.9768 39 24.0019 39 24.052L39.0123 30.8797Z" fill="#9C6AEE"/>
<path d="M39.012 30.8797C39.0239 30.9544 39.0403 30.989 39.0612 30.9836V31.0478C39.0612 31.0879 39.0813 31.108 39.1214 31.108L52.8398 31.1121C52.9383 31.1121 53.0328 31.073 53.1027 31.0033C53.1726 30.9337 53.2123 30.8391 53.213 30.7402L53.2526 24.242C53.253 24.2142 53.264 24.1876 53.2835 24.1679C53.3029 24.1483 53.3291 24.1371 53.3565 24.1367L56.1429 24.1107C56.1798 24.1104 56.2153 24.1245 56.2419 24.15C56.2685 24.1756 56.284 24.2106 56.2851 24.2474C56.3493 26.3488 56.3493 28.5199 56.2823 30.6349C56.2796 30.7179 56.2864 30.7831 56.3028 30.8305C56.3448 30.9489 56.4136 30.9786 56.5093 30.9193C56.5257 30.9622 56.543 30.9845 56.5612 30.9863C56.5512 31.0829 56.5863 31.1303 56.6665 31.1285C57.681 31.1094 58.6822 31.0993 59.6702 31.0984C59.7105 31.0984 59.7491 31.1146 59.7775 31.1433C59.806 31.172 59.822 31.2109 59.822 31.2515L59.811 34.3222C59.811 34.4118 59.8465 34.4977 59.9095 34.561C59.9726 34.6244 60.0582 34.6599 60.1474 34.6599L63.2864 34.6558C63.3067 34.6558 63.3262 34.6639 63.3406 34.6783C63.3549 34.6926 63.363 34.7121 63.363 34.7324C63.3648 35.6785 63.3644 36.6305 63.3616 37.5885C63.3616 37.7306 63.4067 37.8314 63.497 37.8906L63.5052 37.9713C63.4687 38.0369 63.4769 38.1053 63.5298 38.1763C63.5425 38.1933 63.559 38.2071 63.578 38.2166C63.597 38.2261 63.6179 38.231 63.6392 38.231L66.6716 38.2256C66.7445 38.2256 66.781 38.262 66.781 38.3349V48.2853C66.781 48.33 66.7898 48.3742 66.8069 48.4154C66.824 48.4566 66.8491 48.4941 66.8808 48.5256C66.9124 48.5571 66.9499 48.582 66.9912 48.599C67.0325 48.6159 67.0768 48.6246 67.1214 48.6244L73.6552 48.6094C73.6887 48.6093 73.7209 48.6223 73.7451 48.6454C73.7693 48.6686 73.7837 48.7003 73.7851 48.7338C73.8079 49.4019 73.8129 50.0581 73.8001 50.7025C73.796 50.8748 73.9095 51.0293 73.7687 51.2262C73.7413 51.2644 73.7368 51.305 73.755 51.3478L73.8562 51.5926C73.8612 51.6047 73.8638 51.6178 73.8637 51.631C73.8636 51.6442 73.8608 51.6573 73.8556 51.6695C73.8504 51.6817 73.8428 51.6928 73.8333 51.7021C73.8238 51.7114 73.8125 51.7188 73.8001 51.7238C73.6862 51.7685 73.5367 51.7894 73.3517 51.7867C71.4686 51.7548 69.5276 51.7584 67.5288 51.7976C67.4632 51.7985 67.4358 51.8314 67.4468 51.8961L67.4659 52.0041L67.1105 52.0109C67.0567 52.0127 67.0293 52.0405 67.0284 52.0943L67.0202 52.4101C66.9382 52.3673 66.8748 52.4024 66.8302 52.5154C66.8101 52.5646 66.7996 52.6303 66.7987 52.7123C66.776 54.6838 66.7719 56.611 66.7864 58.4941C66.7873 58.6791 66.6953 58.7726 66.5103 58.7744C65.0929 58.7908 63.6765 58.7976 62.261 58.7949C62.0058 58.794 61.8295 58.7817 61.7319 58.758C61.7246 58.7562 61.7183 58.758 61.7128 58.7635C61.7046 58.7726 61.6959 58.7812 61.6868 58.7894C61.6777 58.7985 61.6668 58.8026 61.654 58.8017C61.2192 58.758 60.7981 58.7922 60.3661 58.7689C60.2121 58.7607 60.1278 58.8409 60.1132 59.0095C60.0585 59.0032 60.0179 59.0155 59.9915 59.0465C59.9715 59.0146 59.9519 59.0009 59.9327 59.0054C59.8981 59.0124 59.8669 59.0303 59.8444 59.0563C59.822 59.0822 59.8097 59.1145 59.8097 59.1476L59.8138 65.7101C59.8138 65.7565 59.7952 65.8011 59.7621 65.8339C59.729 65.8667 59.6842 65.8851 59.6374 65.8851L53.4905 65.8728C53.445 65.8726 53.3999 65.8627 53.3585 65.8438C53.317 65.8249 53.28 65.7975 53.2499 65.7632C53.2198 65.729 53.1973 65.6888 53.1838 65.6452C53.1704 65.6017 53.1664 65.5558 53.172 65.5105C53.2185 65.135 53.2431 64.78 53.2458 64.4455C53.2604 62.6909 53.2504 60.925 53.2157 59.1476C53.2145 59.1013 53.1961 59.0572 53.1643 59.0238C53.1324 58.9904 53.0893 58.9702 53.0435 58.9672C53.0371 58.9663 53.0111 59.0168 52.9655 59.1189C52.9728 59.1043 52.976 59.0879 52.9751 59.0697C52.9742 59.0305 52.9546 59.0109 52.9163 59.0109L39.0257 59.0123C38.9122 59.1094 38.8315 59.1572 38.8288 59.3199C38.7996 61.4491 38.7946 63.5577 38.8138 65.6459C38.814 65.6722 38.8089 65.6983 38.799 65.7227C38.789 65.7471 38.7743 65.7692 38.7558 65.7879C38.7372 65.8066 38.7152 65.8214 38.6909 65.8315C38.6666 65.8416 38.6405 65.8469 38.6142 65.8469H32.4632C32.3812 65.8469 32.3026 65.8143 32.2447 65.7564C32.1868 65.6984 32.1542 65.6198 32.1542 65.5379L32.1624 59.0301C32.1626 59.0218 32.1606 59.0136 32.1566 59.0063C32.1527 58.999 32.1469 58.9928 32.1398 58.9883C32.1327 58.9838 32.1245 58.9811 32.1161 58.9806C32.1076 58.98 32.0991 58.9815 32.0913 58.9849L32.0175 59.0191L29.2147 59.0109C29.2266 58.9398 29.2261 58.8829 29.2134 58.84C29.2024 58.8063 29.1792 58.7894 29.1437 58.7894L25.4208 58.7922C25.3734 58.7921 25.3278 58.7744 25.2927 58.7426C25.2576 58.7108 25.2355 58.667 25.2308 58.6199C25.2052 58.3729 25.192 58.1045 25.1911 57.8146C25.1875 55.9407 25.1847 54.0667 25.1829 52.1928C25.1829 52.1299 25.1674 52.0838 25.1364 52.0547C25.0936 52.0155 25.0407 52.0013 24.9778 52.0123C24.9888 51.9494 24.9674 51.8842 24.9136 51.8168C24.9003 51.8006 24.8837 51.7875 24.865 51.7785C24.8464 51.7695 24.8261 51.7648 24.8056 51.7648L18.3196 51.7662C18.308 51.7664 18.2965 51.7642 18.2857 51.7598C18.275 51.7554 18.2651 51.7489 18.2569 51.7407C18.2486 51.7324 18.242 51.7225 18.2376 51.7117C18.2331 51.7008 18.2308 51.6891 18.2308 51.6773L18.228 48.742C18.228 48.7083 18.2414 48.6759 18.2653 48.6521C18.2891 48.6282 18.3215 48.6148 18.3552 48.6148C20.529 48.6103 22.7142 48.608 24.9108 48.608C24.9464 48.608 24.9573 48.5665 24.9437 48.4836C24.9719 48.4863 24.9842 48.4635 24.9806 48.4152C25.007 48.469 25.0549 48.4827 25.1241 48.4562C25.167 48.4398 25.1884 48.4084 25.1884 48.3619L25.1979 38.4525C25.1979 38.3951 25.2207 38.34 25.2611 38.2993C25.3016 38.2586 25.3565 38.2355 25.414 38.2351L28.3726 38.2174C28.4136 38.2174 28.4473 38.2014 28.4737 38.1695C28.5284 38.1002 28.5389 38.0314 28.5052 37.9631C28.5234 37.9612 28.5416 37.9599 28.5599 37.959L28.6296 34.824C28.6307 34.7788 28.6495 34.7358 28.682 34.7044C28.7144 34.6729 28.758 34.6555 28.8032 34.6558L31.8315 34.6668C31.8742 34.667 31.9165 34.6587 31.956 34.6425C31.9954 34.6263 32.0313 34.6025 32.0615 34.5724C32.0918 34.5423 32.1158 34.5065 32.1321 34.4671C32.1485 34.4277 32.1569 34.3854 32.1569 34.3428V31.3008C32.1569 31.2743 32.1622 31.248 32.1725 31.2235C32.1827 31.1991 32.1977 31.1768 32.2167 31.1582C32.2356 31.1395 32.2581 31.1247 32.2828 31.1147C32.3075 31.1047 32.334 31.0996 32.3606 31.0998L35.3329 31.123C35.3825 31.1234 35.4316 31.1139 35.4775 31.0952C35.5234 31.0765 35.5652 31.049 35.6005 31.014C35.6358 30.9791 35.6639 30.9376 35.6832 30.8918C35.7025 30.846 35.7126 30.7968 35.713 30.7471L35.7554 24.2064C35.7554 24.1882 35.7625 24.1706 35.7753 24.1576C35.7881 24.1446 35.8055 24.1371 35.8237 24.1367L38.6565 24.1203C38.692 24.1199 38.7261 24.1335 38.7517 24.158C38.7773 24.1825 38.7922 24.2161 38.7933 24.2515C38.8124 24.9333 38.8174 25.6274 38.8083 26.3338C38.7905 27.7734 38.8521 29.2185 38.7837 30.6555C38.78 30.7284 38.7951 30.7826 38.8288 30.8181C38.8762 30.8683 38.9373 30.8888 39.012 30.8797ZM32.0202 51.9015C31.9929 51.9398 32.0394 51.9708 32.1597 51.9945C32.1177 52.0146 32.0899 52.0433 32.0763 52.0806C32.0571 52.1326 32.0754 52.1586 32.131 52.1586H38.8028C38.8931 52.1586 38.9797 52.1227 39.0436 52.0589C39.1074 51.995 39.1433 51.9084 39.1433 51.8181L39.1419 41.6545C39.1419 41.618 39.1264 41.5902 39.0954 41.5711L39.0093 41.5205L32.0202 41.5137C31.9573 41.4918 31.8944 41.5241 31.8315 41.6107C31.8015 41.6536 31.786 41.7014 31.7851 41.7543L31.781 51.9549C31.7809 51.9662 31.7833 51.9775 31.7878 51.9879C31.7922 51.9984 31.7988 52.0079 31.8071 52.0158C31.8154 52.0237 31.8252 52.0299 31.836 52.034C31.8468 52.0381 31.8583 52.04 31.8698 52.0396C31.8853 52.0387 31.9004 52.0383 31.9149 52.0383C31.955 52.0373 31.9769 52.0164 31.9806 51.9754C31.9842 51.9325 31.9974 51.9079 32.0202 51.9015ZM59.9778 41.5137L53.0325 41.515L52.9423 41.526C52.8776 41.5342 52.8452 41.5711 52.8452 41.6367V51.8441C52.8452 51.9261 52.8778 52.0047 52.9357 52.0626C52.9937 52.1206 53.0723 52.1531 53.1542 52.1531L59.9054 52.1613C59.9815 52.1613 60.0546 52.1309 60.1084 52.0768C60.1622 52.0227 60.1925 51.9493 60.1925 51.8728L60.1843 41.6094C60.1843 41.5871 60.1767 41.5655 60.1629 41.5479C60.149 41.5303 60.1296 41.5178 60.1077 41.5123C60.0676 41.5023 60.0243 41.5027 59.9778 41.5137Z" fill="#9C6AEE"/>
<path d="M25.0779 30.9808C25.1135 30.8887 25.1718 30.8441 25.2529 30.8468C26.21 30.8878 27.1447 30.8965 28.057 30.8728C28.1377 30.8706 28.2143 30.8372 28.2707 30.7795C28.3271 30.7218 28.3589 30.6445 28.3592 30.5638L28.3729 27.7952C28.3729 27.7604 28.359 27.727 28.3344 27.7024C28.3098 27.6778 28.2764 27.664 28.2416 27.664L21.85 27.6654C21.7985 27.6654 21.7491 27.6857 21.7127 27.7218C21.6763 27.758 21.6559 27.807 21.6559 27.8581L21.6586 34.1445C21.6586 34.1641 21.6625 34.1836 21.6701 34.2018C21.6776 34.22 21.6887 34.2365 21.7027 34.2503C21.7167 34.2642 21.7333 34.2751 21.7515 34.2825C21.7698 34.2899 21.7893 34.2937 21.809 34.2935L24.6883 34.273C24.7216 34.273 24.7536 34.2596 24.7772 34.2357C24.8008 34.2119 24.8141 34.1795 24.8141 34.1458L24.8182 31.0724C24.8182 31.0241 24.8414 30.994 24.8879 30.9822C24.9262 30.973 24.959 30.9849 24.9863 31.0177L24.9932 34.4493C24.9932 34.4858 24.9749 34.504 24.9385 34.504H21.5998C21.5287 34.504 21.4932 34.4685 21.4932 34.3974V27.5478C21.4932 27.4913 21.5219 27.463 21.5793 27.463H28.4316C28.4772 27.463 28.5 27.4858 28.5 27.5314V30.9138C28.5 30.9585 28.4777 30.9808 28.433 30.9808H25.0779Z" fill="#9C6AEE"/>
<path d="M67.0191 31.0191C67.0137 30.9589 67.0456 30.9398 67.1148 30.9616C67.1282 30.9655 67.14 30.9736 67.1483 30.9847C67.1567 30.9958 67.1613 31.0093 67.1613 31.0232L67.1559 34.1404C67.1559 34.2406 67.206 34.2912 67.3062 34.2921L70.1842 34.3003C70.205 34.3005 70.2257 34.2966 70.245 34.2888C70.2643 34.281 70.2819 34.2694 70.2967 34.2548C70.3116 34.2402 70.3234 34.2229 70.3315 34.2037C70.3397 34.1845 70.344 34.1639 70.3441 34.1431L70.3455 27.8226C70.3455 27.7815 70.3293 27.742 70.3003 27.7129C70.2714 27.6837 70.2321 27.6671 70.191 27.6667L63.85 27.6572C63.8224 27.657 63.7951 27.6623 63.7695 27.6727C63.744 27.6831 63.7208 27.6985 63.7012 27.7179C63.6816 27.7374 63.6661 27.7605 63.6555 27.786C63.6449 27.8114 63.6395 27.8387 63.6395 27.8663L63.6354 30.5064C63.6353 30.6038 63.6739 30.6973 63.7425 30.7664C63.8111 30.8356 63.9043 30.8748 64.0018 30.8755C64.9105 30.881 65.7996 30.8837 66.6691 30.8837C66.7794 30.8846 66.8642 30.9165 66.9234 30.9794L63.5684 30.9808C63.5228 30.9808 63.5 30.9585 63.5 30.9138V27.5697C63.5 27.4986 63.5355 27.463 63.6066 27.463H70.459C70.4954 27.463 70.5137 27.4812 70.5137 27.5177L70.5055 34.4384C70.5055 34.484 70.4822 34.5068 70.4357 34.5068L67.0889 34.5027C67.0378 34.5027 67.0123 34.4771 67.0123 34.4261L67.0191 31.0191Z" fill="#9C6AEE"/>
<path d="M25.0778 30.9809C25.0505 30.979 25.02 30.9913 24.9862 31.0178C24.9589 30.985 24.9261 30.9731 24.8878 30.9822C24.8413 30.9941 24.8181 31.0242 24.8181 31.0725L24.814 34.1459C24.814 34.1796 24.8007 34.212 24.7771 34.2358C24.7535 34.2597 24.7215 34.273 24.6882 34.273L21.8089 34.2936C21.7892 34.2937 21.7697 34.29 21.7514 34.2826C21.7332 34.2752 21.7166 34.2642 21.7026 34.2504C21.6886 34.2365 21.6775 34.22 21.67 34.2019C21.6624 34.1837 21.6585 34.1642 21.6585 34.1445L21.6558 27.8582C21.6558 27.8071 21.6762 27.758 21.7126 27.7219C21.749 27.6857 21.7984 27.6654 21.8499 27.6654L28.2415 27.6641C28.2763 27.6641 28.3097 27.6779 28.3343 27.7025C28.3589 27.7271 28.3728 27.7605 28.3728 27.7953L28.3591 30.5639C28.3588 30.6445 28.327 30.7219 28.2706 30.7796C28.2142 30.8373 28.1376 30.8707 28.0569 30.8729C27.1446 30.8965 26.2099 30.8879 25.2528 30.8469C25.1717 30.8441 25.1134 30.8888 25.0778 30.9809Z" fill="#9C6AEE"/>
<path d="M67.0195 31.0191C66.9794 30.9918 66.9475 30.9786 66.9238 30.9795C66.8646 30.9166 66.7798 30.8847 66.6695 30.8838C65.8 30.8838 64.9109 30.8811 64.0022 30.8756C63.9047 30.8749 63.8115 30.8357 63.7429 30.7665C63.6743 30.6974 63.6357 30.6039 63.6357 30.5065L63.6398 27.8664C63.6398 27.8388 63.6453 27.8115 63.6559 27.786C63.6665 27.7606 63.682 27.7375 63.7016 27.718C63.7212 27.6986 63.7444 27.6832 63.7699 27.6728C63.7955 27.6623 63.8228 27.6571 63.8504 27.6572L70.1914 27.6668C70.2325 27.6672 70.2718 27.6837 70.3007 27.7129C70.3297 27.7421 70.3459 27.7816 70.3459 27.8227L70.3445 34.1432C70.3444 34.164 70.3401 34.1846 70.3319 34.2038C70.3238 34.2229 70.312 34.2403 70.2971 34.2549C70.2823 34.2695 70.2647 34.281 70.2454 34.2888C70.2261 34.2967 70.2054 34.3006 70.1846 34.3004L67.3066 34.2922C67.2064 34.2913 67.1562 34.2407 67.1562 34.1404L67.1617 31.0232C67.1617 31.0093 67.1571 30.9958 67.1487 30.9847C67.1403 30.9736 67.1286 30.9656 67.1152 30.9617C67.046 30.9398 67.0141 30.959 67.0195 31.0191Z" fill="#9C6AEE"/>
<path d="M56.5617 30.9862H59.9127C59.9546 30.9862 59.9761 31.0072 59.977 31.0491L59.9865 34.3331C59.9869 34.3785 60.0052 34.422 60.0375 34.454C60.0697 34.486 60.1133 34.504 60.1588 34.504H63.4318C63.4756 34.504 63.4975 34.5259 63.4975 34.5696V37.8905C63.4072 37.8313 63.3621 37.7305 63.3621 37.5884C63.3649 36.6304 63.3653 35.6784 63.3635 34.7323C63.3635 34.712 63.3554 34.6925 63.3411 34.6782C63.3267 34.6638 63.3072 34.6557 63.2869 34.6557L60.1479 34.6598C60.0587 34.6598 59.9731 34.6243 59.91 34.5609C59.847 34.4976 59.8115 34.4117 59.8115 34.3221L59.8225 31.2514C59.8225 31.2108 59.8065 31.1719 59.778 31.1432C59.7496 31.1144 59.711 31.0983 59.6707 31.0983C58.6827 31.0992 57.6815 31.1093 56.667 31.1284C56.5868 31.1302 56.5517 31.0828 56.5617 30.9862Z" fill="#9C6AEE"/>
<path d="M24.9438 48.4837C24.9575 48.5666 24.9466 48.6081 24.911 48.6081C22.7144 48.6081 20.5292 48.6104 18.3554 48.6149C18.3216 48.6149 18.2893 48.6283 18.2655 48.6522C18.2416 48.676 18.2282 48.7083 18.2282 48.7421L18.231 51.6774C18.231 51.6892 18.2333 51.7009 18.2378 51.7117C18.2422 51.7226 18.2488 51.7325 18.2571 51.7407C18.2653 51.749 18.2752 51.7555 18.2859 51.7599C18.2967 51.7643 18.3082 51.7665 18.3198 51.7663L24.8058 51.7649C24.8263 51.7649 24.8466 51.7696 24.8652 51.7786C24.8839 51.7876 24.9005 51.8007 24.9138 51.8169C24.9675 51.8843 24.989 51.9495 24.978 52.0124L18.1052 52.0096C18.0885 52.0096 18.0721 52.0063 18.0567 51.9999C18.0414 51.9935 18.0274 51.9841 18.0157 51.9723C18.0041 51.9605 17.9948 51.9465 17.9886 51.931C17.9823 51.9156 17.9792 51.8991 17.9794 51.8825L18.0067 48.5684C18.0067 48.5119 17.9785 48.4837 17.922 48.4837H14.5888C14.5423 48.4837 14.519 48.4609 14.519 48.4153L14.5204 34.563C14.5204 34.5229 14.5405 34.5028 14.5806 34.5028L17.9397 34.5042C17.9853 34.5051 18.0081 34.5283 18.0081 34.5739L18.0054 48.388C18.0054 48.4133 18.0155 48.4377 18.0334 48.4556C18.0513 48.4736 18.0757 48.4837 18.1011 48.4837H24.9438ZM14.7515 48.2868C14.797 48.357 14.8458 48.3912 14.8978 48.3893C15.8411 48.3529 16.7772 48.3387 17.706 48.3469C17.7229 48.3471 17.7398 48.3439 17.7556 48.3376C17.7713 48.3312 17.7856 48.3217 17.7977 48.3098C17.8098 48.2978 17.8194 48.2836 17.8259 48.2679C17.8325 48.2522 17.8358 48.2354 17.8358 48.2184L17.844 34.7735C17.844 34.7449 17.8328 34.7174 17.8128 34.6971C17.7928 34.6769 17.7657 34.6655 17.7374 34.6655L14.761 34.6491C14.7335 34.6491 14.707 34.6599 14.6876 34.6791C14.6681 34.6984 14.6571 34.7244 14.6571 34.7516C14.6562 39.2178 14.6567 43.6899 14.6585 48.1678C14.6585 48.2198 14.6895 48.2594 14.7515 48.2868Z" fill="#9C6AEE"/>
<path d="M67.466 52.0042L67.4468 51.8961C67.4359 51.8314 67.4632 51.7986 67.5289 51.7977C69.5277 51.7585 71.4686 51.7549 73.3517 51.7868C73.5367 51.7895 73.6862 51.7685 73.8002 51.7239C73.8125 51.7189 73.8238 51.7115 73.8334 51.7022C73.8429 51.6928 73.8505 51.6818 73.8557 51.6696C73.8609 51.6574 73.8636 51.6443 73.8637 51.6311C73.8638 51.6179 73.8613 51.6048 73.8562 51.5926L73.755 51.3479C73.7368 51.3051 73.7414 51.2645 73.7687 51.2262C73.9095 51.0293 73.7961 50.8749 73.8002 50.7026C73.8129 50.0582 73.8079 49.4019 73.7851 48.7338C73.7837 48.7003 73.7694 48.6687 73.7452 48.6455C73.721 48.6223 73.6888 48.6094 73.6552 48.6094L67.1214 48.6245C67.0768 48.6246 67.0326 48.616 66.9913 48.599C66.95 48.5821 66.9124 48.5571 66.8808 48.5256C66.8492 48.4941 66.8241 48.4567 66.807 48.4155C66.7898 48.3742 66.781 48.33 66.781 48.2854V38.335C66.781 38.2621 66.7446 38.2256 66.6716 38.2256L63.6392 38.2311C63.618 38.2311 63.5971 38.2262 63.5781 38.2167C63.5591 38.2072 63.5426 38.1934 63.5298 38.1764C63.477 38.1053 63.4688 38.037 63.5052 37.9713L66.9246 37.9536C66.9503 37.9536 66.975 37.9638 66.9932 37.982C67.0114 38.0002 67.0216 38.0249 67.0216 38.0506L67.0189 48.4153C67.0189 48.4609 67.0421 48.4836 67.0886 48.4836H73.9164C73.937 48.4836 73.9569 48.4754 73.9715 48.4608C73.9861 48.4462 73.9943 48.4264 73.9943 48.4057L73.9916 34.5725C73.9916 34.5269 74.0148 34.5042 74.0613 34.5042H77.4437C77.4524 34.5041 77.4611 34.5059 77.4691 34.5093C77.4772 34.5127 77.4845 34.5176 77.4906 34.5239C77.4967 34.5301 77.5015 34.5375 77.5047 34.5456C77.5079 34.5537 77.5095 34.5624 77.5093 34.5711L77.4683 48.4208C77.4683 48.4627 77.4474 48.4836 77.4054 48.4836H74.09C74.0617 48.4836 74.0346 48.495 74.0146 48.5153C73.9946 48.5355 73.9834 48.563 73.9834 48.5916L74.0148 51.9125C74.015 51.9243 74.0128 51.936 74.0083 51.947C74.0039 51.9579 73.9973 51.9679 73.9889 51.9763C73.9805 51.9847 73.9705 51.9913 73.9594 51.9959C73.9484 52.0004 73.9365 52.0028 73.9246 52.0028L67.466 52.0042ZM77.3111 34.779C77.3111 34.7478 77.2987 34.7179 77.2766 34.6958C77.2546 34.6738 77.2247 34.6614 77.1935 34.6614H74.2814C74.2502 34.6614 74.2203 34.6738 74.1983 34.6958C74.1762 34.7179 74.1638 34.7478 74.1638 34.779V48.2649C74.1638 48.2961 74.1762 48.326 74.1983 48.348C74.2203 48.3701 74.2502 48.3825 74.2814 48.3825H77.1935C77.2247 48.3825 77.2546 48.3701 77.2766 48.348C77.2987 48.326 77.3111 48.2961 77.3111 48.2649V34.779Z" fill="#9C6AEE"/>
<path d="M14.7515 48.2866C14.6896 48.2593 14.6586 48.2196 14.6586 48.1677C14.6567 43.6897 14.6563 39.2176 14.6572 34.7515C14.6572 34.7243 14.6681 34.6982 14.6876 34.679C14.7071 34.6597 14.7335 34.6489 14.7611 34.6489L17.7375 34.6653C17.7658 34.6653 17.7929 34.6767 17.8129 34.697C17.8329 34.7172 17.8441 34.7447 17.8441 34.7733L17.8359 48.2183C17.8359 48.2353 17.8325 48.2521 17.826 48.2678C17.8194 48.2834 17.8099 48.2977 17.7978 48.3096C17.7857 48.3216 17.7714 48.331 17.7556 48.3374C17.7399 48.3438 17.723 48.347 17.706 48.3468C16.7772 48.3386 15.8412 48.3527 14.8978 48.3892C14.8459 48.391 14.7971 48.3568 14.7515 48.2866Z" fill="#9C6AEE"/>
<path d="M77.1938 34.6614H74.2816C74.2167 34.6614 74.1641 34.714 74.1641 34.779V48.2649C74.1641 48.3298 74.2167 48.3825 74.2816 48.3825H77.1938C77.2587 48.3825 77.3113 48.3298 77.3113 48.2649V34.779C77.3113 34.714 77.2587 34.6614 77.1938 34.6614Z" fill="#9C6AEE"/>
<path d="M28.5054 37.9631C28.5391 38.0315 28.5286 38.1003 28.4739 38.1696C28.4475 38.2015 28.4138 38.2174 28.3728 38.2174L25.4142 38.2352C25.3567 38.2356 25.3018 38.2586 25.2613 38.2994C25.2209 38.3401 25.1981 38.3952 25.1981 38.4526L25.1886 48.362C25.1886 48.4084 25.1672 48.4399 25.1243 48.4563C25.055 48.4827 25.0072 48.4691 24.9808 48.4153L24.978 38.0985C24.978 38.0037 25.0254 37.9563 25.1202 37.9563L28.5054 37.9631Z" fill="#9C6AEE"/>
<path d="M32.0205 41.5137V51.9016C31.9977 51.908 31.9845 51.9326 31.9809 51.9754C31.9772 52.0164 31.9553 52.0374 31.9152 52.0383C31.9007 52.0383 31.8856 52.0388 31.8701 52.0397C31.8586 52.04 31.8471 52.0381 31.8363 52.034C31.8255 52.0299 31.8157 52.0237 31.8074 52.0158C31.7991 52.0079 31.7925 51.9985 31.788 51.988C31.7835 51.9775 31.7812 51.9663 31.7813 51.9549L31.7854 41.7543C31.7863 41.7015 31.8018 41.6536 31.8318 41.6108C31.8947 41.5242 31.9576 41.4918 32.0205 41.5137Z" fill="#9C6AEE"/>
<path d="M32.0203 41.5137L39.0094 41.5205L38.9902 51.8209C38.9902 51.9394 38.931 51.9986 38.8125 51.9986L32.1597 51.9945C32.0394 51.9708 31.9929 51.9398 32.0203 51.9016V41.5137Z" fill="black"/>
<path d="M53.033 41.5151L52.9947 51.7826C52.9938 51.9294 53.0672 52.0027 53.2148 52.0027L59.9086 52.0041C59.9551 52.005 59.9783 51.9822 59.9783 51.9358V41.5137C60.0248 41.5027 60.0681 41.5023 60.1082 41.5123C60.1301 41.5178 60.1495 41.5303 60.1634 41.5479C60.1772 41.5655 60.1848 41.5871 60.1848 41.6094L60.193 51.8729C60.193 51.9494 60.1627 52.0227 60.1089 52.0768C60.055 52.1309 59.982 52.1613 59.9059 52.1613L53.1547 52.1531C53.0727 52.1531 52.9941 52.1206 52.9362 52.0626C52.8783 52.0047 52.8457 51.9261 52.8457 51.8442V41.6367C52.8457 41.5711 52.8781 41.5342 52.9428 41.526L53.033 41.5151Z" fill="#9C6AEE"/>
<path d="M59.9782 41.5137V51.9357C59.9782 51.9822 59.955 52.005 59.9085 52.0041L53.2148 52.0027C53.0671 52.0027 52.9937 51.9294 52.9946 51.7826L53.0329 41.515L59.9782 41.5137Z" fill="black"/>
<path d="M39.0097 41.5205L39.0958 41.5711C39.1268 41.5902 39.1423 41.618 39.1423 41.6545L39.1437 51.8182C39.1437 51.9085 39.1078 51.995 39.044 52.0589C38.9801 52.1227 38.8935 52.1586 38.8033 52.1586H32.1314C32.0758 52.1586 32.0575 52.1326 32.0767 52.0807C32.0904 52.0433 32.1182 52.0146 32.1601 51.9945L38.8128 51.9986C38.9313 51.9986 38.9906 51.9394 38.9906 51.8209L39.0097 41.5205Z" fill="#9C6AEE"/>
<path d="M29.2151 59.011L25.0821 59.0096C25.0535 59.0096 25.026 58.9981 25.0058 58.9776C24.9855 58.9571 24.9741 58.9293 24.9741 58.9003L24.9782 52.0124C25.0411 52.0014 25.094 52.0156 25.1368 52.0548C25.1678 52.0839 25.1833 52.1299 25.1833 52.1928C25.1851 54.0668 25.1879 55.9408 25.1915 57.8147C25.1924 58.1046 25.2056 58.373 25.2312 58.62C25.2359 58.6671 25.2579 58.7108 25.293 58.7427C25.3282 58.7745 25.3738 58.7921 25.4212 58.7923L29.144 58.7895C29.1796 58.7895 29.2028 58.8064 29.2138 58.8401C29.2265 58.8829 29.227 58.9399 29.2151 59.011Z" fill="#9C6AEE"/>
<path d="M67.0203 52.4101L67.0244 58.9056C67.0244 58.9332 67.0135 58.9596 66.994 58.9791C66.9745 58.9986 66.9481 59.0095 66.9205 59.0095H60.1133C60.1279 58.8409 60.2122 58.7607 60.3662 58.7689C60.7982 58.7922 61.2193 58.758 61.6541 58.8017C61.6669 58.8026 61.6778 58.7985 61.6869 58.7894C61.696 58.7812 61.7047 58.7726 61.7129 58.7634C61.7184 58.758 61.7247 58.7561 61.732 58.758C61.8296 58.7817 62.0059 58.794 62.2611 58.7949C63.6766 58.7976 65.093 58.7908 66.5103 58.7744C66.6954 58.7726 66.7874 58.6791 66.7865 58.4941C66.7719 56.611 66.776 54.6837 66.7988 52.7123C66.7997 52.6302 66.8102 52.5646 66.8303 52.5154C66.8749 52.4024 66.9383 52.3673 67.0203 52.4101Z" fill="#9C6AEE"/>
<path d="M39.0258 59.0122L39.008 65.9288C39.008 65.9653 38.9898 65.9835 38.9533 65.9835H32.0873C32.0408 65.9835 32.0176 65.9598 32.0176 65.9124V59.019L32.0914 58.9849C32.0992 58.9814 32.1077 58.9799 32.1162 58.9805C32.1246 58.9811 32.1328 58.9837 32.1399 58.9882C32.147 58.9927 32.1528 58.9989 32.1567 59.0062C32.1607 59.0135 32.1627 59.0217 32.1625 59.03L32.1543 65.5378C32.1543 65.6197 32.1869 65.6983 32.2448 65.7563C32.3027 65.8142 32.3813 65.8468 32.4633 65.8468H38.6143C38.6406 65.8468 38.6667 65.8416 38.691 65.8314C38.7153 65.8213 38.7373 65.8065 38.7559 65.7878C38.7744 65.7691 38.7891 65.747 38.7991 65.7226C38.809 65.6982 38.814 65.6721 38.8139 65.6458C38.7947 63.5576 38.7997 61.449 38.8289 59.3198C38.8316 59.1571 38.9123 59.1093 39.0258 59.0122Z" fill="#9C6AEE"/>
<path d="M59.9918 59.0466L59.9645 65.9263C59.9635 65.9646 59.9439 65.9837 59.9057 65.9837H53.0424C52.9959 65.9837 52.9727 65.9605 52.9727 65.914L52.9658 59.1191C53.0114 59.017 53.0374 58.9664 53.0437 58.9673C53.0896 58.9704 53.1327 58.9905 53.1646 59.0239C53.1964 59.0573 53.2148 59.1015 53.216 59.1478C53.2506 60.9251 53.2607 62.6911 53.2461 64.4456C53.2434 64.7801 53.2187 65.1351 53.1723 65.5107C53.1667 65.5559 53.1707 65.6018 53.1841 65.6454C53.1976 65.6889 53.2201 65.7291 53.2502 65.7634C53.2803 65.7976 53.3173 65.8251 53.3587 65.8439C53.4002 65.8628 53.4452 65.8727 53.4908 65.873L59.6377 65.8853C59.6845 65.8853 59.7293 65.8668 59.7624 65.834C59.7955 65.8012 59.8141 65.7567 59.8141 65.7103L59.81 59.1478C59.81 59.1146 59.8223 59.0823 59.8447 59.0564C59.8672 59.0305 59.8984 59.0125 59.933 59.0056C59.9521 59.001 59.9717 59.0147 59.9918 59.0466Z" fill="#9C6AEE"/>
<path d="M28.4999 72.9562C28.4999 72.9656 28.4962 72.9747 28.4895 72.9813C28.4828 72.988 28.4738 72.9918 28.4644 72.9918H25.0136C25.0041 72.9918 24.9951 72.988 24.9884 72.9813C24.9818 72.9747 24.978 72.9656 24.978 72.9562V69.5382C24.978 69.5288 24.9818 69.5198 24.9884 69.5131C24.9951 69.5064 25.0041 69.5027 25.0136 69.5027H28.4644C28.4738 69.5027 28.4828 69.5064 28.4895 69.5131C28.4962 69.5198 28.4999 69.5288 28.4999 69.5382V72.9562ZM28.3659 69.7898C28.3659 69.7514 28.3506 69.7145 28.3235 69.6873C28.2963 69.6601 28.2594 69.6449 28.221 69.6449H25.339C25.3005 69.6449 25.2637 69.6601 25.2365 69.6873C25.2093 69.7145 25.194 69.7514 25.194 69.7898V72.6882C25.194 72.7267 25.2093 72.7635 25.2365 72.7907C25.2637 72.8179 25.3005 72.8332 25.339 72.8332H28.221C28.2594 72.8332 28.2963 72.8179 28.3235 72.7907C28.3506 72.7635 28.3659 72.7267 28.3659 72.6882V69.7898Z" fill="#9C6AEE"/>
<path d="M67.0172 72.9553C67.0172 72.9606 67.0161 72.9657 67.0141 72.9705C67.0121 72.9753 67.0092 72.9797 67.0055 72.9834C67.0018 72.987 66.9974 72.99 66.9926 72.9919C66.9878 72.9939 66.9827 72.9949 66.9775 72.9949L63.5376 72.9889C63.5271 72.9889 63.517 72.9847 63.5096 72.9773C63.5022 72.9698 63.498 72.9597 63.498 72.9492L63.504 69.5395C63.504 69.5342 63.505 69.5291 63.507 69.5243C63.509 69.5195 63.512 69.5151 63.5157 69.5114C63.5193 69.5078 63.5237 69.5049 63.5285 69.5029C63.5333 69.5009 63.5385 69.4999 63.5437 69.4999L66.9836 69.5059C66.9941 69.5059 67.0041 69.5101 67.0116 69.5175C67.019 69.525 67.0231 69.5351 67.0231 69.5456L67.0172 72.9553ZM66.7941 69.7764C66.7941 69.7616 66.7913 69.747 66.7858 69.7334C66.7802 69.7198 66.772 69.7074 66.7616 69.6969C66.7513 69.6865 66.739 69.6781 66.7254 69.6724C66.7118 69.6667 66.6973 69.6637 66.6825 69.6637L63.7595 69.6484C63.7448 69.6483 63.7302 69.6511 63.7166 69.6567C63.703 69.6622 63.6906 69.6704 63.6801 69.6808C63.6696 69.6911 63.6613 69.7035 63.6556 69.717C63.6499 69.7306 63.6469 69.7452 63.6468 69.7599L63.6314 72.7075C63.6313 72.7222 63.6341 72.7368 63.6397 72.7505C63.6453 72.7641 63.6535 72.7765 63.6638 72.7869C63.6742 72.7974 63.6865 72.8057 63.7001 72.8114C63.7136 72.8171 63.7282 72.8201 63.7429 72.8202L66.6659 72.8355C66.6806 72.8356 66.6952 72.8328 66.7089 72.8272C66.7225 72.8216 66.7349 72.8134 66.7454 72.8031C66.7558 72.7927 66.7642 72.7804 66.7699 72.7668C66.7756 72.7533 66.7785 72.7387 66.7786 72.724L66.7941 69.7764Z" fill="#9C6AEE"/>
<path d="M28.2208 69.6449H25.3388C25.2587 69.6449 25.1938 69.7098 25.1938 69.7898V72.6883C25.1938 72.7683 25.2587 72.8332 25.3388 72.8332H28.2208C28.3008 72.8332 28.3657 72.7683 28.3657 72.6883V69.7898C28.3657 69.7098 28.3008 69.6449 28.2208 69.6449Z" fill="#9C6AEE"/>
<path d="M66.6831 69.6636L63.7601 69.6483C63.6981 69.648 63.6477 69.6979 63.6474 69.7598L63.6319 72.7074C63.6316 72.7693 63.6815 72.8198 63.7434 72.8201L66.6665 72.8354C66.7284 72.8358 66.7788 72.7858 66.7792 72.7239L66.7946 69.7763C66.7949 69.7144 66.745 69.6639 66.6831 69.6636Z" fill="#9C6AEE"/>
</svg>
